{
.appVersion = "1075";
classes = (
{
code = "a i zero one two three four five six seven eight nine";
name = aalt1;
},
{
code = "A O Scedilla uni0162 aacute abreve uni1EAF uni1EB7 uni1EB1 uni1EB3 uni1EB5 uni01CE acircumflex uni1EA5 uni1EAD uni1EA7 uni1EA9 uni1EAB uni0201 adieresis uni0227 uni1EA1 agrave uni1EA3 uni0203 amacron aogonek aring aringacute atilde j o scedilla uni0163 one.tosf zero.numr one.numr two.numr three.numr four.numr five.numr six.numr seven.numr eight.numr nine.numr periodcentered slash uni0308 uni0307 gravecomb acutecomb uni030B uni0302 uni030C uni0306 uni030A tildecomb uni0304 hookabovecomb uni030F uni0311 uni0312 uni02BF uni02BE uni03060301 uni03060300 uni03060309 uni03060303 uni03020301 uni03020300 uni03020309 uni03020303";
name = aalt2;
},
{
code = "ordfeminine ordmasculine Scommaaccent uni021A aacute.ss01 abreve.ss01 uni1EAF.ss01 uni1EB7.ss01 uni1EB1.ss01 uni1EB3.ss01 uni1EB5.ss01 uni01CE.ss01 acircumflex.ss01 uni1EA5.ss01 uni1EAD.ss01 uni1EA7.ss01 uni1EA9.ss01 uni1EAB.ss01 uni0201.ss01 adieresis.ss01 uni0227.ss01 uni1EA1.ss01 agrave.ss01 uni1EA3.ss01 uni0203.ss01 amacron.ss01 aogonek.ss01 aring.ss01 aringacute.ss01 atilde.ss01 uni0237 ordmasculine scommaaccent uni021B one.tosf.ss01 zero.dnom one.dnom two.dnom three.dnom four.dnom five.dnom six.dnom seven.dnom eight.dnom nine.dnom periodcentered.loclCAT fraction uni0308.case uni0307.case gravecomb.case acutecomb.case uni030B.case uni0302.case uni030C.case uni0306.case uni030A.case tildecomb.case uni0304.case hookabovecomb.case uni030F.case uni0311.case uni0312.case uni02BF.case uni02BE.case uni03060301.case uni03060300.case uni03060309.case uni03060303.case uni03020301.case uni03020300.case uni03020309.case uni03020303.case";
name = aalt3;
},
{
code = "uni0308 uni0307 gravecomb acutecomb uni030B uni0302 uni030C uni0306 uni030A tildecomb uni0304 hookabovecomb uni030F uni0311 uni0312";
name = ccmp1;
},
{

glyphs = (
{
glyphname = A;
lastChange = "2017-11-14 17:14:40 +0000";
layers = (
{
anchors = (
{
name = mark0;
position = "{359, 0}";
},
{
name = mark1;
position = "{682, 10}";
},
{
name = mark2;
position = "{359, 705}";
},
{
name = mark3;
position = "{0, 0}";
},
{
name = mark4;
position = "{0, 0}";
}
);
hints = (
{
place = "{29, 660}";
},
{
horizontal = 1;
place = "{0, 21}";
target = up;
type = BottomGhost;
},
{
horizontal = 1;
place = "{191, 48}";
},
{
horizontal = 1;
place = "{639, 66}";
},
{
horizontal = 1;
place = "{705, -20}";
target = down;
type = TopGhost;
}
);
layerId = UUID0;
paths = (
{
closed = 1;
nodes = (
"633 0 LINE",
"689 0 LINE",
"384 705 LINE",
"334 705 LINE",
"29 0 LINE",
"85 0 LINE",
"167 191 LINE",
"551 191 LINE"
);
},
{
closed = 1;
nodes = (
"188 239 LINE",
"359 639 LINE",
"530 239 LINE"
);
}
);
width = 718;
}
);
leftKerningGroup = A;
rightKerningGroup = A;
unicode = 0041;
},
{
glyphname = Aacute;
lastChange = "2017-11-14 17:14:40 +0000";
layers = (
{
anchors = (
{
name = mark0;
position = "{359, 0}";
},
{
name = mark1;
position = "{682, 10}";
},
{
name = mark2;
position = "{359, 865}";
},
{
name = mark3;
position = "{0, 0}";
},
{
name = mark4;
position = "{0, 0}";
}
);
hints = (
{
place = "{29, 660}";
},
{
horizontal = 1;
place = "{0, 21}";
target = up;
type = BottomGhost;
},
{
horizontal = 1;
place = "{191, 48}";
},
{
horizontal = 1;
place = "{639, 66}";
},
{
horizontal = 1;
place = "{705, -20}";
target = down;
type = TopGhost;
},
{
horizontal = 1;
place = "{765, 150}";
}
);
layerId = UUID0;
paths = (
{
closed = 1;
nodes = (
"507 915 LINE",
"438 915 LINE",
"338 765 LINE",
"380 765 LINE"
);
},
{
closed = 1;
nodes = (
"633 0 LINE",
"689 0 LINE",
"384 705 LINE",
"334 705 LINE",
"29 0 LINE",
"85 0 LINE",
"167 191 LINE",
"551 191 LINE"
);
},
{
closed = 1;
nodes = (
"188 239 LINE",
"359 639 LINE",
"530 239 LINE"
);
}
);
width = 718;
}
);
leftKerningGroup = A;
rightKerningGroup = A;
unicode = 00C1;
},
{
glyphname = Abreve;
lastChange = "2017-11-14 17:14:40 +0000";
layers = (
{
anchors = (
{
name = mark0;
position = "{359, 0}";
},
{
name = mark1;
position = "{682, 10}";
},
{
name = mark2;
position = "{359, 865}";
},
{
name = mark3;
position = "{0, 0}";
},
{
name = mark4;
position = "{0, 0}";
}
);
hints = (
{
place = "{29, 660}";
},
{
horizontal = 1;
place = "{0, 21}";
target = up;
type = BottomGhost;
},
{
horizontal = 1;
place = "{191, 48}";
},
{
horizontal = 1;
place = "{639, 66}";
},
{
horizontal = 1;
place = "{705, -20}";
target = down;
type = TopGhost;
},
{
horizontal = 1;
place = "{778, 46}";
}
);
layerId = UUID0;
paths = (
{
closed = 1;
nodes = (
"423 778 OFFCURVE",
"483 804 OFFCURVE",
"516 883 CURVE",
"472 902 LINE",
"438 839 OFFCURVE",
"404 824 OFFCURVE",
"359 824 CURVE SMOOTH",
"314 824 OFFCURVE",
"280 839 OFFCURVE",
"246 902 CURVE",
"202 883 LINE",
"234 804 OFFCURVE",
"295 778 OFFCURVE",
"359 778 CURVE SMOOTH"
);
},
{
closed = 1;
nodes = (
"633 0 LINE",
"689 0 LINE",
"384 705 LINE",
"334 705 LINE",
"29 0 LINE",
"85 0 LINE",
"167 191 LINE",
"551 191 LINE"
);
},
{
closed = 1;
nodes = (
"188 239 LINE",
"359 639 LINE",
"530 239 LINE"
);
}
);
width = 718;
}
);
leftKerningGroup = A;
rightKerningGroup = A;
unicode = 0102;
},
{
glyphname = Acircumflex;
lastChange = "2017-11-14 17:14:40 +0000";
layers = (
{
anchors = (
{
name = mark0;
position = "{359, 0}";
},
{
name = mark1;
position = "{682, 10}";
},
{
name = mark2;
position = "{359, 865}";
},
{
name = mark3;
position = "{0, 0}";
},
{
name = mark4;
position = "{0, 0}";
}
);
hints = (
{
place = "{29, 660}";
},
{
horizontal = 1;
place = "{0, 21}";
target = up;
type = BottomGhost;
},
{
horizontal = 1;
place = "{191, 48}";
},
{
horizontal = 1;
place = "{639, 66}";
},
{
horizontal = 1;
place = "{705, -20}";
target = down;
type = TopGhost;
},
{
horizontal = 1;
place = "{765, 150}";
}
);
layerId = UUID0;
paths = (
{
closed = 1;
nodes = (
"359 875 LINE",
"436 765 LINE",
"494 765 LINE",
"380 915 LINE",
"338 915 LINE",
"224 765 LINE",
"282 765 LINE"
);
},
{
closed = 1;
nodes = (
"633 0 LINE",
"689 0 LINE",
"384 705 LINE",
"334 705 LINE",
"29 0 LINE",
"85 0 LINE",
"167 191 LINE",
"551 191 LINE"
);
},
{
closed = 1;
nodes = (
"188 239 LINE",
"359 639 LINE",
"530 239 LINE"
);
}
);
width = 718;
}
);
leftKerningGroup = A;
rightKerningGroup = A;
unicode = 00C2;
},
{
glyphname = Adieresis;
lastChange = "2017-11-14 17:14:40 +0000";
layers = (
{
anchors = (
{
name = mark0;
position = "{359, 0}";
},
{
name = mark1;
position = "{682, 10}";
},
{
name = mark2;
position = "{359, 865}";
},
{
name = mark3;
position = "{0, 0}";
},
{
name = mark4;
position = "{0, 0}";
}
);
hints = (
{
place = "{242, 70}";
},
{
place = "{406, 70}";
},
{
horizontal = 1;
place = "{0, 21}";
target = up;
type = BottomGhost;
},
{
horizontal = 1;
place = "{191, 48}";
},
{
horizontal = 1;
place = "{639, 66}";
},
{
horizontal = 1;
place = "{705, -20}";
target = down;
type = TopGhost;
},
{
horizontal = 1;
place = "{807, 68}";
}
);
layerId = UUID0;
paths = (
{
closed = 1;
nodes = (
"312 875 LINE",
"242 875 LINE",
"242 807 LINE",
"312 807 LINE"
);
},
{
closed = 1;
nodes = (
"476 875 LINE",
"406 875 LINE",
"406 807 LINE",
"476 807 LINE"
);
},
{
closed = 1;
nodes = (
"633 0 LINE",
"689 0 LINE",
"384 705 LINE",
"334 705 LINE",
"29 0 LINE",
"85 0 LINE",
"167 191 LINE",
"551 191 LINE"
);
},
{
closed = 1;
nodes = (
"188 239 LINE",
"359 639 LINE",
"530 239 LINE"
);
}
);
width = 718;
}
);
leftKerningGroup = A;
rightKerningGroup = A;
unicode = 00C4;
},
{
glyphname = Agrave;
lastChange = "2017-11-14 17:14:40 +0000";
layers = (
{
anchors = (
{
name = mark0;
position = "{359, 0}";
},
{
name = mark1;
position = "{682, 10}";
},
{
name = mark2;
position = "{359, 865}";
},
{
name = mark3;
position = "{0, 0}";
},
{
name = mark4;
position = "{0, 0}";
}
);
hints = (
{
place = "{29, 660}";
},
{
horizontal = 1;
place = "{0, 21}";
target = up;
type = BottomGhost;
},
{
horizontal = 1;
place = "{191, 48}";
},
{
horizontal = 1;
place = "{639, 66}";
},
{
horizontal = 1;
place = "{705, -20}";
target = down;
type = TopGhost;
},
{
horizontal = 1;
place = "{765, 150}";
}
);
layerId = UUID0;
paths = (
{
closed = 1;
nodes = (
"380 765 LINE",
"280 915 LINE",
"211 915 LINE",
"338 765 LINE"
);
},
{
closed = 1;
nodes = (
"633 0 LINE",
"689 0 LINE",
"384 705 LINE",
"334 705 LINE",
"29 0 LINE",
"85 0 LINE",
"167 191 LINE",
"551 191 LINE"
);
},
{
closed = 1;
nodes = (
"188 239 LINE",
"359 639 LINE",
"530 239 LINE"
);
}
);
width = 718;
}
);
leftKerningGroup = A;
rightKerningGroup = A;
unicode = 00C0;
},
{
glyphname = Amacron;
lastChange = "2017-11-14 17:14:40 +0000";
layers = (
{
anchors = (
{
name = mark0;
position = "{359, 0}";
},
{
name = mark1;
position = "{682, 10}";
},
{
name = mark2;
position = "{359, 865}";
},
{
name = mark3;
position = "{0, 0}";
},
{
name = mark4;
position = "{0, 0}";
}
);
hints = (
{
place = "{29, 660}";
},
{
horizontal = 1;
place = "{0, 21}";
target = up;
type = BottomGhost;
},
{
horizontal = 1;
place = "{191, 48}";
},
{
horizontal = 1;
place = "{639, 66}";
},
{
horizontal = 1;
place = "{705, -20}";
target = down;
type = TopGhost;
},
{
horizontal = 1;
place = "{817, 48}";
}
);
layerId = UUID0;
paths = (
{
closed = 1;
nodes = (
"506 865 LINE",
"212 865 LINE",
"212 817 LINE",
"506 817 LINE"
);
},
{
closed = 1;
nodes = (
"633 0 LINE",
"689 0 LINE",
"384 705 LINE",
"334 705 LINE",
"29 0 LINE",
"85 0 LINE",
"167 191 LINE",
"551 191 LINE"
);
},
{
closed = 1;
nodes = (
"188 239 LINE",
"359 639 LINE",
"530 239 LINE"
);
}
);
width = 718;
}
);
leftKerningGroup = A;
rightKerningGroup = A;
unicode = 0100;
},
{
glyphname = Aogonek;
lastChange = "2017-11-14 17:14:40 +0000";
layers = (
{
hints = (
{
place = "{540, 50}";
},
{
horizontal = 1;
place = "{-191, 43}";
},
{
horizontal = 1;
place = "{0, 27}";
},
{
horizontal = 1;
place = "{0, 21}";
target = up;
type = BottomGhost;
},
{
horizontal = 1;
place = "{191, 48}";
},
{
horizontal = 1;
place = "{639, 66}";
},
{
horizontal = 1;
place = "{705, -20}";
target = down;
type = TopGhost;
}
);
layerId = UUID0;
paths = (
{
closed = 1;
nodes = (
"717 -130 LINE",
"696 -142 OFFCURVE",
"674 -148 OFFCURVE",
"658 -148 CURVE SMOOTH",
"618 -148 OFFCURVE",
"590 -125 OFFCURVE",
"590 -82 CURVE SMOOTH",
"590 -38 OFFCURVE",
"618 0 OFFCURVE",
"682 0 CURVE SMOOTH",
"689 0 LINE",
"384 705 LINE",
"334 705 LINE",
"29 0 LINE",
"85 0 LINE",
"167 191 LINE",
"551 191 LINE",
"621 27 LINE",
"568 5 OFFCURVE",
"540 -38 OFFCURVE",
"540 -88 CURVE SMOOTH",
"540 -148 OFFCURVE",
"585 -191 OFFCURVE",
"653 -191 CURVE SMOOTH",
"686 -191 OFFCURVE",
"714 -181 OFFCURVE",
"733 -168 CURVE"
);
},
{
closed = 1;
nodes = (
"188 239 LINE",
"359 639 LINE",
"530 239 LINE"
);
}
);
width = 718;
}
);
leftKerningGroup = A;
rightKerningGroup = A;
unicode = 0104;
},
{
glyphname = Aring;
lastChange = "2017-11-14 17:14:40 +0000";
layers = (
{
hints = (
{
place = "{261, 48}";
},
{
place = "{409, 48}";
},
{
horizontal = 1;
place = "{0, 21}";
target = up;
type = BottomGhost;
},
{
horizontal = 1;
place = "{191, 48}";
},
{
horizontal = 1;
place = "{681, 38}";
},
{
horizontal = 1;
place = "{719, -20}";
target = down;
type = TopGhost;
},
{
horizontal = 1;
place = "{823, 44}";
}
);
layerId = UUID0;
paths = (
{
closed = 1;
nodes = (
"633 0 LINE",
"689 0 LINE",
"394 681 LINE",
"431 695 OFFCURVE",
"457 729 OFFCURVE",
"457 771 CURVE SMOOTH",
"457 825 OFFCURVE",
"413 867 OFFCURVE",
"359 867 CURVE SMOOTH",
"305 867 OFFCURVE",
"261 825 OFFCURVE",
"261 771 CURVE SMOOTH",
"261 729 OFFCURVE",
"287 695 OFFCURVE",
"324 681 CURVE",
"29 0 LINE",
"85 0 LINE",
"167 191 LINE",
"551 191 LINE"
);
},
{
closed = 1;
nodes = (
"388 823 OFFCURVE",
"409 800 OFFCURVE",
"409 771 CURVE SMOOTH",
"409 742 OFFCURVE",
"388 719 OFFCURVE",
"359 719 CURVE SMOOTH",
"330 719 OFFCURVE",
"309 742 OFFCURVE",
"309 771 CURVE SMOOTH",
"309 800 OFFCURVE",
"330 823 OFFCURVE",
"359 823 CURVE SMOOTH"
);
},
{
closed = 1;
nodes = (
"188 239 LINE",
"359 639 LINE",
"530 239 LINE"
);
}
);
width = 718;
}
);
leftKerningGroup = A;
rightKerningGroup = A;
unicode = 00C5;
},
{
glyphname = Aringacute;
lastChange = "2017-11-14 17:14:40 +0000";
layers = (
{
hints = (
{
place = "{261, 48}";
},
{
place = "{409, 48}";
},
{
horizontal = 1;
place = "{0, 21}";
target = up;
type = BottomGhost;
},
{
horizontal = 1;
place = "{191, 48}";
},
{
horizontal = 1;
place = "{681, 38}";
},
{
horizontal = 1;
place = "{719, -20}";
target = down;
type = TopGhost;
},
{
horizontal = 1;
place = "{823, 44}";
}
);
layerId = UUID0;
paths = (
{
closed = 1;
nodes = (
"633 0 LINE",
"689 0 LINE",
"394 681 LINE",
"431 695 OFFCURVE",
"457 729 OFFCURVE",
"457 771 CURVE SMOOTH",
"457 791 OFFCURVE",
"451 810 OFFCURVE",
"440 826 CURVE",
"572 939 LINE",
"499 939 LINE",
"414 851 LINE",
"398 861 OFFCURVE",
"379 867 OFFCURVE",
"359 867 CURVE SMOOTH",
"305 867 OFFCURVE",
"261 825 OFFCURVE",
"261 771 CURVE SMOOTH",
"261 729 OFFCURVE",
"287 695 OFFCURVE",
"324 681 CURVE",
"29 0 LINE",
"85 0 LINE",
"167 191 LINE",
"551 191 LINE"
);
},
{
closed = 1;
nodes = (
"388 823 OFFCURVE",
"409 800 OFFCURVE",
"409 771 CURVE SMOOTH",
"409 742 OFFCURVE",
"388 719 OFFCURVE",
"359 719 CURVE SMOOTH",
"330 719 OFFCURVE",
"309 742 OFFCURVE",
"309 771 CURVE SMOOTH",
"309 800 OFFCURVE",
"330 823 OFFCURVE",
"359 823 CURVE SMOOTH"
);
},
{
closed = 1;
nodes = (
"188 239 LINE",
"359 639 LINE",
"530 239 LINE"
);
}
);
width = 718;
}
);
leftKerningGroup = A;
rightKerningGroup = A;
unicode = 01FA;
},
{
glyphname = Atilde;
lastChange = "2017-11-14 17:14:40 +0000";
layers = (
{
anchors = (
{
name = mark0;
position = "{359, 0}";
},
{
name = mark1;
position = "{682, 10}";
},
{
name = mark2;
position = "{359, 865}";
},
{
name = mark3;
position = "{0, 0}";
},
{
name = mark4;
position = "{0, 0}";
}
);
hints = (
{
place = "{203, 37}";
},
{
place = "{478, 37}";
},
{
horizontal = 1;
place = "{0, 21}";
target = up;
type = BottomGhost;
},
{
horizontal = 1;
place = "{191, 48}";
},
{
horizontal = 1;
place = "{639, 66}";
},
{
horizontal = 1;
place = "{705, -20}";
target = down;
type = TopGhost;
},
{
horizontal = 1;
place = "{789, 46}";
},
{
horizontal = 1;
place = "{848, 46}";
}
);
layerId = UUID0;
paths = (
{
closed = 1;
nodes = (
"327 848 OFFCURVE",
"375 789 OFFCURVE",
"433 789 CURVE SMOOTH",
"484 789 OFFCURVE",
"515 829 OFFCURVE",
"515 891 CURVE",
"478 891 LINE",
"478 863 OFFCURVE",
"462 835 OFFCURVE",
"430 835 CURVE SMOOTH",
"391 835 OFFCURVE",
"343 894 OFFCURVE",
"285 894 CURVE SMOOTH",
"234 894 OFFCURVE",
"203 854 OFFCURVE",
"203 792 CURVE",
"240 792 LINE",
"240 820 OFFCURVE",
"256 848 OFFCURVE",
"288 848 CURVE SMOOTH"
);
},
{
closed = 1;
nodes = (
"633 0 LINE",
"689 0 LINE",
"384 705 LINE",
"334 705 LINE",
"29 0 LINE",
"85 0 LINE",
"167 191 LINE",
"551 191 LINE"
);
},
{
closed = 1;
nodes = (
"188 239 LINE",
"359 639 LINE",
"530 239 LINE"
);
}
);
width = 718;
}
);
leftKerningGroup = A;
rightKerningGroup = A;
unicode = 00C3;
},
{
glyphname = AE;
lastChange = "2017-11-14 17:14:40 +0000";
layers = (
{
anchors = (
{
name = mark0;
position = "{497, 0}";
},
{
name = mark1;
position = "{0, 0}";
},
{
name = mark2;
position = "{496, 705}";
},
{
name = mark3;
position = "{0, 0}";
},
{
name = mark4;
position = "{0, 0}";
}
);
hints = (
{
place = "{9, 925}";
},
{
horizontal = 1;
place = "{0, 49}";
},
{
horizontal = 1;
place = "{191, 48}";
},
{
horizontal = 1;
place = "{334, 48}";
},
{
horizontal = 1;
place = "{656, 49}";
}
);
layerId = UUID0;
paths = (
{
closed = 1;
nodes = (
"934 656 LINE",
"934 705 LINE",
"432 705 LINE",
"9 0 LINE",
"67 0 LINE",
"180 191 LINE",
"537 191 LINE",
"577 0 LINE",
"934 0 LINE",
"934 49 LINE",
"618 49 LINE",
"557 334 LINE",
"914 334 LINE",
"914 382 LINE",
"547 382 LINE",
"489 656 LINE"
);
},
{
closed = 1;
nodes = (
"209 239 LINE",
"443 635 LINE",
"527 239 LINE"
);
}
);
width = 988;
}
);
leftKerningGroup = A;
rightKerningGroup = AE;
unicode = 00C6;
},
{
glyphname = AEacute;
lastChange = "2017-11-14 17:14:40 +0000";
layers = (
{
anchors = (
{
name = mark0;
position = "{497, 0}";
},
{
name = mark1;
position = "{0, 0}";
},
{
name = mark2;
position = "{496, 865}";
},
{
name = mark3;
position = "{0, 0}";
},
{
name = mark4;
position = "{0, 0}";
}
);
hints = (
{
place = "{9, 925}";
},
{
horizontal = 1;
place = "{0, 49}";
},
{
horizontal = 1;
place = "{191, 48}";
},
{
horizontal = 1;
place = "{334, 48}";
},
{
horizontal = 1;
place = "{656, 49}";
},
{
horizontal = 1;
place = "{765, 150}";
}
);
layerId = UUID0;
paths = (
{
closed = 1;
nodes = (
"644 915 LINE",
"575 915 LINE",
"475 765 LINE",
"517 765 LINE"
);
},
{
closed = 1;
nodes = (
"934 656 LINE",
"934 705 LINE",
"432 705 LINE",
"9 0 LINE",
"67 0 LINE",
"180 191 LINE",
"537 191 LINE",
"577 0 LINE",
"934 0 LINE",
"934 49 LINE",
"618 49 LINE",
"557 334 LINE",
"914 334 LINE",
"914 382 LINE",
"547 382 LINE",
"489 656 LINE"
);
},
{
closed = 1;
nodes = (
"209 239 LINE",
"443 635 LINE",
"527 239 LINE"
);
}
);
width = 988;
}
);
leftKerningGroup = A;
rightKerningGroup = AE;
unicode = 01FC;
},
{
glyphname = B;
lastChange = "2017-11-14 17:14:40 +0000";
layers = (
{
anchors = (
{
name = mark0;
position = "{338, 0}";
},
{
name = mark1;
position = "{0, 0}";
},
{
name = mark2;
position = "{337, 705}";
},
{
name = mark3;
position = "{0, 0}";
},
{
name = mark4;
position = "{0, 0}";
}
);
hints = (
{
place = "{93, 54}";
},
{
place = "{530, 55}";
},
{
place = "{546, 55}";
},
{
horizontal = 1;
place = "{0, 48}";
},
{
horizontal = 1;
place = "{334, 48}";
},
{
horizontal = 1;
place = "{657, 48}";
}
);
layerId = UUID0;
paths = (
{
closed = 1;
nodes = (
"543 387 OFFCURVE",
"585 443 OFFCURVE",
"585 520 CURVE SMOOTH",
"585 640 OFFCURVE",
"503 705 OFFCURVE",
"360 705 CURVE SMOOTH",
"93 705 LINE",
"93 0 LINE",
"371 0 LINE SMOOTH",
"518 0 OFFCURVE",
"601 66 OFFCURVE",
"601 191 CURVE SMOOTH",
"601 280 OFFCURVE",
"554 341 OFFCURVE",
"473 361 CURVE"
);
},
{
closed = 1;
nodes = (
"147 657 LINE",
"353 657 LINE SMOOTH",
"472 657 OFFCURVE",
"530 612 OFFCURVE",
"530 523 CURVE SMOOTH",
"530 432 OFFCURVE",
"469 382 OFFCURVE",
"353 382 CURVE SMOOTH",
"147 382 LINE"
);
},
{
closed = 1;
nodes = (
"147 48 LINE",
"147 334 LINE",
"368 334 LINE SMOOTH",
"487 334 OFFCURVE",
"546 284 OFFCURVE",
"546 188 CURVE SMOOTH",
"546 93 OFFCURVE",
"489 48 OFFCURVE",
"368 48 CURVE"
);
}
);
width = 668;
}
);
unicode = 0042;
},
{
glyphname = C;
lastChange = "2017-11-14 17:14:40 +0000";
layers = (
{
anchors = (
{
name = mark0;
position = "{382, 0}";
},
{
name = mark1;
position = "{0, 0}";
},
{
name = mark2;
position = "{383, 705}";
},
{
name = mark3;
position = "{0, 0}";
},
{
name = mark4;
position = "{0, 0}";
}
);
hints = (
{
place = "{65, 57}";
},
{
horizontal = 1;
place = "{-8, 50}";
},
{
horizontal = 1;
place = "{663, 50}";
}
);
layerId = UUID0;
paths = (
{
closed = 1;
nodes = (
"480 -8 OFFCURVE",
"562 23 OFFCURVE",
"623 85 CURVE",
"599 129 LINE",
"530 66 OFFCURVE",
"466 42 OFFCURVE",
"383 42 CURVE SMOOTH",
"217 42 OFFCURVE",
"122 155 OFFCURVE",
"122 353 CURVE SMOOTH",
"122 550 OFFCURVE",
"218 663 OFFCURVE",
"383 663 CURVE SMOOTH",
"466 663 OFFCURVE",
"530 639 OFFCURVE",
"599 576 CURVE",
"623 620 LINE",
"562 682 OFFCURVE",
"480 713 OFFCURVE",
"383 713 CURVE SMOOTH",
"187 713 OFFCURVE",
"65 578 OFFCURVE",
"65 353 CURVE SMOOTH",
"65 128 OFFCURVE",
"187 -8 OFFCURVE",
"383 -8 CURVE SMOOTH"
);
}
);
width = 677;
}
);
leftKerningGroup = C;
rightKerningGroup = C;
unicode = 0043;
},
{
glyphname = Cacute;
lastChange = "2017-11-14 17:14:40 +0000";
layers = (
{
anchors = (
{
name = mark0;
position = "{382, 0}";
},
{
name = mark1;
position = "{0, 0}";
},
{
name = mark2;
position = "{383, 865}";
},
{
name = mark3;
position = "{0, 0}";
},
{
name = mark4;
position = "{0, 0}";
}
);
hints = (
{
place = "{65, 57}";
},
{
horizontal = 1;
place = "{-8, 50}";
},
{
horizontal = 1;
place = "{663, 50}";
},
{
horizontal = 1;
place = "{765, 150}";
}
);
layerId = UUID0;
paths = (
{
closed = 1;
nodes = (
"404 765 LINE",
"531 915 LINE",
"462 915 LINE",
"362 765 LINE"
);
},
{
closed = 1;
nodes = (
"480 -8 OFFCURVE",
"562 23 OFFCURVE",
"623 85 CURVE",
"599 129 LINE",
"530 66 OFFCURVE",
"466 42 OFFCURVE",
"383 42 CURVE SMOOTH",
"217 42 OFFCURVE",
"122 155 OFFCURVE",
"122 353 CURVE SMOOTH",
"122 550 OFFCURVE",
"218 663 OFFCURVE",
"383 663 CURVE SMOOTH",
"466 663 OFFCURVE",
"530 639 OFFCURVE",
"599 576 CURVE",
"623 620 LINE",
"562 682 OFFCURVE",
"480 713 OFFCURVE",
"383 713 CURVE SMOOTH",
"187 713 OFFCURVE",
"65 578 OFFCURVE",
"65 353 CURVE SMOOTH",
"65 128 OFFCURVE",
"187 -8 OFFCURVE",
"383 -8 CURVE SMOOTH"
);
}
);
width = 677;
}
);
leftKerningGroup = C;
rightKerningGroup = C;
unicode = 0106;
},
{
glyphname = Ccaron;
lastChange = "2017-11-14 17:14:40 +0000";
layers = (
{
anchors = (
{
name = mark0;
position = "{382, 0}";
},
{
name = mark1;
position = "{0, 0}";
},
{
name = mark2;
position = "{383, 865}";
},
{
name = mark3;
position = "{0, 0}";
},
{
name = mark4;
position = "{0, 0}";
}
);
hints = (
{
place = "{65, 57}";
},
{
horizontal = 1;
place = "{-8, 50}";
},
{
horizontal = 1;
place = "{663, 50}";
},
{
horizontal = 1;
place = "{765, 150}";
}
);
layerId = UUID0;
paths = (
{
closed = 1;
nodes = (
"460 915 LINE",
"383 805 LINE",
"306 915 LINE",
"248 915 LINE",
"362 765 LINE",
"404 765 LINE",
"518 915 LINE"
);
},
{
closed = 1;
nodes = (
"480 -8 OFFCURVE",
"562 23 OFFCURVE",
"623 85 CURVE",
"599 129 LINE",
"530 66 OFFCURVE",
"466 42 OFFCURVE",
"383 42 CURVE SMOOTH",
"217 42 OFFCURVE",
"122 155 OFFCURVE",
"122 353 CURVE SMOOTH",
"122 550 OFFCURVE",
"218 663 OFFCURVE",
"383 663 CURVE SMOOTH",
"466 663 OFFCURVE",
"530 639 OFFCURVE",
"599 576 CURVE",
"623 620 LINE",
"562 682 OFFCURVE",
"480 713 OFFCURVE",
"383 713 CURVE SMOOTH",
"187 713 OFFCURVE",
"65 578 OFFCURVE",
"65 353 CURVE SMOOTH",
"65 128 OFFCURVE",
"187 -8 OFFCURVE",
"383 -8 CURVE SMOOTH"
);
}
);
width = 677;
}
);
leftKerningGroup = C;
rightKerningGroup = C;
unicode = 010C;
},
{
glyphname = Ccedilla;
lastChange = "2017-11-14 17:14:40 +0000";
layers = (
{
anchors = (
{
name = mark0;
position = "{382, 0}";
},
{
name = mark1;
position = "{0, 0}";
},
{
name = mark2;
position = "{383, 705}";
},
{
name = mark3;
position = "{0, 0}";
},
{
name = mark4;
position = "{0, 0}";
}
);
hints = (
{
place = "{65, 57}";
},
{
place = "{345, 48}";
},
{
place = "{445, 48}";
},
{
horizontal = 1;
place = "{-191, 42}";
},
{
horizontal = 1;
place = "{-191, 21}";
target = up;
type = BottomGhost;
},
{
horizontal = 1;
place = "{-80, 39}";
},
{
horizontal = 1;
place = "{-8, 50}";
},
{
horizontal = 1;
place = "{-7, 49}";
},
{
horizontal = 1;
place = "{663, 50}";
}
);
layerId = UUID0;
paths = (
{
closed = 1;
nodes = (
"217 42 OFFCURVE",
"122 155 OFFCURVE",
"122 353 CURVE SMOOTH",
"122 550 OFFCURVE",
"218 663 OFFCURVE",
"383 663 CURVE SMOOTH",
"466 663 OFFCURVE",
"530 639 OFFCURVE",
"599 576 CURVE",
"623 620 LINE",
"562 682 OFFCURVE",
"480 713 OFFCURVE",
"383 713 CURVE SMOOTH",
"187 713 OFFCURVE",
"65 578 OFFCURVE",
"65 353 CURVE SMOOTH",
"65 141 OFFCURVE",
"173 8 OFFCURVE",
"349 -7 CURVE",
"342 -76 LINE",
"361 -91 LINE",
"376 -85 OFFCURVE",
"392 -80 OFFCURVE",
"410 -80 CURVE SMOOTH",
"434 -80 OFFCURVE",
"446 -92 OFFCURVE",
"446 -110 CURVE SMOOTH",
"446 -133 OFFCURVE",
"427 -149 OFFCURVE",
"387 -149 CURVE SMOOTH",
"363 -149 OFFCURVE",
"339 -146 OFFCURVE",
"313 -135 CURVE",
"299 -172 LINE",
"324 -186 OFFCURVE",
"360 -191 OFFCURVE",
"385 -191 CURVE SMOOTH",
"454 -191 OFFCURVE",
"494 -156 OFFCURVE",
"494 -110 CURVE SMOOTH",
"494 -61 OFFCURVE",
"455 -41 OFFCURVE",
"420 -41 CURVE SMOOTH",
"410 -41 OFFCURVE",
"401 -42 OFFCURVE",
"392 -44 CURVE",
"396 -8 LINE",
"487 -5 OFFCURVE",
"565 26 OFFCURVE",
"623 85 CURVE",
"599 129 LINE",
"530 66 OFFCURVE",
"466 42 OFFCURVE",
"383 42 CURVE SMOOTH"
);
}
);
width = 677;
}
);
leftKerningGroup = C;
rightKerningGroup = C;
unicode = 00C7;
},
{
glyphname = Ccircumflex;
lastChange = "2017-11-14 17:14:40 +0000";
layers = (
{
anchors = (
{
name = mark0;
position = "{382, 0}";
},
{
name = mark1;
position = "{0, 0}";
},
{
name = mark2;
position = "{383, 865}";
},
{
name = mark3;
position = "{0, 0}";
},
{
name = mark4;
position = "{0, 0}";
}
);
hints = (
{
place = "{65, 57}";
},
{
horizontal = 1;
place = "{-8, 50}";
},
{
horizontal = 1;
place = "{663, 50}";
},
{
horizontal = 1;
place = "{765, 150}";
}
);
layerId = UUID0;
paths = (
{
closed = 1;
nodes = (
"306 765 LINE",
"383 875 LINE",
"460 765 LINE",
"518 765 LINE",
"404 915 LINE",
"362 915 LINE",
"248 765 LINE"
);
},
{
closed = 1;
nodes = (
"480 -8 OFFCURVE",
"562 23 OFFCURVE",
"623 85 CURVE",
"599 129 LINE",
"530 66 OFFCURVE",
"466 42 OFFCURVE",
"383 42 CURVE SMOOTH",
"217 42 OFFCURVE",
"122 155 OFFCURVE",
"122 353 CURVE SMOOTH",
"122 550 OFFCURVE",
"218 663 OFFCURVE",
"383 663 CURVE SMOOTH",
"466 663 OFFCURVE",
"530 639 OFFCURVE",
"599 576 CURVE",
"623 620 LINE",
"562 682 OFFCURVE",
"480 713 OFFCURVE",
"383 713 CURVE SMOOTH",
"187 713 OFFCURVE",
"65 578 OFFCURVE",
"65 353 CURVE SMOOTH",
"65 128 OFFCURVE",
"187 -8 OFFCURVE",
"383 -8 CURVE SMOOTH"
);
}
);
width = 677;
}
);
leftKerningGroup = C;
rightKerningGroup = C;
unicode = 0108;
},
{
glyphname = Cdotaccent;
lastChange = "2017-11-14 17:14:40 +0000";
layers = (
{
anchors = (
{
name = mark0;
position = "{382, 0}";
},
{
name = mark1;
position = "{0, 0}";
},
{
name = mark2;
position = "{383, 865}";
},
{
name = mark3;
position = "{0, 0}";
},
{
name = mark4;
position = "{0, 0}";
}
);
hints = (
{
place = "{65, 57}";
},
{
place = "{346, 74}";
},
{
horizontal = 1;
place = "{-8, 50}";
},
{
horizontal = 1;
place = "{663, 50}";
},
{
horizontal = 1;
place = "{805, 72}";
}
);
layerId = UUID0;
paths = (
{
closed = 1;
nodes = (
"346 877 LINE",
"346 805 LINE",
"420 805 LINE",
"420 877 LINE"
);
},
{
closed = 1;
nodes = (
"480 -8 OFFCURVE",
"562 23 OFFCURVE",
"623 85 CURVE",
"599 129 LINE",
"530 66 OFFCURVE",
"466 42 OFFCURVE",
"383 42 CURVE SMOOTH",
"217 42 OFFCURVE",
"122 155 OFFCURVE",
"122 353 CURVE SMOOTH",
"122 550 OFFCURVE",
"218 663 OFFCURVE",
"383 663 CURVE SMOOTH",
"466 663 OFFCURVE",
"530 639 OFFCURVE",
"599 576 CURVE",
"623 620 LINE",
"562 682 OFFCURVE",
"480 713 OFFCURVE",
"383 713 CURVE SMOOTH",
"187 713 OFFCURVE",
"65 578 OFFCURVE",
"65 353 CURVE SMOOTH",
"65 128 OFFCURVE",
"187 -8 OFFCURVE",
"383 -8 CURVE SMOOTH"
);
}
);
width = 677;
}
);
leftKerningGroup = C;
rightKerningGroup = C;
unicode = 010A;
},
{
glyphname = D;
lastChange = "2017-11-14 17:14:40 +0000";
layers = (
{
anchors = (
{
name = mark0;
position = "{365, 0}";
},
{
name = mark1;
position = "{0, 0}";
},
{
name = mark2;
position = "{364, 705}";
},
{
name = mark3;
position = "{365, 353}";
},
{
name = mark4;
position = "{0, 0}";
}
);
hints = (
{
place = "{93, 54}";
},
{
place = "{607, 57}";
},
{
horizontal = 1;
place = "{0, 48}";
},
{
horizontal = 1;
place = "{657, 48}";
}
);
layerId = UUID0;
paths = (
{
closed = 1;
nodes = (
"93 0 LINE",
"316 0 LINE SMOOTH",
"538 0 OFFCURVE",
"664 127 OFFCURVE",
"664 353 CURVE SMOOTH",
"664 579 OFFCURVE",
"539 705 OFFCURVE",
"316 705 CURVE SMOOTH",
"93 705 LINE"
);
},
{
closed = 1;
nodes = (
"147 48 LINE",
"147 657 LINE",
"314 657 LINE SMOOTH",
"509 657 OFFCURVE",
"607 555 OFFCURVE",
"607 353 CURVE SMOOTH",
"607 151 OFFCURVE",
"508 48 OFFCURVE",
"314 48 CURVE SMOOTH"
);
}
);
width = 729;
}
);
rightKerningGroup = D;
unicode = 0044;
},
{
glyphname = Eth;
lastChange = "2017-11-14 17:14:40 +0000";
layers = (
{
hints = (
{
place = "{100, 54}";
},
{
place = "{614, 57}";
},
{
horizontal = 1;
place = "{0, 48}";
},
{
horizontal = 1;
place = "{335, 46}";
},
{
horizontal = 1;
place = "{657, 48}";
}
);
layerId = UUID0;
paths = (
{
closed = 1;
nodes = (
"100 705 LINE",
"100 381 LINE",
"5 381 LINE",
"5 335 LINE",
"100 335 LINE",
"100 0 LINE",
"323 0 LINE SMOOTH",
"545 0 OFFCURVE",
"671 127 OFFCURVE",
"671 353 CURVE SMOOTH",
"671 579 OFFCURVE",
"546 705 OFFCURVE",
"323 705 CURVE"
);
},
{
closed = 1;
nodes = (
"154 48 LINE",
"154 335 LINE",
"349 335 LINE",
"349 381 LINE",
"154 381 LINE",
"154 657 LINE",
"321 657 LINE SMOOTH",
"516 657 OFFCURVE",
"614 555 OFFCURVE",
"614 353 CURVE SMOOTH",
"614 151 OFFCURVE",
"515 48 OFFCURVE",
"321 48 CURVE"
);
}
);
width = 736;
}
);
rightKerningGroup = D;
unicode = 00D0;
},
{
glyphname = Dcaron;
lastChange = "2017-11-14 17:14:40 +0000";
layers = (
{
anchors = (
{
name = mark0;
position = "{365, 0}";
},
{
name = mark1;
position = "{0, 0}";
},
{
name = mark2;
position = "{364, 865}";
},
{
name = mark3;
position = "{365, 353}";
},
{
name = mark4;
position = "{0, 0}";
}
);
hints = (
{
place = "{93, 54}";
},
{
place = "{607, 57}";
},
{
horizontal = 1;
place = "{0, 48}";
},
{
horizontal = 1;
place = "{657, 48}";
},
{
horizontal = 1;
place = "{765, 150}";
}
);
layerId = UUID0;
paths = (
{
closed = 1;
nodes = (
"441 915 LINE",
"364 805 LINE",
"287 915 LINE",
"229 915 LINE",
"343 765 LINE",
"385 765 LINE",
"499 915 LINE"
);
},
{
closed = 1;
nodes = (
"93 0 LINE",
"316 0 LINE SMOOTH",
"538 0 OFFCURVE",
"664 127 OFFCURVE",
"664 353 CURVE SMOOTH",
"664 579 OFFCURVE",
"539 705 OFFCURVE",
"316 705 CURVE SMOOTH",
"93 705 LINE"
);
},
{
closed = 1;
nodes = (
"147 48 LINE",
"147 657 LINE",
"314 657 LINE SMOOTH",
"509 657 OFFCURVE",
"607 555 OFFCURVE",
"607 353 CURVE SMOOTH",
"607 151 OFFCURVE",
"508 48 OFFCURVE",
"314 48 CURVE SMOOTH"
);
}
);
width = 729;
}
);
rightKerningGroup = D;
unicode = 010E;
},
{
glyphname = Dcroat;
lastChange = "2017-11-14 17:14:40 +0000";
layers = (
{
hints = (
{
place = "{100, 54}";
},
{
place = "{614, 57}";
},
{
horizontal = 1;
place = "{0, 48}";
},
{
horizontal = 1;
place = "{335, 46}";
},
{
horizontal = 1;
place = "{657, 48}";
}
);
layerId = UUID0;
paths = (
{
closed = 1;
nodes = (
"100 705 LINE",
"100 381 LINE",
"5 381 LINE",
"5 335 LINE",
"100 335 LINE",
"100 0 LINE",
"323 0 LINE SMOOTH",
"545 0 OFFCURVE",
"671 127 OFFCURVE",
"671 353 CURVE SMOOTH",
"671 579 OFFCURVE",
"546 705 OFFCURVE",
"323 705 CURVE"
);
},
{
closed = 1;
nodes = (
"154 48 LINE",
"154 335 LINE",
"349 335 LINE",
"349 381 LINE",
"154 381 LINE",
"154 657 LINE",
"321 657 LINE SMOOTH",
"516 657 OFFCURVE",
"614 555 OFFCURVE",
"614 353 CURVE SMOOTH",
"614 151 OFFCURVE",
"515 48 OFFCURVE",
"321 48 CURVE"
);
}
);
width = 736;
}
);
rightKerningGroup = D;
unicode = 0110;
},
{
glyphname = E;
lastChange = "2017-11-14 17:14:40 +0000";
layers = (
{
anchors = (
{
name = mark0;
position = "{321, 0}";
},
{
name = mark1;
position = "{505, 10}";
},
{
name = mark2;
position = "{321, 705}";
},
{
name = mark3;
position = "{0, 0}";
},
{
name = mark4;
position = "{0, 0}";
}
);
hints = (
{
place = "{93, 54}";
},
{
horizontal = 1;
place = "{0, 48}";
},
{
horizontal = 1;
place = "{334, 48}";
},
{
horizontal = 1;
place = "{657, 48}";
}
);
layerId = UUID0;
paths = (
{
closed = 1;
nodes = (
"93 0 LINE",
"524 0 LINE",
"524 48 LINE",
"147 48 LINE",
"147 334 LINE",
"504 334 LINE",
"504 382 LINE",
"147 382 LINE",
"147 657 LINE",
"524 657 LINE",
"524 705 LINE",
"93 705 LINE"
);
}
);
width = 578;
}
);
rightKerningGroup = AE;
unicode = 0045;
},
{
glyphname = Eacute;
lastChange = "2017-11-14 17:14:40 +0000";
layers = (
{
anchors = (
{
name = mark0;
position = "{321, 0}";
},
{
name = mark1;
position = "{505, 10}";
},
{
name = mark2;
position = "{321, 865}";
},
{
name = mark3;
position = "{0, 0}";
},
{
name = mark4;
position = "{0, 0}";
}
);
hints = (
{
place = "{93, 54}";
},
{
horizontal = 1;
place = "{0, 48}";
},
{
horizontal = 1;
place = "{334, 48}";
},
{
horizontal = 1;
place = "{657, 48}";
},
{
horizontal = 1;
place = "{765, 150}";
}
);
layerId = UUID0;
paths = (
{
closed = 1;
nodes = (
"342 765 LINE",
"469 915 LINE",
"400 915 LINE",
"300 765 LINE"
);
},
{
closed = 1;
nodes = (
"93 0 LINE",
"524 0 LINE",
"524 48 LINE",
"147 48 LINE",
"147 334 LINE",
"504 334 LINE",
"504 382 LINE",
"147 382 LINE",
"147 657 LINE",
"524 657 LINE",
"524 705 LINE",
"93 705 LINE"
);
}
);
width = 578;
}
);
rightKerningGroup = AE;
unicode = 00C9;
},
{
glyphname = Ebreve;
lastChange = "2017-11-14 17:14:40 +0000";
layers = (
{
anchors = (
{
name = mark0;
position = "{321, 0}";
},
{
name = mark1;
position = "{505, 10}";
},
{
name = mark2;
position = "{321, 865}";
},
{
name = mark3;
position = "{0, 0}";
},
{
name = mark4;
position = "{0, 0}";
}
);
hints = (
{
place = "{93, 54}";
},
{
horizontal = 1;
place = "{0, 48}";
},
{
horizontal = 1;
place = "{334, 48}";
},
{
horizontal = 1;
place = "{657, 48}";
},
{
horizontal = 1;
place = "{778, 46}";
}
);
layerId = UUID0;
paths = (
{
closed = 1;
nodes = (
"385 778 OFFCURVE",
"445 804 OFFCURVE",
"478 883 CURVE",
"434 902 LINE",
"400 839 OFFCURVE",
"366 824 OFFCURVE",
"321 824 CURVE SMOOTH",
"276 824 OFFCURVE",
"242 839 OFFCURVE",
"208 902 CURVE",
"164 883 LINE",
"196 804 OFFCURVE",
"257 778 OFFCURVE",
"321 778 CURVE SMOOTH"
);
},
{
closed = 1;
nodes = (
"93 0 LINE",
"524 0 LINE",
"524 48 LINE",
"147 48 LINE",
"147 334 LINE",
"504 334 LINE",
"504 382 LINE",
"147 382 LINE",
"147 657 LINE",
"524 657 LINE",
"524 705 LINE",
"93 705 LINE"
);
}
);
width = 578;
}
);
rightKerningGroup = AE;
unicode = 0114;
},
{
glyphname = Ecaron;
lastChange = "2017-11-14 17:14:40 +0000";
layers = (
{
anchors = (
{
name = mark0;
position = "{321, 0}";
},
{
name = mark1;
position = "{505, 10}";
},
{
name = mark2;
position = "{321, 865}";
},
{
name = mark3;
position = "{0, 0}";
},
{
name = mark4;
position = "{0, 0}";
}
);
hints = (
{
place = "{93, 54}";
},
{
horizontal = 1;
place = "{0, 48}";
},
{
horizontal = 1;
place = "{334, 48}";
},
{
horizontal = 1;
place = "{657, 48}";
},
{
horizontal = 1;
place = "{765, 150}";
}
);
layerId = UUID0;
paths = (
{
closed = 1;
nodes = (
"398 915 LINE",
"321 805 LINE",
"244 915 LINE",
"186 915 LINE",
"300 765 LINE",
"342 765 LINE",
"456 915 LINE"
);
},
{
closed = 1;
nodes = (
"93 0 LINE",
"524 0 LINE",
"524 48 LINE",
"147 48 LINE",
"147 334 LINE",
"504 334 LINE",
"504 382 LINE",
"147 382 LINE",
"147 657 LINE",
"524 657 LINE",
"524 705 LINE",
"93 705 LINE"
);
}
);
width = 578;
}
);
rightKerningGroup = AE;
unicode = 011A;
},
{
glyphname = Ecircumflex;
lastChange = "2017-11-14 17:14:40 +0000";
layers = (
{
anchors = (
{
name = mark0;
position = "{321, 0}";
},
{
name = mark1;
position = "{505, 10}";
},
{
name = mark2;
position = "{321, 865}";
},
{
name = mark3;
position = "{0, 0}";
},
{
name = mark4;
position = "{0, 0}";
}
);
hints = (
{
place = "{93, 54}";
},
{
horizontal = 1;
place = "{0, 48}";
},
{
horizontal = 1;
place = "{334, 48}";
},
{
horizontal = 1;
place = "{657, 48}";
},
{
horizontal = 1;
place = "{765, 150}";
}
);
layerId = UUID0;
paths = (
{
closed = 1;
nodes = (
"244 765 LINE",
"321 875 LINE",
"398 765 LINE",
"456 765 LINE",
"342 915 LINE",
"300 915 LINE",
"186 765 LINE"
);
},
{
closed = 1;
nodes = (
"93 0 LINE",
"524 0 LINE",
"524 48 LINE",
"147 48 LINE",
"147 334 LINE",
"504 334 LINE",
"504 382 LINE",
"147 382 LINE",
"147 657 LINE",
"524 657 LINE",
"524 705 LINE",
"93 705 LINE"
);
}
);
width = 578;
}
);
rightKerningGroup = AE;
unicode = 00CA;
},
{
glyphname = Edieresis;
lastChange = "2017-11-14 17:14:40 +0000";
layers = (
{
anchors = (
{
name = mark0;
position = "{321, 0}";
},
{
name = mark1;
position = "{505, 10}";
},
{
name = mark2;
position = "{321, 865}";
},
{
name = mark3;
position = "{0, 0}";
},
{
name = mark4;
position = "{0, 0}";
}
);
hints = (
{
place = "{93, 54}";
},
{
place = "{204, 70}";
},
{
place = "{368, 70}";
},
{
horizontal = 1;
place = "{0, 48}";
},
{
horizontal = 1;
place = "{334, 48}";
},
{
horizontal = 1;
place = "{657, 48}";
},
{
horizontal = 1;
place = "{807, 68}";
}
);
layerId = UUID0;
paths = (
{
closed = 1;
nodes = (
"204 875 LINE",
"204 807 LINE",
"274 807 LINE",
"274 875 LINE"
);
},
{
closed = 1;
nodes = (
"368 875 LINE",
"368 807 LINE",
"438 807 LINE",
"438 875 LINE"
);
},
{
closed = 1;
nodes = (
"93 0 LINE",
"524 0 LINE",
"524 48 LINE",
"147 48 LINE",
"147 334 LINE",
"504 334 LINE",
"504 382 LINE",
"147 382 LINE",
"147 657 LINE",
"524 657 LINE",
"524 705 LINE",
"93 705 LINE"
);
}
);
width = 578;
}
);
rightKerningGroup = AE;
unicode = 00CB;
},
{
glyphname = Edotaccent;
lastChange = "2017-11-14 17:14:40 +0000";
layers = (
{
anchors = (
{
name = mark0;
position = "{321, 0}";
},
{
name = mark1;
position = "{505, 10}";
},
{
name = mark2;
position = "{321, 865}";
},
{
name = mark3;
position = "{0, 0}";
},
{
name = mark4;
position = "{0, 0}";
}
);
hints = (
{
place = "{93, 54}";
},
{
place = "{284, 74}";
},
{
horizontal = 1;
place = "{0, 48}";
},
{
horizontal = 1;
place = "{334, 48}";
},
{
horizontal = 1;
place = "{657, 48}";
},
{
horizontal = 1;
place = "{805, 72}";
}
);
layerId = UUID0;
paths = (
{
closed = 1;
nodes = (
"284 877 LINE",
"284 805 LINE",
"358 805 LINE",
"358 877 LINE"
);
},
{
closed = 1;
nodes = (
"93 0 LINE",
"524 0 LINE",
"524 48 LINE",
"147 48 LINE",
"147 334 LINE",
"504 334 LINE",
"504 382 LINE",
"147 382 LINE",
"147 657 LINE",
"524 657 LINE",
"524 705 LINE",
"93 705 LINE"
);
}
);
width = 578;
}
);
rightKerningGroup = AE;
unicode = 0116;
},
{
glyphname = Egrave;
lastChange = "2017-11-14 17:14:40 +0000";
layers = (
{
anchors = (
{
name = mark0;
position = "{321, 0}";
},
{
name = mark1;
position = "{505, 10}";
},
{
name = mark2;
position = "{321, 865}";
},
{
name = mark3;
position = "{0, 0}";
},
{
name = mark4;
position = "{0, 0}";
}
);
hints = (
{
place = "{93, 54}";
},
{
horizontal = 1;
place = "{0, 48}";
},
{
horizontal = 1;
place = "{334, 48}";
},
{
horizontal = 1;
place = "{657, 48}";
},
{
horizontal = 1;
place = "{765, 150}";
}
);
layerId = UUID0;
paths = (
{
closed = 1;
nodes = (
"300 765 LINE",
"342 765 LINE",
"242 915 LINE",
"173 915 LINE"
);
},
{
closed = 1;
nodes = (
"93 0 LINE",
"524 0 LINE",
"524 48 LINE",
"147 48 LINE",
"147 334 LINE",
"504 334 LINE",
"504 382 LINE",
"147 382 LINE",
"147 657 LINE",
"524 657 LINE",
"524 705 LINE",
"93 705 LINE"
);
}
);
width = 578;
}
);
rightKerningGroup = AE;
unicode = 00C8;
},
{
glyphname = Emacron;
lastChange = "2017-11-14 17:14:40 +0000";
layers = (
{
anchors = (
{
name = mark0;
position = "{321, 0}";
},
{
name = mark1;
position = "{505, 10}";
},
{
name = mark2;
position = "{321, 865}";
},
{
name = mark3;
position = "{0, 0}";
},
{
name = mark4;
position = "{0, 0}";
}
);
hints = (
{
place = "{93, 54}";
},
{
horizontal = 1;
place = "{0, 48}";
},
{
horizontal = 1;
place = "{334, 48}";
},
{
horizontal = 1;
place = "{657, 48}";
},
{
horizontal = 1;
place = "{817, 48}";
}
);
layerId = UUID0;
paths = (
{
closed = 1;
nodes = (
"174 817 LINE",
"468 817 LINE",
"468 865 LINE",
"174 865 LINE"
);
},
{
closed = 1;
nodes = (
"93 0 LINE",
"524 0 LINE",
"524 48 LINE",
"147 48 LINE",
"147 334 LINE",
"504 334 LINE",
"504 382 LINE",
"147 382 LINE",
"147 657 LINE",
"524 657 LINE",
"524 705 LINE",
"93 705 LINE"
);
}
);
width = 578;
}
);
rightKerningGroup = AE;
unicode = 0112;
},
{
glyphname = Eogonek;
lastChange = "2017-11-14 17:14:40 +0000";
layers = (
{
anchors = (
{
name = mark0;
position = "{0, 0}";
},
{
name = mark1;
position = "{0, 0}";
},
{
name = mark2;
position = "{321, 705}";
},
{
name = mark3;
position = "{0, 0}";
},
{
name = mark4;
position = "{0, 0}";
}
);
hints = (
{
place = "{93, 54}";
},
{
place = "{363, 50}";
},
{
horizontal = 1;
place = "{-191, 43}";
},
{
horizontal = 1;
place = "{0, 48}";
},
{
horizontal = 1;
place = "{334, 48}";
},
{
horizontal = 1;
place = "{657, 48}";
}
);
layerId = UUID0;
paths = (
{
closed = 1;
nodes = (
"540 -130 LINE",
"519 -142 OFFCURVE",
"497 -148 OFFCURVE",
"481 -148 CURVE SMOOTH",
"441 -148 OFFCURVE",
"413 -125 OFFCURVE",
"413 -82 CURVE SMOOTH",
"413 -36 OFFCURVE",
"445 0 OFFCURVE",
"511 0 CURVE SMOOTH",
"524 0 LINE",
"524 48 LINE",
"147 48 LINE",
"147 334 LINE",
"504 334 LINE",
"504 382 LINE",
"147 382 LINE",
"147 657 LINE",
"524 657 LINE",
"524 705 LINE",
"93 705 LINE",
"93 0 LINE",
"404 0 LINE",
"377 -23 OFFCURVE",
"363 -53 OFFCURVE",
"363 -88 CURVE SMOOTH",
"363 -148 OFFCURVE",
"408 -191 OFFCURVE",
"476 -191 CURVE SMOOTH",
"509 -191 OFFCURVE",
"537 -181 OFFCURVE",
"556 -168 CURVE"
);
}
);
width = 578;
}
);
rightKerningGroup = AE;
unicode = 0118;
},
{
glyphname = F;
lastChange = "2017-11-14 17:14:40 +0000";
layers = (
{
anchors = (
{
name = mark0;
position = "{306, 0}";
},
{
name = mark1;
position = "{0, 0}";
},
{
name = mark2;
position = "{285, 705}";
},
{
name = mark3;
position = "{0, 0}";
},
{
name = mark4;
position = "{0, 0}";
}
);
hints = (
{
place = "{93, 54}";
},
{
horizontal = 1;
place = "{0, 21}";
target = up;
type = BottomGhost;
},
{
horizontal = 1;
place = "{334, 48}";
},
{
horizontal = 1;
place = "{657, 48}";
}
);
layerId = UUID0;
paths = (
{
closed = 1;
nodes = (
"93 0 LINE",
"147 0 LINE",
"147 334 LINE",
"494 334 LINE",
"494 382 LINE",
"147 382 LINE",
"147 657 LINE",
"514 657 LINE",
"514 705 LINE",
"93 705 LINE"
);
}
);
width = 551;
}
);
unicode = 0046;
},
{
glyphname = G;
lastChange = "2017-11-14 17:14:40 +0000";
layers = (
{
anchors = (
{
name = mark0;
position = "{393, 0}";
},
{
name = mark1;
position = "{0, 0}";
},
{
name = mark2;
position = "{386, 705}";
},
{
name = mark3;
position = "{0, 0}";
},
{
name = mark4;
position = "{0, 0}";
}
);
hints = (
{
place = "{65, 57}";
},
{
place = "{583, 50}";
},
{
horizontal = 1;
place = "{-8, 49}";
},
{
horizontal = 1;
place = "{311, 48}";
},
{
horizontal = 1;
place = "{663, 50}";
}
);
layerId = UUID0;
paths = (
{
closed = 1;
nodes = (
"394 359 LINE",
"394 311 LINE",
"583 311 LINE",
"583 74 LINE",
"531 54 OFFCURVE",
"463 41 OFFCURVE",
"393 41 CURVE SMOOTH",
"218 41 OFFCURVE",
"122 151 OFFCURVE",
"122 353 CURVE SMOOTH",
"122 551 OFFCURVE",
"218 663 OFFCURVE",
"386 663 CURVE SMOOTH",
"470 663 OFFCURVE",
"534 639 OFFCURVE",
"603 576 CURVE",
"627 620 LINE",
"566 682 OFFCURVE",
"484 713 OFFCURVE",
"388 713 CURVE SMOOTH",
"188 713 OFFCURVE",
"65 580 OFFCURVE",
"65 353 CURVE SMOOTH",
"65 126 OFFCURVE",
"187 -8 OFFCURVE",
"393 -8 CURVE SMOOTH",
"484 -8 OFFCURVE",
"582 12 OFFCURVE",
"633 40 CURVE",
"633 359 LINE"
);
}
);
width = 718;
}
);
leftKerningGroup = C;
rightKerningGroup = G;
unicode = 0047;
},
{
glyphname = Gbreve;
lastChange = "2017-11-14 17:14:40 +0000";
layers = (
{
anchors = (
{
name = mark0;
position = "{393, 0}";
},
{
name = mark1;
position = "{0, 0}";
},
{
name = mark2;
position = "{386, 865}";
},
{
name = mark3;
position = "{0, 0}";
},
{
name = mark4;
position = "{0, 0}";
}
);
hints = (
{
place = "{65, 57}";
},
{
place = "{583, 50}";
},
{
horizontal = 1;
place = "{-8, 49}";
},
{
horizontal = 1;
place = "{311, 48}";
},
{
horizontal = 1;
place = "{663, 50}";
},
{
horizontal = 1;
place = "{778, 46}";
}
);
layerId = UUID0;
paths = (
{
closed = 1;
nodes = (
"450 778 OFFCURVE",
"510 804 OFFCURVE",
"543 883 CURVE",
"499 902 LINE",
"465 839 OFFCURVE",
"431 824 OFFCURVE",
"386 824 CURVE SMOOTH",
"341 824 OFFCURVE",
"307 839 OFFCURVE",
"273 902 CURVE",
"229 883 LINE",
"261 804 OFFCURVE",
"322 778 OFFCURVE",
"386 778 CURVE SMOOTH"
);
},
{
closed = 1;
nodes = (
"394 359 LINE",
"394 311 LINE",
"583 311 LINE",
"583 74 LINE",
"531 54 OFFCURVE",
"463 41 OFFCURVE",
"393 41 CURVE SMOOTH",
"218 41 OFFCURVE",
"122 151 OFFCURVE",
"122 353 CURVE SMOOTH",
"122 551 OFFCURVE",
"218 663 OFFCURVE",
"386 663 CURVE SMOOTH",
"470 663 OFFCURVE",
"534 639 OFFCURVE",
"603 576 CURVE",
"627 620 LINE",
"566 682 OFFCURVE",
"484 713 OFFCURVE",
"388 713 CURVE SMOOTH",
"188 713 OFFCURVE",
"65 580 OFFCURVE",
"65 353 CURVE SMOOTH",
"65 126 OFFCURVE",
"187 -8 OFFCURVE",
"393 -8 CURVE SMOOTH",
"484 -8 OFFCURVE",
"582 12 OFFCURVE",
"633 40 CURVE",
"633 359 LINE"
);
}
);
width = 718;
}
);
leftKerningGroup = C;
rightKerningGroup = G;
unicode = 011E;
},
{
glyphname = Gcaron;
lastChange = "2017-11-14 17:14:40 +0000";
layers = (
{
anchors = (
{
name = mark0;
position = "{393, 0}";
},
{
name = mark1;
position = "{0, 0}";
},
{
name = mark2;
position = "{386, 865}";
},
{
name = mark3;
position = "{0, 0}";
},
{
name = mark4;
position = "{0, 0}";
}
);
hints = (
{
place = "{65, 57}";
},
{
place = "{583, 50}";
},
{
horizontal = 1;
place = "{-8, 49}";
},
{
horizontal = 1;
place = "{311, 48}";
},
{
horizontal = 1;
place = "{663, 50}";
},
{
horizontal = 1;
place = "{765, 150}";
}
);
layerId = UUID0;
paths = (
{
closed = 1;
nodes = (
"407 765 LINE",
"521 915 LINE",
"463 915 LINE",
"386 805 LINE",
"309 915 LINE",
"251 915 LINE",
"365 765 LINE"
);
},
{
closed = 1;
nodes = (
"394 359 LINE",
"394 311 LINE",
"583 311 LINE",
"583 74 LINE",
"531 54 OFFCURVE",
"463 41 OFFCURVE",
"393 41 CURVE SMOOTH",
"218 41 OFFCURVE",
"122 151 OFFCURVE",
"122 353 CURVE SMOOTH",
"122 551 OFFCURVE",
"218 663 OFFCURVE",
"386 663 CURVE SMOOTH",
"470 663 OFFCURVE",
"534 639 OFFCURVE",
"603 576 CURVE",
"627 620 LINE",
"566 682 OFFCURVE",
"484 713 OFFCURVE",
"388 713 CURVE SMOOTH",
"188 713 OFFCURVE",
"65 580 OFFCURVE",
"65 353 CURVE SMOOTH",
"65 126 OFFCURVE",
"187 -8 OFFCURVE",
"393 -8 CURVE SMOOTH",
"484 -8 OFFCURVE",
"582 12 OFFCURVE",
"633 40 CURVE",
"633 359 LINE"
);
}
);
width = 718;
}
);
leftKerningGroup = C;
rightKerningGroup = G;
unicode = 01E6;
},
{
glyphname = Gcircumflex;
lastChange = "2017-11-14 17:14:40 +0000";
layers = (
{
anchors = (
{
name = mark0;
position = "{393, 0}";
},
{
name = mark1;
position = "{0, 0}";
},
{
name = mark2;
position = "{386, 865}";
},
{
name = mark3;
position = "{0, 0}";
},
{
name = mark4;
position = "{0, 0}";
}
);
hints = (
{
place = "{65, 57}";
},
{
place = "{583, 50}";
},
{
horizontal = 1;
place = "{-8, 49}";
},
{
horizontal = 1;
place = "{311, 48}";
},
{
horizontal = 1;
place = "{663, 50}";
},
{
horizontal = 1;
place = "{765, 150}";
}
);
layerId = UUID0;
paths = (
{
closed = 1;
nodes = (
"386 875 LINE",
"463 765 LINE",
"521 765 LINE",
"407 915 LINE",
"365 915 LINE",
"251 765 LINE",
"309 765 LINE"
);
},
{
closed = 1;
nodes = (
"394 359 LINE",
"394 311 LINE",
"583 311 LINE",
"583 74 LINE",
"531 54 OFFCURVE",
"463 41 OFFCURVE",
"393 41 CURVE SMOOTH",
"218 41 OFFCURVE",
"122 151 OFFCURVE",
"122 353 CURVE SMOOTH",
"122 551 OFFCURVE",
"218 663 OFFCURVE",
"386 663 CURVE SMOOTH",
"470 663 OFFCURVE",
"534 639 OFFCURVE",
"603 576 CURVE",
"627 620 LINE",
"566 682 OFFCURVE",
"484 713 OFFCURVE",
"388 713 CURVE SMOOTH",
"188 713 OFFCURVE",
"65 580 OFFCURVE",
"65 353 CURVE SMOOTH",
"65 126 OFFCURVE",
"187 -8 OFFCURVE",
"393 -8 CURVE SMOOTH",
"484 -8 OFFCURVE",
"582 12 OFFCURVE",
"633 40 CURVE",
"633 359 LINE"
);
}
);
width = 718;
}
);
leftKerningGroup = C;
rightKerningGroup = G;
unicode = 011C;
},
{
glyphname = Gcommaaccent;
lastChange = "2017-11-14 17:14:40 +0000";
layers = (
{
anchors = (
{
name = mark0;
position = "{393, -170}";
},
{
name = mark1;
position = "{0, 0}";
},
{
name = mark2;
position = "{386, 705}";
},
{
name = mark3;
position = "{0, 0}";
},
{
name = mark4;
position = "{0, 0}";
}
);
hints = (
{
place = "{65, 57}";
},
{
place = "{354, 78}";
},
{
place = "{583, 50}";
},
{
horizontal = 1;
place = "{-145, 70}";
},
{
horizontal = 1;
place = "{-8, 49}";
},
{
horizontal = 1;
place = "{311, 48}";
},
{
horizontal = 1;
place = "{663, 50}";
}
);
layerId = UUID0;
paths = (
{
closed = 1;
nodes = (
"394 359 LINE",
"394 311 LINE",
"583 311 LINE",
"583 74 LINE",
"531 54 OFFCURVE",
"463 41 OFFCURVE",
"393 41 CURVE SMOOTH",
"218 41 OFFCURVE",
"122 151 OFFCURVE",
"122 353 CURVE SMOOTH",
"122 551 OFFCURVE",
"218 663 OFFCURVE",
"386 663 CURVE SMOOTH",
"470 663 OFFCURVE",
"534 639 OFFCURVE",
"603 576 CURVE",
"627 620 LINE",
"566 682 OFFCURVE",
"484 713 OFFCURVE",
"388 713 CURVE SMOOTH",
"188 713 OFFCURVE",
"65 580 OFFCURVE",
"65 353 CURVE SMOOTH",
"65 126 OFFCURVE",
"187 -8 OFFCURVE",
"393 -8 CURVE SMOOTH",
"484 -8 OFFCURVE",
"582 12 OFFCURVE",
"633 40 CURVE",
"633 359 LINE"
);
},
{
closed = 1;
nodes = (
"354 -145 LINE",
"391 -145 LINE",
"390 -174 OFFCURVE",
"383 -199 OFFCURVE",
"355 -230 CURVE",
"385 -253 LINE",
"422 -216 OFFCURVE",
"432 -176 OFFCURVE",
"432 -130 CURVE SMOOTH",
"432 -75 LINE",
"354 -75 LINE"
);
}
);
width = 718;
}
);
leftKerningGroup = C;
rightKerningGroup = G;
unicode = 0122;
},
{
glyphname = Gdotaccent;
lastChange = "2017-11-14 17:14:40 +0000";
layers = (
{
anchors = (
{
name = mark0;
position = "{393, 0}";
},
{
name = mark1;
position = "{0, 0}";
},
{
name = mark2;
position = "{386, 865}";
},
{
name = mark3;
position = "{0, 0}";
},
{
name = mark4;
position = "{0, 0}";
}
);
hints = (
{
place = "{65, 57}";
},
{
place = "{349, 74}";
},
{
place = "{583, 50}";
},
{
horizontal = 1;
place = "{-8, 49}";
},
{
horizontal = 1;
place = "{311, 48}";
},
{
horizontal = 1;
place = "{663, 50}";
},
{
horizontal = 1;
place = "{805, 72}";
}
);
layerId = UUID0;
paths = (
{
closed = 1;
nodes = (
"423 877 LINE",
"349 877 LINE",
"349 805 LINE",
"423 805 LINE"
);
},
{
closed = 1;
nodes = (
"394 359 LINE",
"394 311 LINE",
"583 311 LINE",
"583 74 LINE",
"531 54 OFFCURVE",
"463 41 OFFCURVE",
"393 41 CURVE SMOOTH",
"218 41 OFFCURVE",
"122 151 OFFCURVE",
"122 353 CURVE SMOOTH",
"122 551 OFFCURVE",
"218 663 OFFCURVE",
"386 663 CURVE SMOOTH",
"470 663 OFFCURVE",
"534 639 OFFCURVE",
"603 576 CURVE",
"627 620 LINE",
"566 682 OFFCURVE",
"484 713 OFFCURVE",
"388 713 CURVE SMOOTH",
"188 713 OFFCURVE",
"65 580 OFFCURVE",
"65 353 CURVE SMOOTH",
"65 126 OFFCURVE",
"187 -8 OFFCURVE",
"393 -8 CURVE SMOOTH",
"484 -8 OFFCURVE",
"582 12 OFFCURVE",
"633 40 CURVE",
"633 359 LINE"
);
}
);
width = 718;
}
);
leftKerningGroup = C;
rightKerningGroup = G;
unicode = 0120;
},
{
glyphname = H;
lastChange = "2017-11-14 17:14:40 +0000";
layers = (
{
anchors = (
{
name = mark0;
position = "{377, 0}";
},
{
name = mark1;
position = "{0, 0}";
},
{
name = mark2;
position = "{376, 705}";
},
{
name = mark3;
position = "{377, 358}";
},
{
name = mark4;
position = "{0, 0}";
}
);
hints = (
{
place = "{93, 54}";
},
{
place = "{606, 54}";
},
{
horizontal = 1;
place = "{0, 21}";
target = up;
type = BottomGhost;
},
{
horizontal = 1;
place = "{334, 48}";
},
{
horizontal = 1;
place = "{705, -20}";
target = down;
type = TopGhost;
}
);
layerId = UUID0;
paths = (
{
closed = 1;
nodes = (
"606 705 LINE",
"606 382 LINE",
"147 382 LINE",
"147 705 LINE",
"93 705 LINE",
"93 0 LINE",
"147 0 LINE",
"147 334 LINE",
"606 334 LINE",
"606 0 LINE",
"660 0 LINE",
"660 705 LINE"
);
}
);
width = 753;
}
);
unicode = 0048;
},
{
glyphname = Hbar;
lastChange = "2017-11-14 17:14:40 +0000";
layers = (
{
hints = (
{
place = "{100, 54}";
},
{
place = "{613, 54}";
},
{
horizontal = 1;
place = "{0, 21}";
target = up;
type = BottomGhost;
},
{
horizontal = 1;
place = "{334, 48}";
},
{
horizontal = 1;
place = "{525, 46}";
},
{
horizontal = 1;
place = "{525, 180}";
}
);
layerId = UUID0;
paths = (
{
closed = 1;
nodes = (
"762 571 LINE",
"667 571 LINE",
"667 705 LINE",
"613 705 LINE",
"613 571 LINE",
"154 571 LINE",
"154 705 LINE",
"100 705 LINE",
"100 571 LINE",
"5 571 LINE",
"5 525 LINE",
"100 525 LINE",
"100 0 LINE",
"154 0 LINE",
"154 334 LINE",
"613 334 LINE",
"613 0 LINE",
"667 0 LINE",
"667 525 LINE",
"762 525 LINE"
);
},
{
closed = 1;
nodes = (
"613 382 LINE",
"154 382 LINE",
"154 525 LINE",
"613 525 LINE"
);
}
);
width = 767;
}
);
unicode = 0126;
},
{
glyphname = Hcircumflex;
lastChange = "2017-11-14 17:14:40 +0000";
layers = (
{
anchors = (
{
name = mark0;
position = "{377, 0}";
},
{
name = mark1;
position = "{0, 0}";
},
{
name = mark2;
position = "{376, 865}";
},
{
name = mark3;
position = "{377, 358}";
},
{
name = mark4;
position = "{0, 0}";
}
);
hints = (
{
place = "{93, 54}";
},
{
place = "{606, 54}";
},
{
horizontal = 1;
place = "{0, 21}";
target = up;
type = BottomGhost;
},
{
horizontal = 1;
place = "{334, 48}";
},
{
horizontal = 1;
place = "{705, -20}";
target = down;
type = TopGhost;
},
{
horizontal = 1;
place = "{765, 150}";
}
);
layerId = UUID0;
paths = (
{
closed = 1;
nodes = (
"376 875 LINE",
"453 765 LINE",
"511 765 LINE",
"397 915 LINE",
"355 915 LINE",
"241 765 LINE",
"299 765 LINE"
);
},
{
closed = 1;
nodes = (
"606 705 LINE",
"606 382 LINE",
"147 382 LINE",
"147 705 LINE",
"93 705 LINE",
"93 0 LINE",
"147 0 LINE",
"147 334 LINE",
"606 334 LINE",
"606 0 LINE",
"660 0 LINE",
"660 705 LINE"
);
}
);
width = 753;
}
);
unicode = 0124;
},
{
glyphname = I;
lastChange = "2017-11-14 17:14:40 +0000";
layers = (
{
anchors = (
{
name = mark0;
position = "{120, 0}";
},
{
name = mark1;
position = "{144, 10}";
},
{
name = mark2;
position = "{120, 705}";
},
{
name = mark3;
position = "{0, 0}";
},
{
name = mark4;
position = "{0, 0}";
}
);
hints = (
{
place = "{93, 54}";
},
{
horizontal = 1;
place = "{0, 21}";
target = up;
type = BottomGhost;
},
{
horizontal = 1;
place = "{705, -20}";
target = down;
type = TopGhost;
}
);
layerId = UUID0;
paths = (
{
closed = 1;
nodes = (
"93 0 LINE",
"147 0 LINE",
"147 705 LINE",
"93 705 LINE"
);
}
);
width = 240;
}
);
unicode = 0049;
},
{
glyphname = Iacute;
lastChange = "2017-11-14 17:14:40 +0000";
layers = (
{
anchors = (
{
name = mark0;
position = "{120, 0}";
},
{
name = mark1;
position = "{144, 10}";
},
{
name = mark2;
position = "{120, 865}";
},
{
name = mark3;
position = "{0, 0}";
},
{
name = mark4;
position = "{0, 0}";
}
);
hints = (
{
place = "{93, 54}";
},
{
horizontal = 1;
place = "{0, 21}";
target = up;
type = BottomGhost;
},
{
horizontal = 1;
place = "{705, -20}";
target = down;
type = TopGhost;
},
{
horizontal = 1;
place = "{765, 150}";
}
);
layerId = UUID0;
paths = (
{
closed = 1;
nodes = (
"141 765 LINE",
"268 915 LINE",
"199 915 LINE",
"99 765 LINE"
);
},
{
closed = 1;
nodes = (
"93 0 LINE",
"147 0 LINE",
"147 705 LINE",
"93 705 LINE"
);
}
);
width = 240;
}
);
unicode = 00CD;
},
{
glyphname = Ibreve;
lastChange = "2017-11-14 17:14:40 +0000";
layers = (
{
anchors = (
{
name = mark0;
position = "{120, 0}";
},
{
name = mark1;
position = "{144, 10}";
},
{
name = mark2;
position = "{120, 865}";
},
{
name = mark3;
position = "{0, 0}";
},
{
name = mark4;
position = "{0, 0}";
}
);
hints = (
{
place = "{93, 54}";
},
{
horizontal = 1;
place = "{0, 21}";
target = up;
type = BottomGhost;
},
{
horizontal = 1;
place = "{705, -20}";
target = down;
type = TopGhost;
},
{
horizontal = 1;
place = "{778, 46}";
}
);
layerId = UUID0;
paths = (
{
closed = 1;
nodes = (
"184 778 OFFCURVE",
"244 804 OFFCURVE",
"277 883 CURVE",
"233 902 LINE",
"199 839 OFFCURVE",
"165 824 OFFCURVE",
"120 824 CURVE SMOOTH",
"75 824 OFFCURVE",
"41 839 OFFCURVE",
"7 902 CURVE",
"-37 883 LINE",
"-5 804 OFFCURVE",
"56 778 OFFCURVE",
"120 778 CURVE SMOOTH"
);
},
{
closed = 1;
nodes = (
"93 0 LINE",
"147 0 LINE",
"147 705 LINE",
"93 705 LINE"
);
}
);
width = 240;
}
);
unicode = 012C;
},
{
glyphname = Icircumflex;
lastChange = "2017-11-14 17:14:40 +0000";
layers = (
{
anchors = (
{
name = mark0;
position = "{120, 0}";
},
{
name = mark1;
position = "{144, 10}";
},
{
name = mark2;
position = "{120, 865}";
},
{
name = mark3;
position = "{0, 0}";
},
{
name = mark4;
position = "{0, 0}";
}
);
hints = (
{
place = "{93, 54}";
},
{
horizontal = 1;
place = "{0, 21}";
target = up;
type = BottomGhost;
},
{
horizontal = 1;
place = "{705, -20}";
target = down;
type = TopGhost;
},
{
horizontal = 1;
place = "{765, 150}";
}
);
layerId = UUID0;
paths = (
{
closed = 1;
nodes = (
"43 765 LINE",
"120 875 LINE",
"197 765 LINE",
"255 765 LINE",
"141 915 LINE",
"99 915 LINE",
"-15 765 LINE"
);
},
{
closed = 1;
nodes = (
"93 0 LINE",
"147 0 LINE",
"147 705 LINE",
"93 705 LINE"
);
}
);
width = 240;
}
);
unicode = 00CE;
},
{
glyphname = Idieresis;
lastChange = "2017-11-14 17:14:40 +0000";
layers = (
{
anchors = (
{
name = mark0;
position = "{120, 0}";
},
{
name = mark1;
position = "{144, 10}";
},
{
name = mark2;
position = "{120, 865}";
},
{
name = mark3;
position = "{0, 0}";
},
{
name = mark4;
position = "{0, 0}";
}
);
hints = (
{
place = "{3, 70}";
},
{
place = "{93, 54}";
},
{
place = "{167, 70}";
},
{
horizontal = 1;
place = "{0, 21}";
target = up;
type = BottomGhost;
},
{
horizontal = 1;
place = "{705, -20}";
target = down;
type = TopGhost;
},
{
horizontal = 1;
place = "{807, 68}";
}
);
layerId = UUID0;
paths = (
{
closed = 1;
nodes = (
"3 875 LINE",
"3 807 LINE",
"73 807 LINE",
"73 875 LINE"
);
},
{
closed = 1;
nodes = (
"167 875 LINE",
"167 807 LINE",
"237 807 LINE",
"237 875 LINE"
);
},
{
closed = 1;
nodes = (
"93 0 LINE",
"147 0 LINE",
"147 705 LINE",
"93 705 LINE"
);
}
);
width = 240;
}
);
unicode = 00CF;
},
{
glyphname = Idotaccent;
lastChange = "2017-11-14 17:14:40 +0000";
layers = (
{
anchors = (
{
name = mark0;
position = "{120, 0}";
},
{
name = mark1;
position = "{144, 10}";
},
{
name = mark2;
position = "{120, 865}";
},
{
name = mark3;
position = "{0, 0}";
},
{
name = mark4;
position = "{0, 0}";
}
);
hints = (
{
place = "{83, 74}";
},
{
place = "{93, 54}";
},
{
horizontal = 1;
place = "{0, 21}";
target = up;
type = BottomGhost;
},
{
horizontal = 1;
place = "{705, -20}";
target = down;
type = TopGhost;
},
{
horizontal = 1;
place = "{805, 72}";
}
);
layerId = UUID0;
paths = (
{
closed = 1;
nodes = (
"83 877 LINE",
"83 805 LINE",
"157 805 LINE",
"157 877 LINE"
);
},
{
closed = 1;
nodes = (
"93 0 LINE",
"147 0 LINE",
"147 705 LINE",
"93 705 LINE"
);
}
);
width = 240;
}
);
unicode = 0130;
},
{
glyphname = Igrave;
lastChange = "2017-11-14 17:14:40 +0000";
layers = (
{
anchors = (
{
name = mark0;
position = "{120, 0}";
},
{
name = mark1;
position = "{144, 10}";
},
{
name = mark2;
position = "{120, 865}";
},
{
name = mark3;
position = "{0, 0}";
},
{
name = mark4;
position = "{0, 0}";
}
);
hints = (
{
place = "{93, 54}";
},
{
horizontal = 1;
place = "{0, 21}";
target = up;
type = BottomGhost;
},
{
horizontal = 1;
place = "{705, -20}";
target = down;
type = TopGhost;
},
{
horizontal = 1;
place = "{765, 150}";
}
);
layerId = UUID0;
paths = (
{
closed = 1;
nodes = (
"99 765 LINE",
"141 765 LINE",
"41 915 LINE",
"-28 915 LINE"
);
},
{
closed = 1;
nodes = (
"93 0 LINE",
"147 0 LINE",
"147 705 LINE",
"93 705 LINE"
);
}
);
width = 240;
}
);
unicode = 00CC;
},
{
glyphname = Imacron;
lastChange = "2017-11-14 17:14:40 +0000";
layers = (
{
anchors = (
{
name = mark0;
position = "{120, 0}";
},
{
name = mark1;
position = "{144, 10}";
},
{
name = mark2;
position = "{120, 865}";
},
{
name = mark3;
position = "{0, 0}";
},
{
name = mark4;
position = "{0, 0}";
}
);
hints = (
{
place = "{93, 54}";
},
{
horizontal = 1;
place = "{0, 21}";
target = up;
type = BottomGhost;
},
{
horizontal = 1;
place = "{705, -20}";
target = down;
type = TopGhost;
},
{
horizontal = 1;
place = "{817, 48}";
}
);
layerId = UUID0;
paths = (
{
closed = 1;
nodes = (
"-27 817 LINE",
"267 817 LINE",
"267 865 LINE",
"-27 865 LINE"
);
},
{
closed = 1;
nodes = (
"93 0 LINE",
"147 0 LINE",
"147 705 LINE",
"93 705 LINE"
);
}
);
width = 240;
}
);
unicode = 012A;
},
{
glyphname = Iogonek;
lastChange = "2017-11-14 17:14:40 +0000";
layers = (
{
hints = (
{
place = "{1, 50}";
},
{
place = "{93, 54}";
},
{
horizontal = 1;
place = "{-191, 43}";
},
{
horizontal = 1;
place = "{0, 29}";
},
{
horizontal = 1;
place = "{0, 21}";
target = up;
type = BottomGhost;
},
{
horizontal = 1;
place = "{705, -20}";
target = down;
type = TopGhost;
}
);
layerId = UUID0;
paths = (
{
closed = 1;
nodes = (
"178 -130 LINE",
"157 -142 OFFCURVE",
"135 -148 OFFCURVE",
"119 -148 CURVE SMOOTH",
"79 -148 OFFCURVE",
"51 -125 OFFCURVE",
"51 -82 CURVE SMOOTH",
"51 -38 OFFCURVE",
"84 0 OFFCURVE",
"143 0 CURVE SMOOTH",
"147 0 LINE",
"147 705 LINE",
"93 705 LINE",
"93 29 LINE",
"33 8 OFFCURVE",
"1 -37 OFFCURVE",
"1 -88 CURVE SMOOTH",
"1 -148 OFFCURVE",
"46 -191 OFFCURVE",
"114 -191 CURVE SMOOTH",
"147 -191 OFFCURVE",
"175 -181 OFFCURVE",
"194 -168 CURVE"
);
}
);
width = 240;
}
);
unicode = 012E;
},
{
glyphname = Itilde;
lastChange = "2017-11-14 17:14:40 +0000";
layers = (
{
anchors = (
{
name = mark0;
position = "{120, 0}";
},
{
name = mark1;
position = "{144, 10}";
},
{
name = mark2;
position = "{120, 865}";
},
{
name = mark3;
position = "{0, 0}";
},
{
name = mark4;
position = "{0, 0}";
}
);
hints = (
{
place = "{-36, 37}";
},
{
place = "{93, 54}";
},
{
place = "{239, 37}";
},
{
horizontal = 1;
place = "{0, 21}";
target = up;
type = BottomGhost;
},
{
horizontal = 1;
place = "{705, -20}";
target = down;
type = TopGhost;
},
{
horizontal = 1;
place = "{789, 46}";
},
{
horizontal = 1;
place = "{848, 46}";
}
);
layerId = UUID0;
paths = (
{
closed = 1;
nodes = (
"1 792 LINE",
"1 820 OFFCURVE",
"17 848 OFFCURVE",
"49 848 CURVE SMOOTH",
"88 848 OFFCURVE",
"136 789 OFFCURVE",
"194 789 CURVE SMOOTH",
"245 789 OFFCURVE",
"276 829 OFFCURVE",
"276 891 CURVE",
"239 891 LINE",
"239 863 OFFCURVE",
"223 835 OFFCURVE",
"191 835 CURVE SMOOTH",
"152 835 OFFCURVE",
"104 894 OFFCURVE",
"46 894 CURVE SMOOTH",
"-5 894 OFFCURVE",
"-36 854 OFFCURVE",
"-36 792 CURVE"
);
},
{
closed = 1;
nodes = (
"93 0 LINE",
"147 0 LINE",
"147 705 LINE",
"93 705 LINE"
);
}
);
width = 240;
}
);
unicode = 0128;
},
{
glyphname = J;
lastChange = "2017-11-14 17:14:40 +0000";
layers = (
{
anchors = (
{
name = mark0;
position = "{186, 0}";
},
{
name = mark1;
position = "{0, 0}";
},
{
name = mark2;
position = "{186, 705}";
},
{
name = mark3;
position = "{0, 0}";
},
{
name = mark4;
position = "{0, 0}";
}
);
hints = (
{
place = "{159, 54}";
},
{
horizontal = 1;
place = "{-6, 49}";
},
{
horizontal = 1;
place = "{705, -20}";
target = down;
type = TopGhost;
}
);
layerId = UUID0;
paths = (
{
closed = 1;
nodes = (
"-5 -6 LINE",
"50 -2 LINE SMOOTH",
"155 5 OFFCURVE",
"213 70 OFFCURVE",
"213 180 CURVE SMOOTH",
"213 705 LINE",
"159 705 LINE",
"159 182 LINE SMOOTH",
"159 102 OFFCURVE",
"117 51 OFFCURVE",
"44 45 CURVE SMOOTH",
"-9 41 LINE"
);
}
);
width = 306;
}
);
leftKerningGroup = J;
rightKerningGroup = J;
unicode = 004A;
},
{
glyphname = Jcircumflex;
lastChange = "2017-11-14 17:14:40 +0000";
layers = (
{
anchors = (
{
name = mark0;
position = "{186, 0}";
},
{
name = mark1;
position = "{0, 0}";
},
{
name = mark2;
position = "{186, 865}";
},
{
name = mark3;
position = "{0, 0}";
},
{
name = mark4;
position = "{0, 0}";
}
);
hints = (
{
place = "{159, 54}";
},
{
horizontal = 1;
place = "{-6, 49}";
},
{
horizontal = 1;
place = "{705, -20}";
target = down;
type = TopGhost;
},
{
horizontal = 1;
place = "{765, 150}";
}
);
layerId = UUID0;
paths = (
{
closed = 1;
nodes = (
"109 765 LINE",
"186 875 LINE",
"263 765 LINE",
"321 765 LINE",
"207 915 LINE",
"165 915 LINE",
"51 765 LINE"
);
},
{
closed = 1;
nodes = (
"-5 -6 LINE",
"50 -2 LINE SMOOTH",
"155 5 OFFCURVE",
"213 70 OFFCURVE",
"213 180 CURVE SMOOTH",
"213 705 LINE",
"159 705 LINE",
"159 182 LINE SMOOTH",
"159 102 OFFCURVE",
"117 51 OFFCURVE",
"44 45 CURVE SMOOTH",
"-9 41 LINE"
);
}
);
width = 306;
}
);
leftKerningGroup = J;
rightKerningGroup = J;
unicode = 0134;
},
{
glyphname = K;
lastChange = "2017-11-14 17:14:40 +0000";
layers = (
{
anchors = (
{
name = mark0;
position = "{306, 0}";
},
{
name = mark1;
position = "{0, 0}";
},
{
name = mark2;
position = "{305, 705}";
},
{
name = mark3;
position = "{0, 0}";
},
{
name = mark4;
position = "{0, 0}";
}
);
hints = (
{
place = "{93, 54}";
},
{
horizontal = 1;
place = "{0, 21}";
target = up;
type = BottomGhost;
},
{
horizontal = 1;
place = "{705, -20}";
target = down;
type = TopGhost;
}
);
layerId = UUID0;
paths = (
{
closed = 1;
nodes = (
"607 0 LINE",
"200 360 LINE",
"585 705 LINE",
"512 705 LINE",
"147 377 LINE",
"147 705 LINE",
"93 705 LINE",
"93 0 LINE",
"147 0 LINE",
"147 338 LINE",
"532 0 LINE"
);
}
);
width = 608;
}
);
rightKerningGroup = K;
unicode = 004B;
},
{
glyphname = Kcommaaccent;
lastChange = "2017-11-14 17:14:40 +0000";
layers = (
{
anchors = (
{
name = mark0;
position = "{306, -170}";
},
{
name = mark1;
position = "{0, 0}";
},
{
name = mark2;
position = "{305, 705}";
},
{
name = mark3;
position = "{0, 0}";
},
{
name = mark4;
position = "{0, 0}";
}
);
hints = (
{
place = "{93, 54}";
},
{
place = "{267, 78}";
},
{
horizontal = 1;
place = "{-145, 70}";
},
{
horizontal = 1;
place = "{0, 21}";
target = up;
type = BottomGhost;
},
{
horizontal = 1;
place = "{705, -20}";
target = down;
type = TopGhost;
}
);
layerId = UUID0;
paths = (
{
closed = 1;
nodes = (
"200 360 LINE",
"585 705 LINE",
"512 705 LINE",
"147 377 LINE",
"147 705 LINE",
"93 705 LINE",
"93 0 LINE",
"147 0 LINE",
"147 338 LINE",
"532 0 LINE",
"607 0 LINE"
);
},
{
closed = 1;
nodes = (
"267 -145 LINE",
"304 -145 LINE",
"303 -174 OFFCURVE",
"296 -199 OFFCURVE",
"268 -230 CURVE",
"298 -253 LINE",
"335 -216 OFFCURVE",
"345 -176 OFFCURVE",
"345 -130 CURVE SMOOTH",
"345 -75 LINE",
"267 -75 LINE"
);
}
);
width = 608;
}
);
rightKerningGroup = K;
unicode = 0136;
},
{
glyphname = L;
lastChange = "2017-11-14 17:14:40 +0000";
layers = (
{
anchors = (
{
name = mark0;
position = "{307, 0}";
},
{
name = mark1;
position = "{0, 0}";
},
{
name = mark2;
position = "{120, 705}";
},
{
name = mark3;
position = "{334, 353}";
},
{
name = mark4;
position = "{237, 705}";
}
);
hints = (
{
place = "{93, 54}";
},
{
horizontal = 1;
place = "{0, 48}";
},
{
horizontal = 1;
place = "{705, -20}";
target = down;
type = TopGhost;
}
);
layerId = UUID0;
paths = (
{
closed = 1;
nodes = (
"93 0 LINE",
"515 0 LINE",
"515 48 LINE",
"147 48 LINE",
"147 705 LINE",
"93 705 LINE"
);
}
);
width = 531;
}
);
rightKerningGroup = L;
unicode = 004C;
},
{
glyphname = Lacute;
lastChange = "2017-11-14 17:14:40 +0000";
layers = (
{
anchors = (
{
name = mark0;
position = "{307, 0}";
},
{
name = mark1;
position = "{0, 0}";
},
{
name = mark2;
position = "{120, 865}";
},
{
name = mark3;
position = "{334, 353}";
},
{
name = mark4;
position = "{237, 705}";
}
);
hints = (
{
place = "{93, 54}";
},
{
horizontal = 1;
place = "{0, 48}";
},
{
horizontal = 1;
place = "{705, -20}";
target = down;
type = TopGhost;
},
{
horizontal = 1;
place = "{765, 150}";
}
);
layerId = UUID0;
paths = (
{
closed = 1;
nodes = (
"141 765 LINE",
"268 915 LINE",
"199 915 LINE",
"99 765 LINE"
);
},
{
closed = 1;
nodes = (
"93 0 LINE",
"515 0 LINE",
"515 48 LINE",
"147 48 LINE",
"147 705 LINE",
"93 705 LINE"
);
}
);
width = 531;
}
);
rightKerningGroup = L;
unicode = 0139;
},
{
glyphname = Lcaron;
lastChange = "2017-11-14 17:14:40 +0000";
layers = (
{
anchors = (
{
name = mark0;
position = "{307, 0}";
},
{
name = mark1;
position = "{0, 0}";
},
{
name = mark2;
position = "{120, 705}";
},
{
name = mark3;
position = "{334, 353}";
},
{
name = mark4;
position = "{237, 705}";
}
);
hints = (
{
place = "{93, 54}";
},
{
place = "{230, 33}";
},
{
horizontal = 1;
place = "{0, 48}";
},
{
horizontal = 1;
place = "{516, 189}";
}
);
layerId = UUID0;
paths = (
{
closed = 1;
nodes = (
"93 0 LINE",
"515 0 LINE",
"515 48 LINE",
"147 48 LINE",
"147 705 LINE",
"93 705 LINE"
);
},
{
closed = 1;
nodes = (
"263 516 LINE",
"289 705 LINE",
"230 705 LINE",
"230 516 LINE"
);
}
);
width = 531;
}
);
rightKerningGroup = L;
unicode = 013D;
},
{
glyphname = Lcommaaccent;
lastChange = "2017-11-14 17:14:40 +0000";
layers = (
{
anchors = (
{
name = mark0;
position = "{307, -170}";
},
{
name = mark1;
position = "{0, 0}";
},
{
name = mark2;
position = "{120, 705}";
},
{
name = mark3;
position = "{334, 353}";
},
{
name = mark4;
position = "{237, 705}";
}
);
hints = (
{
place = "{93, 54}";
},
{
place = "{268, 78}";
},
{
horizontal = 1;
place = "{-145, 70}";
},
{
horizontal = 1;
place = "{0, 48}";
},
{
horizontal = 1;
place = "{705, -20}";
target = down;
type = TopGhost;
}
);
layerId = UUID0;
paths = (
{
closed = 1;
nodes = (
"147 48 LINE",
"147 705 LINE",
"93 705 LINE",
"93 0 LINE",
"515 0 LINE",
"515 48 LINE"
);
},
{
closed = 1;
nodes = (
"268 -145 LINE",
"305 -145 LINE",
"304 -174 OFFCURVE",
"297 -199 OFFCURVE",
"269 -230 CURVE",
"299 -253 LINE",
"336 -216 OFFCURVE",
"346 -176 OFFCURVE",
"346 -130 CURVE SMOOTH",
"346 -75 LINE",
"268 -75 LINE"
);
}
);
width = 531;
}
);
rightKerningGroup = L;
unicode = 013B;
},
{
glyphname = Ldot;
lastChange = "2017-11-14 17:14:40 +0000";
layers = (
{
anchors = (
{
name = mark0;
position = "{307, 0}";
},
{
name = mark1;
position = "{0, 0}";
},
{
name = mark2;
position = "{120, 705}";
},
{
name = mark3;
position = "{334, 353}";
},
{
name = mark4;
position = "{237, 705}";
}
);
hints = (
{
place = "{93, 54}";
},
{
place = "{295, 79}";
},
{
horizontal = 1;
place = "{0, 48}";
},
{
horizontal = 1;
place = "{315, 76}";
},
{
horizontal = 1;
place = "{705, -20}";
target = down;
type = TopGhost;
}
);
layerId = UUID0;
paths = (
{
closed = 1;
nodes = (
"93 0 LINE",
"515 0 LINE",
"515 48 LINE",
"147 48 LINE",
"147 705 LINE",
"93 705 LINE"
);
},
{
closed = 1;
nodes = (
"295 391 LINE",
"295 315 LINE",
"374 315 LINE",
"374 391 LINE"
);
}
);
width = 531;
}
);
rightKerningGroup = L;
unicode = 013F;
},
{
glyphname = Lslash;
lastChange = "2017-11-14 17:14:40 +0000";
layers = (
{
hints = (
{
place = "{100, 54}";
},
{
horizontal = 1;
place = "{0, 48}";
},
{
horizontal = 1;
place = "{502, -20}";
target = down;
type = TopGhost;
},
{
horizontal = 1;
place = "{705, -20}";
target = down;
type = TopGhost;
}
);
layerId = UUID0;
paths = (
{
closed = 1;
nodes = (
"154 48 LINE",
"154 345 LINE",
"355 461 LINE",
"331 502 LINE",
"154 400 LINE",
"154 705 LINE",
"100 705 LINE",
"100 369 LINE",
"-4 309 LINE",
"20 268 LINE",
"100 314 LINE",
"100 0 LINE",
"522 0 LINE",
"522 48 LINE"
);
}
);
width = 538;
}
);
rightKerningGroup = L;
unicode = 0141;
},
{
glyphname = M;
lastChange = "2017-11-14 17:14:40 +0000";
layers = (
{
anchors = (
{
name = mark0;
position = "{420, 0}";
},
{
name = mark1;
position = "{0, 0}";
},
{
name = mark2;
position = "{420, 705}";
},
{
name = mark3;
position = "{0, 0}";
},
{
name = mark4;
position = "{0, 0}";
}
);
hints = (
{
place = "{93, 51}";
},
{
place = "{695, 51}";
},
{
horizontal = 1;
place = "{0, 21}";
target = up;
type = BottomGhost;
},
{
horizontal = 1;
place = "{705, -20}";
target = down;
type = TopGhost;
}
);
layerId = UUID0;
paths = (
{
closed = 1;
nodes = (
"701 705 LINE",
"422 164 LINE",
"139 705 LINE",
"93 705 LINE",
"93 0 LINE",
"145 0 LINE",
"144 591 LINE",
"400 111 LINE",
"442 111 LINE",
"696 595 LINE",
"695 0 LINE",
"747 0 LINE",
"747 705 LINE"
);
}
);
width = 840;
}
);
unicode = 004D;
},
{
glyphname = N;
lastChange = "2017-11-14 17:14:40 +0000";
layers = (
{
anchors = (
{
name = mark0;
position = "{367, 0}";
},
{
name = mark1;
position = "{0, 0}";
},
{
name = mark2;
position = "{367, 705}";
},
{
name = mark3;
position = "{0, 0}";
},
{
name = mark4;
position = "{0, 0}";
}
);
hints = (
{
place = "{93, 51}";
},
{
place = "{590, 51}";
},
{
horizontal = 1;
place = "{0, 21}";
target = up;
type = BottomGhost;
},
{
horizontal = 1;
place = "{705, -20}";
target = down;
type = TopGhost;
}
);
layerId = UUID0;
paths = (
{
closed = 1;
nodes = (
"590 705 LINE",
"590 93 LINE",
"137 705 LINE",
"93 705 LINE",
"93 0 LINE",
"144 0 LINE",
"144 613 LINE",
"598 0 LINE",
"641 0 LINE",
"641 705 LINE"
);
}
);
width = 734;
}
);
unicode = 004E;
},
{
glyphname = Nacute;
lastChange = "2017-11-14 17:14:40 +0000";
layers = (
{
anchors = (
{
name = mark0;
position = "{367, 0}";
},
{
name = mark1;
position = "{0, 0}";
},
{
name = mark2;
position = "{367, 865}";
},
{
name = mark3;
position = "{0, 0}";
},
{
name = mark4;
position = "{0, 0}";
}
);
hints = (
{
place = "{93, 51}";
},
{
place = "{590, 51}";
},
{
horizontal = 1;
place = "{0, 21}";
target = up;
type = BottomGhost;
},
{
horizontal = 1;
place = "{705, -20}";
target = down;
type = TopGhost;
},
{
horizontal = 1;
place = "{765, 150}";
}
);
layerId = UUID0;
paths = (
{
closed = 1;
nodes = (
"515 915 LINE",
"446 915 LINE",
"346 765 LINE",
"388 765 LINE"
);
},
{
closed = 1;
nodes = (
"590 705 LINE",
"590 93 LINE",
"137 705 LINE",
"93 705 LINE",
"93 0 LINE",
"144 0 LINE",
"144 613 LINE",
"598 0 LINE",
"641 0 LINE",
"641 705 LINE"
);
}
);
width = 734;
}
);
unicode = 0143;
},
{
glyphname = Ncaron;
lastChange = "2017-11-14 17:14:40 +0000";
layers = (
{
anchors = (
{
name = mark0;
position = "{367, 0}";
},
{
name = mark1;
position = "{0, 0}";
},
{
name = mark2;
position = "{367, 865}";
},
{
name = mark3;
position = "{0, 0}";
},
{
name = mark4;
position = "{0, 0}";
}
);
hints = (
{
place = "{93, 51}";
},
{
place = "{590, 51}";
},
{
horizontal = 1;
place = "{0, 21}";
target = up;
type = BottomGhost;
},
{
horizontal = 1;
place = "{705, -20}";
target = down;
type = TopGhost;
},
{
horizontal = 1;
place = "{765, 150}";
}
);
layerId = UUID0;
paths = (
{
closed = 1;
nodes = (
"388 765 LINE",
"502 915 LINE",
"444 915 LINE",
"367 805 LINE",
"290 915 LINE",
"232 915 LINE",
"346 765 LINE"
);
},
{
closed = 1;
nodes = (
"590 705 LINE",
"590 93 LINE",
"137 705 LINE",
"93 705 LINE",
"93 0 LINE",
"144 0 LINE",
"144 613 LINE",
"598 0 LINE",
"641 0 LINE",
"641 705 LINE"
);
}
);
width = 734;
}
);
unicode = 0147;
},
{
glyphname = Ncommaaccent;
lastChange = "2017-11-14 17:14:40 +0000";
layers = (
{
anchors = (
{
name = mark0;
position = "{367, -170}";
},
{
name = mark1;
position = "{0, 0}";
},
{
name = mark2;
position = "{367, 705}";
},
{
name = mark3;
position = "{0, 0}";
},
{
name = mark4;
position = "{0, 0}";
}
);
hints = (
{
place = "{93, 51}";
},
{
place = "{328, 78}";
},
{
place = "{590, 51}";
},
{
horizontal = 1;
place = "{-145, 70}";
},
{
horizontal = 1;
place = "{0, 21}";
target = up;
type = BottomGhost;
},
{
horizontal = 1;
place = "{705, -20}";
target = down;
type = TopGhost;
}
);
layerId = UUID0;
paths = (
{
closed = 1;
nodes = (
"590 705 LINE",
"590 93 LINE",
"137 705 LINE",
"93 705 LINE",
"93 0 LINE",
"144 0 LINE",
"144 613 LINE",
"598 0 LINE",
"641 0 LINE",
"641 705 LINE"
);
},
{
closed = 1;
nodes = (
"328 -145 LINE",
"365 -145 LINE",
"364 -174 OFFCURVE",
"357 -199 OFFCURVE",
"329 -230 CURVE",
"359 -253 LINE",
"396 -216 OFFCURVE",
"406 -176 OFFCURVE",
"406 -130 CURVE SMOOTH",
"406 -75 LINE",
"328 -75 LINE"
);
}
);
width = 734;
}
);
unicode = 0145;
},
{
glyphname = Eng;
lastChange = "2017-11-14 17:14:40 +0000";
layers = (
{
hints = (
{
place = "{93, 51}";
},
{
place = "{590, 51}";
},
{
horizontal = 1;
place = "{-186, 49}";
},
{
horizontal = 1;
place = "{0, 21}";
target = up;
type = BottomGhost;
},
{
horizontal = 1;
place = "{705, -20}";
target = down;
type = TopGhost;
}
);
layerId = UUID0;
paths = (
{
closed = 1;
nodes = (
"590 705 LINE",
"590 93 LINE",
"137 705 LINE",
"93 705 LINE",
"93 0 LINE",
"144 0 LINE",
"144 613 LINE",
"590 11 LINE",
"590 -13 LINE SMOOTH",
"590 -90 OFFCURVE",
"548 -129 OFFCURVE",
"472 -135 CURVE SMOOTH",
"419 -139 LINE",
"423 -186 LINE",
"478 -182 LINE SMOOTH",
"594 -174 OFFCURVE",
"641 -108 OFFCURVE",
"641 -9 CURVE SMOOTH",
"641 705 LINE"
);
}
);
width = 734;
}
);
unicode = 014A;
},
{
glyphname = Ntilde;
lastChange = "2017-11-14 17:14:40 +0000";
layers = (
{
anchors = (
{
name = mark0;
position = "{367, 0}";
},
{
name = mark1;
position = "{0, 0}";
},
{
name = mark2;
position = "{367, 865}";
},
{
name = mark3;
position = "{0, 0}";
},
{
name = mark4;
position = "{0, 0}";
}
);
hints = (
{
place = "{93, 51}";
},
{
place = "{211, 37}";
},
{
place = "{486, 37}";
},
{
place = "{590, 51}";
},
{
horizontal = 1;
place = "{0, 21}";
target = up;
type = BottomGhost;
},
{
horizontal = 1;
place = "{705, -20}";
target = down;
type = TopGhost;
},
{
horizontal = 1;
place = "{789, 46}";
},
{
horizontal = 1;
place = "{848, 46}";
}
);
layerId = UUID0;
paths = (
{
closed = 1;
nodes = (
"335 848 OFFCURVE",
"383 789 OFFCURVE",
"441 789 CURVE SMOOTH",
"492 789 OFFCURVE",
"523 829 OFFCURVE",
"523 891 CURVE",
"486 891 LINE",
"486 863 OFFCURVE",
"470 835 OFFCURVE",
"438 835 CURVE SMOOTH",
"399 835 OFFCURVE",
"351 894 OFFCURVE",
"293 894 CURVE SMOOTH",
"242 894 OFFCURVE",
"211 854 OFFCURVE",
"211 792 CURVE",
"248 792 LINE",
"248 820 OFFCURVE",
"264 848 OFFCURVE",
"296 848 CURVE SMOOTH"
);
},
{
closed = 1;
nodes = (
"590 705 LINE",
"590 93 LINE",
"137 705 LINE",
"93 705 LINE",
"93 0 LINE",
"144 0 LINE",
"144 613 LINE",
"598 0 LINE",
"641 0 LINE",
"641 705 LINE"
);
}
);
width = 734;
}
);
unicode = 00D1;
},
{
glyphname = O;
lastChange = "2017-11-14 17:14:40 +0000";
layers = (
{
anchors = (
{
name = mark0;
position = "{377, 0}";
},
{
name = mark1;
position = "{482, 10}";
},
{
name = mark2;
position = "{377, 705}";
},
{
name = mark3;
position = "{378, 353}";
},
{
name = mark4;
position = "{407, 705}";
}
);
hints = (
{
place = "{65, 57}";
},
{
place = "{633, 57}";
},
{
horizontal = 1;
place = "{-8, 50}";
},
{
horizontal = 1;
place = "{663, 50}";
}
);
layerId = UUID0;
paths = (
{
closed = 1;
nodes = (
"570 -8 OFFCURVE",
"690 130 OFFCURVE",
"690 353 CURVE SMOOTH",
"690 576 OFFCURVE",
"571 713 OFFCURVE",
"377 713 CURVE SMOOTH",
"183 713 OFFCURVE",
"65 576 OFFCURVE",
"65 352 CURVE SMOOTH",
"65 130 OFFCURVE",
"185 -8 OFFCURVE",
"377 -8 CURVE SMOOTH"
);
},
{
closed = 1;
nodes = (
"216 42 OFFCURVE",
"122 156 OFFCURVE",
"122 353 CURVE SMOOTH",
"122 550 OFFCURVE",
"216 663 OFFCURVE",
"377 663 CURVE SMOOTH",
"540 663 OFFCURVE",
"633 551 OFFCURVE",
"633 353 CURVE SMOOTH",
"633 155 OFFCURVE",
"539 42 OFFCURVE",
"377 42 CURVE SMOOTH"
);
}
);
width = 755;
}
);
leftKerningGroup = C;
rightKerningGroup = D;
unicode = 004F;
},
{
glyphname = Oacute;
lastChange = "2017-11-14 17:14:40 +0000";
layers = (
{
anchors = (
{
name = mark0;
position = "{377, 0}";
},
{
name = mark1;
position = "{482, 10}";
},
{
name = mark2;
position = "{377, 865}";
},
{
name = mark3;
position = "{378, 353}";
},
{
name = mark4;
position = "{407, 705}";
}
);
hints = (
{
place = "{65, 57}";
},
{
place = "{633, 57}";
},
{
horizontal = 1;
place = "{-8, 50}";
},
{
horizontal = 1;
place = "{663, 50}";
},
{
horizontal = 1;
place = "{765, 150}";
}
);
layerId = UUID0;
paths = (
{
closed = 1;
nodes = (
"398 765 LINE",
"525 915 LINE",
"456 915 LINE",
"356 765 LINE"
);
},
{
closed = 1;
nodes = (
"570 -8 OFFCURVE",
"690 130 OFFCURVE",
"690 353 CURVE SMOOTH",
"690 576 OFFCURVE",
"571 713 OFFCURVE",
"377 713 CURVE SMOOTH",
"183 713 OFFCURVE",
"65 576 OFFCURVE",
"65 352 CURVE SMOOTH",
"65 130 OFFCURVE",
"185 -8 OFFCURVE",
"377 -8 CURVE SMOOTH"
);
},
{
closed = 1;
nodes = (
"216 42 OFFCURVE",
"122 156 OFFCURVE",
"122 353 CURVE SMOOTH",
"122 550 OFFCURVE",
"216 663 OFFCURVE",
"377 663 CURVE SMOOTH",
"540 663 OFFCURVE",
"633 551 OFFCURVE",
"633 353 CURVE SMOOTH",
"633 155 OFFCURVE",
"539 42 OFFCURVE",
"377 42 CURVE SMOOTH"
);
}
);
width = 755;
}
);
leftKerningGroup = C;
rightKerningGroup = D;
unicode = 00D3;
},
{
glyphname = Obreve;
lastChange = "2017-11-14 17:14:40 +0000";
layers = (
{
anchors = (
{
name = mark0;
position = "{377, 0}";
},
{
name = mark1;
position = "{482, 10}";
},
{
name = mark2;
position = "{377, 865}";
},
{
name = mark3;
position = "{378, 353}";
},
{
name = mark4;
position = "{407, 705}";
}
);
hints = (
{
place = "{65, 57}";
},
{
place = "{633, 57}";
},
{
horizontal = 1;
place = "{-8, 50}";
},
{
horizontal = 1;
place = "{663, 50}";
},
{
horizontal = 1;
place = "{778, 46}";
}
);
layerId = UUID0;
paths = (
{
closed = 1;
nodes = (
"441 778 OFFCURVE",
"501 804 OFFCURVE",
"534 883 CURVE",
"490 902 LINE",
"456 839 OFFCURVE",
"422 824 OFFCURVE",
"377 824 CURVE SMOOTH",
"332 824 OFFCURVE",
"298 839 OFFCURVE",
"264 902 CURVE",
"220 883 LINE",
"252 804 OFFCURVE",
"313 778 OFFCURVE",
"377 778 CURVE SMOOTH"
);
},
{
closed = 1;
nodes = (
"570 -8 OFFCURVE",
"690 130 OFFCURVE",
"690 353 CURVE SMOOTH",
"690 576 OFFCURVE",
"571 713 OFFCURVE",
"377 713 CURVE SMOOTH",
"183 713 OFFCURVE",
"65 576 OFFCURVE",
"65 352 CURVE SMOOTH",
"65 130 OFFCURVE",
"185 -8 OFFCURVE",
"377 -8 CURVE SMOOTH"
);
},
{
closed = 1;
nodes = (
"216 42 OFFCURVE",
"122 156 OFFCURVE",
"122 353 CURVE SMOOTH",
"122 550 OFFCURVE",
"216 663 OFFCURVE",
"377 663 CURVE SMOOTH",
"540 663 OFFCURVE",
"633 551 OFFCURVE",
"633 353 CURVE SMOOTH",
"633 155 OFFCURVE",
"539 42 OFFCURVE",
"377 42 CURVE SMOOTH"
);
}
);
width = 755;
}
);
leftKerningGroup = C;
rightKerningGroup = D;
unicode = 014E;
},
{
glyphname = Ocircumflex;
lastChange = "2017-11-14 17:14:40 +0000";
layers = (
{
anchors = (
{
name = mark0;
position = "{377, 0}";
},
{
name = mark1;
position = "{482, 10}";
},
{
name = mark2;
position = "{377, 865}";
},
{
name = mark3;
position = "{378, 353}";
},
{
name = mark4;
position = "{407, 705}";
}
);
hints = (
{
place = "{65, 57}";
},
{
place = "{633, 57}";
},
{
horizontal = 1;
place = "{-8, 50}";
},
{
horizontal = 1;
place = "{663, 50}";
},
{
horizontal = 1;
place = "{765, 150}";
}
);
layerId = UUID0;
paths = (
{
closed = 1;
nodes = (
"300 765 LINE",
"377 875 LINE",
"454 765 LINE",
"512 765 LINE",
"398 915 LINE",
"356 915 LINE",
"242 765 LINE"
);
},
{
closed = 1;
nodes = (
"570 -8 OFFCURVE",
"690 130 OFFCURVE",
"690 353 CURVE SMOOTH",
"690 576 OFFCURVE",
"571 713 OFFCURVE",
"377 713 CURVE SMOOTH",
"183 713 OFFCURVE",
"65 576 OFFCURVE",
"65 352 CURVE SMOOTH",
"65 130 OFFCURVE",
"185 -8 OFFCURVE",
"377 -8 CURVE SMOOTH"
);
},
{
closed = 1;
nodes = (
"216 42 OFFCURVE",
"122 156 OFFCURVE",
"122 353 CURVE SMOOTH",
"122 550 OFFCURVE",
"216 663 OFFCURVE",
"377 663 CURVE SMOOTH",
"540 663 OFFCURVE",
"633 551 OFFCURVE",
"633 353 CURVE SMOOTH",
"633 155 OFFCURVE",
"539 42 OFFCURVE",
"377 42 CURVE SMOOTH"
);
}
);
width = 755;
}
);
leftKerningGroup = C;
rightKerningGroup = D;
unicode = 00D4;
},
{
glyphname = Odieresis;
lastChange = "2017-11-14 17:14:40 +0000";
layers = (
{
anchors = (
{
name = mark0;
position = "{377, 0}";
},
{
name = mark1;
position = "{482, 10}";
},
{
name = mark2;
position = "{377, 865}";
},
{
name = mark3;
position = "{378, 353}";
},
{
name = mark4;
position = "{407, 705}";
}
);
hints = (
{
place = "{65, 57}";
},
{
place = "{260, 70}";
},
{
place = "{424, 70}";
},
{
place = "{633, 57}";
},
{
horizontal = 1;
place = "{-8, 50}";
},
{
horizontal = 1;
place = "{663, 50}";
},
{
horizontal = 1;
place = "{807, 68}";
}
);
layerId = UUID0;
paths = (
{
closed = 1;
nodes = (
"260 875 LINE",
"260 807 LINE",
"330 807 LINE",
"330 875 LINE"
);
},
{
closed = 1;
nodes = (
"424 875 LINE",
"424 807 LINE",
"494 807 LINE",
"494 875 LINE"
);
},
{
closed = 1;
nodes = (
"570 -8 OFFCURVE",
"690 130 OFFCURVE",
"690 353 CURVE SMOOTH",
"690 576 OFFCURVE",
"571 713 OFFCURVE",
"377 713 CURVE SMOOTH",
"183 713 OFFCURVE",
"65 576 OFFCURVE",
"65 352 CURVE SMOOTH",
"65 130 OFFCURVE",
"185 -8 OFFCURVE",
"377 -8 CURVE SMOOTH"
);
},
{
closed = 1;
nodes = (
"216 42 OFFCURVE",
"122 156 OFFCURVE",
"122 353 CURVE SMOOTH",
"122 550 OFFCURVE",
"216 663 OFFCURVE",
"377 663 CURVE SMOOTH",
"540 663 OFFCURVE",
"633 551 OFFCURVE",
"633 353 CURVE SMOOTH",
"633 155 OFFCURVE",
"539 42 OFFCURVE",
"377 42 CURVE SMOOTH"
);
}
);
width = 755;
}
);
leftKerningGroup = C;
rightKerningGroup = D;
unicode = 00D6;
},
{
glyphname = Ograve;
lastChange = "2017-11-14 17:14:40 +0000";
layers = (
{
anchors = (
{
name = mark0;
position = "{377, 0}";
},
{
name = mark1;
position = "{482, 10}";
},
{
name = mark2;
position = "{377, 865}";
},
{
name = mark3;
position = "{378, 353}";
},
{
name = mark4;
position = "{407, 705}";
}
);
hints = (
{
place = "{65, 57}";
},
{
place = "{633, 57}";
},
{
horizontal = 1;
place = "{-8, 50}";
},
{
horizontal = 1;
place = "{663, 50}";
},
{
horizontal = 1;
place = "{765, 150}";
}
);
layerId = UUID0;
paths = (
{
closed = 1;
nodes = (
"356 765 LINE",
"398 765 LINE",
"298 915 LINE",
"229 915 LINE"
);
},
{
closed = 1;
nodes = (
"570 -8 OFFCURVE",
"690 130 OFFCURVE",
"690 353 CURVE SMOOTH",
"690 576 OFFCURVE",
"571 713 OFFCURVE",
"377 713 CURVE SMOOTH",
"183 713 OFFCURVE",
"65 576 OFFCURVE",
"65 352 CURVE SMOOTH",
"65 130 OFFCURVE",
"185 -8 OFFCURVE",
"377 -8 CURVE SMOOTH"
);
},
{
closed = 1;
nodes = (
"216 42 OFFCURVE",
"122 156 OFFCURVE",
"122 353 CURVE SMOOTH",
"122 550 OFFCURVE",
"216 663 OFFCURVE",
"377 663 CURVE SMOOTH",
"540 663 OFFCURVE",
"633 551 OFFCURVE",
"633 353 CURVE SMOOTH",
"633 155 OFFCURVE",
"539 42 OFFCURVE",
"377 42 CURVE SMOOTH"
);
}
);
width = 755;
}
);
leftKerningGroup = C;
rightKerningGroup = D;
unicode = 00D2;
},
{
glyphname = Ohorn;
lastChange = "2017-11-14 17:14:40 +0000";
layers = (
{
anchors = (
{
name = mark0;
position = "{378, 0}";
},
{
name = mark1;
position = "{0, 0}";
},
{
name = mark2;
position = "{377, 705}";
},
{
name = mark3;
position = "{0, 0}";
},
{
name = mark4;
position = "{0, 0}";
}
);
hints = (
{
place = "{65, 57}";
},
{
place = "{633, 57}";
},
{
place = "{640, 50}";
},
{
horizontal = 1;
place = "{-8, 50}";
},
{
horizontal = 1;
place = "{663, 42}";
},
{
horizontal = 1;
place = "{663, 50}";
}
);
layerId = UUID0;
paths = (
{
closed = 1;
nodes = (
"690 831 LINE",
"640 831 LINE",
"640 818 LINE SMOOTH",
"640 737 OFFCURVE",
"608 706 OFFCURVE",
"522 705 CURVE SMOOTH",
"482 705 OFFCURVE",
"429 713 OFFCURVE",
"381 713 CURVE SMOOTH",
"183 713 OFFCURVE",
"65 576 OFFCURVE",
"65 352 CURVE SMOOTH",
"65 130 OFFCURVE",
"186 -8 OFFCURVE",
"377 -8 CURVE SMOOTH",
"569 -8 OFFCURVE",
"690 130 OFFCURVE",
"690 353 CURVE SMOOTH",
"690 497 OFFCURVE",
"641 605 OFFCURVE",
"550 663 CURVE",
"639 669 OFFCURVE",
"690 722 OFFCURVE",
"690 809 CURVE"
);
},
{
closed = 1;
nodes = (
"633 155 OFFCURVE",
"539 42 OFFCURVE",
"377 42 CURVE SMOOTH",
"216 42 OFFCURVE",
"122 156 OFFCURVE",
"122 353 CURVE SMOOTH",
"122 550 OFFCURVE",
"216 663 OFFCURVE",
"377 663 CURVE SMOOTH",
"540 663 OFFCURVE",
"633 551 OFFCURVE",
"633 353 CURVE SMOOTH"
);
}
);
width = 755;
}
);
leftKerningGroup = C;
rightKerningGroup = D;
unicode = 01A0;
},
{
glyphname = Ohungarumlaut;
lastChange = "2017-11-14 17:14:40 +0000";
layers = (
{
anchors = (
{
name = mark0;
position = "{377, 0}";
},
{
name = mark1;
position = "{482, 10}";
},
{
name = mark2;
position = "{377, 865}";
},
{
name = mark3;
position = "{378, 353}";
},
{
name = mark4;
position = "{407, 705}";
}
);
hints = (
{
place = "{65, 57}";
},
{
place = "{633, 57}";
},
{
horizontal = 1;
place = "{-8, 50}";
},
{
horizontal = 1;
place = "{663, 50}";
},
{
horizontal = 1;
place = "{765, 150}";
}
);
layerId = UUID0;
paths = (
{
closed = 1;
nodes = (
"337 765 LINE",
"434 915 LINE",
"375 915 LINE",
"305 765 LINE"
);
},
{
closed = 1;
nodes = (
"449 765 LINE",
"546 915 LINE",
"487 915 LINE",
"417 765 LINE"
);
},
{
closed = 1;
nodes = (
"570 -8 OFFCURVE",
"690 130 OFFCURVE",
"690 353 CURVE SMOOTH",
"690 576 OFFCURVE",
"571 713 OFFCURVE",
"377 713 CURVE SMOOTH",
"183 713 OFFCURVE",
"65 576 OFFCURVE",
"65 352 CURVE SMOOTH",
"65 130 OFFCURVE",
"185 -8 OFFCURVE",
"377 -8 CURVE SMOOTH"
);
},
{
closed = 1;
nodes = (
"216 42 OFFCURVE",
"122 156 OFFCURVE",
"122 353 CURVE SMOOTH",
"122 550 OFFCURVE",
"216 663 OFFCURVE",
"377 663 CURVE SMOOTH",
"540 663 OFFCURVE",
"633 551 OFFCURVE",
"633 353 CURVE SMOOTH",
"633 155 OFFCURVE",
"539 42 OFFCURVE",
"377 42 CURVE SMOOTH"
);
}
);
width = 755;
}
);
leftKerningGroup = C;
rightKerningGroup = D;
unicode = 0150;
},
{
glyphname = Omacron;
lastChange = "2017-11-14 17:14:40 +0000";
layers = (
{
anchors = (
{
name = mark0;
position = "{377, 0}";
},
{
name = mark1;
position = "{482, 10}";
},
{
name = mark2;
position = "{377, 865}";
},
{
name = mark3;
position = "{378, 353}";
},
{
name = mark4;
position = "{407, 705}";
}
);
hints = (
{
place = "{65, 57}";
},
{
place = "{633, 57}";
},
{
horizontal = 1;
place = "{-8, 50}";
},
{
horizontal = 1;
place = "{663, 50}";
},
{
horizontal = 1;
place = "{817, 48}";
}
);
layerId = UUID0;
paths = (
{
closed = 1;
nodes = (
"230 817 LINE",
"524 817 LINE",
"524 865 LINE",
"230 865 LINE"
);
},
{
closed = 1;
nodes = (
"570 -8 OFFCURVE",
"690 130 OFFCURVE",
"690 353 CURVE SMOOTH",
"690 576 OFFCURVE",
"571 713 OFFCURVE",
"377 713 CURVE SMOOTH",
"183 713 OFFCURVE",
"65 576 OFFCURVE",
"65 352 CURVE SMOOTH",
"65 130 OFFCURVE",
"185 -8 OFFCURVE",
"377 -8 CURVE SMOOTH"
);
},
{
closed = 1;
nodes = (
"216 42 OFFCURVE",
"122 156 OFFCURVE",
"122 353 CURVE SMOOTH",
"122 550 OFFCURVE",
"216 663 OFFCURVE",
"377 663 CURVE SMOOTH",
"540 663 OFFCURVE",
"633 551 OFFCURVE",
"633 353 CURVE SMOOTH",
"633 155 OFFCURVE",
"539 42 OFFCURVE",
"377 42 CURVE SMOOTH"
);
}
);
width = 755;
}
);
leftKerningGroup = C;
rightKerningGroup = D;
unicode = 014C;
},
{
glyphname = Oslash;
lastChange = "2017-11-14 17:14:40 +0000";
layers = (
{
anchors = (
{
name = mark0;
position = "{377, 0}";
},
{
name = mark1;
position = "{0, 0}";
},
{
name = mark2;
position = "{377, 705}";
},
{
name = mark3;
position = "{0, 0}";
},
{
name = mark4;
position = "{0, 0}";
}
);
hints = (
{
place = "{65, 57}";
},
{
place = "{633, 57}";
},
{
horizontal = 1;
place = "{-8, 50}";
},
{
horizontal = 1;
place = "{-16, 21}";
target = up;
type = BottomGhost;
},
{
horizontal = 1;
place = "{663, 50}";
},
{
horizontal = 1;
place = "{721, -20}";
target = down;
type = TopGhost;
}
);
layerId = UUID0;
paths = (
{
closed = 1;
nodes = (
"619 721 LINE",
"579 744 LINE",
"538 673 LINE",
"493 699 OFFCURVE",
"439 713 OFFCURVE",
"377 713 CURVE SMOOTH",
"183 713 OFFCURVE",
"65 576 OFFCURVE",
"65 352 CURVE SMOOTH",
"65 222 OFFCURVE",
"106 120 OFFCURVE",
"180 59 CURVE",
"136 -16 LINE",
"176 -39 LINE",
"217 32 LINE",
"262 6 OFFCURVE",
"316 -8 OFFCURVE",
"377 -8 CURVE SMOOTH",
"570 -8 OFFCURVE",
"690 130 OFFCURVE",
"690 353 CURVE SMOOTH",
"690 484 OFFCURVE",
"649 585 OFFCURVE",
"576 647 CURVE"
);
},
{
closed = 1;
nodes = (
"122 550 OFFCURVE",
"216 663 OFFCURVE",
"377 663 CURVE SMOOTH",
"430 663 OFFCURVE",
"475 651 OFFCURVE",
"512 629 CURVE",
"206 105 LINE",
"152 158 OFFCURVE",
"122 242 OFFCURVE",
"122 353 CURVE SMOOTH"
);
},
{
closed = 1;
nodes = (
"325 42 OFFCURVE",
"280 54 OFFCURVE",
"243 76 CURVE",
"549 601 LINE",
"604 548 OFFCURVE",
"633 464 OFFCURVE",
"633 353 CURVE SMOOTH",
"633 155 OFFCURVE",
"539 42 OFFCURVE",
"377 42 CURVE SMOOTH"
);
}
);
width = 755;
}
);
leftKerningGroup = C;
rightKerningGroup = D;
unicode = 00D8;
},
{
glyphname = Oslashacute;
lastChange = "2017-11-14 17:14:40 +0000";
layers = (
{
anchors = (
{
name = mark0;
position = "{377, 0}";
},
{
name = mark1;
position = "{0, 0}";
},
{
name = mark2;
position = "{377, 865}";
},
{
name = mark3;
position = "{0, 0}";
},
{
name = mark4;
position = "{0, 0}";
}
);
hints = (
{
place = "{65, 57}";
},
{
place = "{633, 57}";
},
{
horizontal = 1;
place = "{-8, 50}";
},
{
horizontal = 1;
place = "{-16, 21}";
target = up;
type = BottomGhost;
},
{
horizontal = 1;
place = "{663, 50}";
},
{
horizontal = 1;
place = "{721, -20}";
target = down;
type = TopGhost;
},
{
horizontal = 1;
place = "{765, 150}";
}
);
layerId = UUID0;
paths = (
{
closed = 1;
nodes = (
"525 915 LINE",
"456 915 LINE",
"356 765 LINE",
"398 765 LINE"
);
},
{
closed = 1;
nodes = (
"619 721 LINE",
"579 744 LINE",
"538 673 LINE",
"493 699 OFFCURVE",
"439 713 OFFCURVE",
"377 713 CURVE SMOOTH",
"183 713 OFFCURVE",
"65 576 OFFCURVE",
"65 352 CURVE SMOOTH",
"65 222 OFFCURVE",
"106 120 OFFCURVE",
"180 59 CURVE",
"136 -16 LINE",
"176 -39 LINE",
"217 32 LINE",
"262 6 OFFCURVE",
"316 -8 OFFCURVE",
"377 -8 CURVE SMOOTH",
"570 -8 OFFCURVE",
"690 130 OFFCURVE",
"690 353 CURVE SMOOTH",
"690 484 OFFCURVE",
"649 585 OFFCURVE",
"576 647 CURVE"
);
},
{
closed = 1;
nodes = (
"122 550 OFFCURVE",
"216 663 OFFCURVE",
"377 663 CURVE SMOOTH",
"430 663 OFFCURVE",
"475 651 OFFCURVE",
"512 629 CURVE",
"206 105 LINE",
"152 158 OFFCURVE",
"122 242 OFFCURVE",
"122 353 CURVE SMOOTH"
);
},
{
closed = 1;
nodes = (
"325 42 OFFCURVE",
"280 54 OFFCURVE",
"243 76 CURVE",
"549 601 LINE",
"604 548 OFFCURVE",
"633 464 OFFCURVE",
"633 353 CURVE SMOOTH",
"633 155 OFFCURVE",
"539 42 OFFCURVE",
"377 42 CURVE SMOOTH"
);
}
);
width = 755;
}
);
leftKerningGroup = C;
rightKerningGroup = D;
unicode = 01FE;
},
{
glyphname = Otilde;
lastChange = "2017-11-14 17:14:40 +0000";
layers = (
{
anchors = (
{
name = mark0;
position = "{377, 0}";
},
{
name = mark1;
position = "{482, 10}";
},
{
name = mark2;
position = "{377, 865}";
},
{
name = mark3;
position = "{378, 353}";
},
{
name = mark4;
position = "{407, 705}";
}
);
hints = (
{
place = "{65, 57}";
},
{
place = "{221, 37}";
},
{
place = "{496, 37}";
},
{
place = "{633, 57}";
},
{
horizontal = 1;
place = "{-8, 50}";
},
{
horizontal = 1;
place = "{663, 50}";
},
{
horizontal = 1;
place = "{789, 46}";
},
{
horizontal = 1;
place = "{848, 46}";
}
);
layerId = UUID0;
paths = (
{
closed = 1;
nodes = (
"258 792 LINE",
"258 820 OFFCURVE",
"274 848 OFFCURVE",
"306 848 CURVE SMOOTH",
"345 848 OFFCURVE",
"393 789 OFFCURVE",
"451 789 CURVE SMOOTH",
"502 789 OFFCURVE",
"533 829 OFFCURVE",
"533 891 CURVE",
"496 891 LINE",
"496 863 OFFCURVE",
"480 835 OFFCURVE",
"448 835 CURVE SMOOTH",
"409 835 OFFCURVE",
"361 894 OFFCURVE",
"303 894 CURVE SMOOTH",
"252 894 OFFCURVE",
"221 854 OFFCURVE",
"221 792 CURVE"
);
},
{
closed = 1;
nodes = (
"570 -8 OFFCURVE",
"690 130 OFFCURVE",
"690 353 CURVE SMOOTH",
"690 576 OFFCURVE",
"571 713 OFFCURVE",
"377 713 CURVE SMOOTH",
"183 713 OFFCURVE",
"65 576 OFFCURVE",
"65 352 CURVE SMOOTH",
"65 130 OFFCURVE",
"185 -8 OFFCURVE",
"377 -8 CURVE SMOOTH"
);
},
{
closed = 1;
nodes = (
"216 42 OFFCURVE",
"122 156 OFFCURVE",
"122 353 CURVE SMOOTH",
"122 550 OFFCURVE",
"216 663 OFFCURVE",
"377 663 CURVE SMOOTH",
"540 663 OFFCURVE",
"633 551 OFFCURVE",
"633 353 CURVE SMOOTH",
"633 155 OFFCURVE",
"539 42 OFFCURVE",
"377 42 CURVE SMOOTH"
);
}
);
width = 755;
}
);
leftKerningGroup = C;
rightKerningGroup = D;
unicode = 00D5;
},
{
glyphname = OE;
lastChange = "2017-11-14 17:14:40 +0000";
layers = (
{
anchors = (
{
name = mark0;
position = "{532, 0}";
},
{
name = mark1;
position = "{0, 0}";
},
{
name = mark2;
position = "{531, 705}";
},
{
name = mark3;
position = "{0, 0}";
},
{
name = mark4;
position = "{0, 0}";
}
);
hints = (
{
place = "{65, 57}";
},
{
place = "{561, 53}";
},
{
horizontal = 1;
place = "{0, 48}";
},
{
horizontal = 1;
place = "{334, 48}";
},
{
horizontal = 1;
place = "{657, 48}";
}
);
layerId = UUID0;
paths = (
{
closed = 1;
nodes = (
"992 0 LINE",
"992 48 LINE",
"614 48 LINE",
"614 334 LINE",
"972 334 LINE",
"972 382 LINE",
"614 382 LINE",
"614 657 LINE",
"992 657 LINE",
"992 705 LINE",
"412 705 LINE SMOOTH",
"189 705 OFFCURVE",
"65 579 OFFCURVE",
"65 353 CURVE SMOOTH",
"65 127 OFFCURVE",
"190 0 OFFCURVE",
"412 0 CURVE"
);
},
{
closed = 1;
nodes = (
"415 48 LINE",
"221 48 OFFCURVE",
"122 151 OFFCURVE",
"122 353 CURVE SMOOTH",
"122 555 OFFCURVE",
"220 657 OFFCURVE",
"415 657 CURVE SMOOTH",
"561 657 LINE",
"561 48 LINE"
);
}
);
width = 1046;
}
);
leftKerningGroup = C;
rightKerningGroup = AE;
unicode = 0152;
},
{
glyphname = P;
lastChange = "2017-11-14 17:14:40 +0000";
layers = (
{
anchors = (
{
name = mark0;
position = "{318, 0}";
},
{
name = mark1;
position = "{0, 0}";
},
{
name = mark2;
position = "{318, 705}";
},
{
name = mark3;
position = "{0, 0}";
},
{
name = mark4;
position = "{0, 0}";
}
);
hints = (
{
place = "{93, 54}";
},
{
place = "{530, 55}";
},
{
horizontal = 1;
place = "{0, 21}";
target = up;
type = BottomGhost;
},
{
horizontal = 1;
place = "{299, 48}";
},
{
horizontal = 1;
place = "{657, 48}";
}
);
layerId = UUID0;
paths = (
{
closed = 1;
nodes = (
"93 0 LINE",
"147 0 LINE",
"147 299 LINE",
"355 299 LINE SMOOTH",
"500 299 OFFCURVE",
"585 373 OFFCURVE",
"585 503 CURVE SMOOTH",
"585 633 OFFCURVE",
"501 705 OFFCURVE",
"355 705 CURVE SMOOTH",
"93 705 LINE"
);
},
{
closed = 1;
nodes = (
"147 347 LINE",
"147 657 LINE",
"352 657 LINE SMOOTH",
"471 657 OFFCURVE",
"530 605 OFFCURVE",
"530 503 CURVE SMOOTH",
"530 401 OFFCURVE",
"471 347 OFFCURVE",
"352 347 CURVE SMOOTH"
);
}
);
width = 636;
}
);
unicode = 0050;
},
{
glyphname = Thorn;
lastChange = "2017-11-14 17:14:40 +0000";
layers = (
{
anchors = (
{
name = mark0;
position = "{318, 0}";
},
{
name = mark1;
position = "{0, 0}";
},
{
name = mark2;
position = "{318, 705}";
},
{
name = mark3;
position = "{0, 0}";
},
{
name = mark4;
position = "{0, 0}";
}
);
hints = (
{
place = "{93, 54}";
},
{
place = "{530, 55}";
},
{
horizontal = 1;
place = "{0, 21}";
target = up;
type = BottomGhost;
},
{
horizontal = 1;
place = "{172, 48}";
},
{
horizontal = 1;
place = "{497, 48}";
},
{
horizontal = 1;
place = "{705, -20}";
target = down;
type = TopGhost;
}
);
layerId = UUID0;
paths = (
{
closed = 1;
nodes = (
"147 545 LINE",
"147 705 LINE",
"93 705 LINE",
"93 0 LINE",
"147 0 LINE",
"147 172 LINE",
"365 172 LINE SMOOTH",
"504 172 OFFCURVE",
"585 241 OFFCURVE",
"585 360 CURVE SMOOTH",
"585 478 OFFCURVE",
"506 545 OFFCURVE",
"365 545 CURVE"
);
},
{
closed = 1;
nodes = (
"147 220 LINE",
"147 497 LINE",
"362 497 LINE SMOOTH",
"476 497 OFFCURVE",
"530 453 OFFCURVE",
"530 360 CURVE SMOOTH",
"530 266 OFFCURVE",
"475 220 OFFCURVE",
"362 220 CURVE"
);
}
);
width = 636;
}
);
unicode = 00DE;
},
{
glyphname = Q;
lastChange = "2017-11-14 17:14:40 +0000";
layers = (
{
anchors = (
{
name = mark0;
position = "{377, 0}";
},
{
name = mark1;
position = "{0, 0}";
},
{
name = mark2;
position = "{377, 705}";
},
{
name = mark3;
position = "{0, 0}";
},
{
name = mark4;
position = "{0, 0}";
}
);
hints = (
{
place = "{65, 57}";
},
{
place = "{633, 57}";
},
{
horizontal = 1;
place = "{-193, 21}";
target = up;
type = BottomGhost;
},
{
horizontal = 1;
place = "{-8, 50}";
},
{
horizontal = 1;
place = "{7, 35}";
},
{
horizontal = 1;
place = "{663, 50}";
}
);
layerId = UUID0;
paths = (
{
closed = 1;
nodes = (
"613 49 OFFCURVE",
"690 175 OFFCURVE",
"690 353 CURVE SMOOTH",
"690 576 OFFCURVE",
"570 713 OFFCURVE",
"377 713 CURVE SMOOTH",
"184 713 OFFCURVE",
"65 576 OFFCURVE",
"65 352 CURVE SMOOTH",
"65 130 OFFCURVE",
"186 -8 OFFCURVE",
"377 -8 CURVE SMOOTH",
"432 -8 OFFCURVE",
"474 -30 OFFCURVE",
"499 -71 CURVE SMOOTH",
"574 -193 LINE",
"618 -167 LINE",
"555 -64 LINE SMOOTH",
"531 -24 OFFCURVE",
"510 -3 OFFCURVE",
"482 7 CURVE"
);
},
{
closed = 1;
nodes = (
"122 550 OFFCURVE",
"216 663 OFFCURVE",
"377 663 CURVE SMOOTH",
"540 663 OFFCURVE",
"633 551 OFFCURVE",
"633 353 CURVE SMOOTH",
"633 155 OFFCURVE",
"539 42 OFFCURVE",
"377 42 CURVE SMOOTH",
"216 42 OFFCURVE",
"122 156 OFFCURVE",
"122 353 CURVE SMOOTH"
);
}
);
width = 755;
}
);
leftKerningGroup = C;
rightKerningGroup = D;
unicode = 0051;
},
{
glyphname = R;
lastChange = "2017-11-14 17:14:40 +0000";
layers = (
{
anchors = (
{
name = mark0;
position = "{336, 0}";
},
{
name = mark1;
position = "{0, 0}";
},
{
name = mark2;
position = "{336, 705}";
},
{
name = mark3;
position = "{0, 0}";
},
{
name = mark4;
position = "{0, 0}";
}
);
hints = (
{
place = "{93, 54}";
},
{
place = "{546, 55}";
},
{
horizontal = 1;
place = "{0, 21}";
target = up;
type = BottomGhost;
},
{
horizontal = 1;
place = "{308, 48}";
},
{
horizontal = 1;
place = "{657, 48}";
}
);
layerId = UUID0;
paths = (
{
closed = 1;
nodes = (
"500 238 LINE",
"477 281 OFFCURVE",
"452 306 OFFCURVE",
"417 317 CURVE",
"534 330 OFFCURVE",
"601 398 OFFCURVE",
"601 508 CURVE SMOOTH",
"601 638 OFFCURVE",
"517 705 OFFCURVE",
"371 705 CURVE SMOOTH",
"93 705 LINE",
"93 0 LINE",
"147 0 LINE",
"147 308 LINE",
"300 308 LINE SMOOTH",
"374 308 OFFCURVE",
"414 291 OFFCURVE",
"448 226 CURVE SMOOTH",
"567 0 LINE",
"627 0 LINE"
);
},
{
closed = 1;
nodes = (
"147 356 LINE",
"147 657 LINE",
"369 657 LINE SMOOTH",
"489 657 OFFCURVE",
"546 609 OFFCURVE",
"546 509 CURVE SMOOTH",
"546 407 OFFCURVE",
"487 356 OFFCURVE",
"369 356 CURVE SMOOTH"
);
}
);
width = 680;
}
);
rightKerningGroup = R;
unicode = 0052;
},
{
glyphname = Racute;
lastChange = "2017-11-14 17:14:40 +0000";
layers = (
{
anchors = (
{
name = mark0;
position = "{336, 0}";
},
{
name = mark1;
position = "{0, 0}";
},
{
name = mark2;
position = "{336, 865}";
},
{
name = mark3;
position = "{0, 0}";
},
{
name = mark4;
position = "{0, 0}";
}
);
hints = (
{
place = "{93, 54}";
},
{
place = "{546, 55}";
},
{
horizontal = 1;
place = "{0, 21}";
target = up;
type = BottomGhost;
},
{
horizontal = 1;
place = "{308, 48}";
},
{
horizontal = 1;
place = "{657, 48}";
},
{
horizontal = 1;
place = "{765, 150}";
}
);
layerId = UUID0;
paths = (
{
closed = 1;
nodes = (
"484 915 LINE",
"415 915 LINE",
"315 765 LINE",
"357 765 LINE"
);
},
{
closed = 1;
nodes = (
"500 238 LINE",
"477 281 OFFCURVE",
"452 306 OFFCURVE",
"417 317 CURVE",
"534 330 OFFCURVE",
"601 398 OFFCURVE",
"601 508 CURVE SMOOTH",
"601 638 OFFCURVE",
"517 705 OFFCURVE",
"371 705 CURVE SMOOTH",
"93 705 LINE",
"93 0 LINE",
"147 0 LINE",
"147 308 LINE",
"300 308 LINE SMOOTH",
"374 308 OFFCURVE",
"414 291 OFFCURVE",
"448 226 CURVE SMOOTH",
"567 0 LINE",
"627 0 LINE"
);
},
{
closed = 1;
nodes = (
"147 356 LINE",
"147 657 LINE",
"369 657 LINE SMOOTH",
"489 657 OFFCURVE",
"546 609 OFFCURVE",
"546 509 CURVE SMOOTH",
"546 407 OFFCURVE",
"487 356 OFFCURVE",
"369 356 CURVE SMOOTH"
);
}
);
width = 680;
}
);
rightKerningGroup = R;
unicode = 0154;
},
{
glyphname = Rcaron;
lastChange = "2017-11-14 17:14:40 +0000";
layers = (
{
anchors = (
{
name = mark0;
position = "{336, 0}";
},
{
name = mark1;
position = "{0, 0}";
},
{
name = mark2;
position = "{336, 865}";
},
{
name = mark3;
position = "{0, 0}";
},
{
name = mark4;
position = "{0, 0}";
}
);
hints = (
{
place = "{93, 54}";
},
{
place = "{546, 55}";
},
{
horizontal = 1;
place = "{0, 21}";
target = up;
type = BottomGhost;
},
{
horizontal = 1;
place = "{308, 48}";
},
{
horizontal = 1;
place = "{657, 48}";
},
{
horizontal = 1;
place = "{765, 150}";
}
);
layerId = UUID0;
paths = (
{
closed = 1;
nodes = (
"357 765 LINE",
"471 915 LINE",
"413 915 LINE",
"336 805 LINE",
"259 915 LINE",
"201 915 LINE",
"315 765 LINE"
);
},
{
closed = 1;
nodes = (
"500 238 LINE",
"477 281 OFFCURVE",
"452 306 OFFCURVE",
"417 317 CURVE",
"534 330 OFFCURVE",
"601 398 OFFCURVE",
"601 508 CURVE SMOOTH",
"601 638 OFFCURVE",
"517 705 OFFCURVE",
"371 705 CURVE SMOOTH",
"93 705 LINE",
"93 0 LINE",
"147 0 LINE",
"147 308 LINE",
"300 308 LINE SMOOTH",
"374 308 OFFCURVE",
"414 291 OFFCURVE",
"448 226 CURVE SMOOTH",
"567 0 LINE",
"627 0 LINE"
);
},
{
closed = 1;
nodes = (
"147 356 LINE",
"147 657 LINE",
"369 657 LINE SMOOTH",
"489 657 OFFCURVE",
"546 609 OFFCURVE",
"546 509 CURVE SMOOTH",
"546 407 OFFCURVE",
"487 356 OFFCURVE",
"369 356 CURVE SMOOTH"
);
}
);
width = 680;
}
);
rightKerningGroup = R;
unicode = 0158;
},
{
glyphname = Rcommaaccent;
lastChange = "2017-11-14 17:14:40 +0000";
layers = (
{
anchors = (
{
name = mark0;
position = "{336, -170}";
},
{
name = mark1;
position = "{0, 0}";
},
{
name = mark2;
position = "{336, 705}";
},
{
name = mark3;
position = "{0, 0}";
},
{
name = mark4;
position = "{0, 0}";
}
);
hints = (
{
place = "{93, 54}";
},
{
place = "{297, 78}";
},
{
place = "{546, 55}";
},
{
horizontal = 1;
place = "{-145, 70}";
},
{
horizontal = 1;
place = "{0, 21}";
target = up;
type = BottomGhost;
},
{
horizontal = 1;
place = "{308, 48}";
},
{
horizontal = 1;
place = "{657, 48}";
}
);
layerId = UUID0;
paths = (
{
closed = 1;
nodes = (
"500 238 LINE",
"477 281 OFFCURVE",
"452 306 OFFCURVE",
"417 317 CURVE",
"534 330 OFFCURVE",
"601 398 OFFCURVE",
"601 508 CURVE SMOOTH",
"601 638 OFFCURVE",
"517 705 OFFCURVE",
"371 705 CURVE SMOOTH",
"93 705 LINE",
"93 0 LINE",
"147 0 LINE",
"147 308 LINE",
"300 308 LINE SMOOTH",
"374 308 OFFCURVE",
"414 291 OFFCURVE",
"448 226 CURVE SMOOTH",
"567 0 LINE",
"627 0 LINE"
);
},
{
closed = 1;
nodes = (
"147 356 LINE",
"147 657 LINE",
"369 657 LINE SMOOTH",
"489 657 OFFCURVE",
"546 609 OFFCURVE",
"546 509 CURVE SMOOTH",
"546 407 OFFCURVE",
"487 356 OFFCURVE",
"369 356 CURVE SMOOTH"
);
},
{
closed = 1;
nodes = (
"297 -145 LINE",
"334 -145 LINE",
"333 -174 OFFCURVE",
"326 -199 OFFCURVE",
"298 -230 CURVE",
"328 -253 LINE",
"365 -216 OFFCURVE",
"375 -176 OFFCURVE",
"375 -130 CURVE SMOOTH",
"375 -75 LINE",
"297 -75 LINE"
);
}
);
width = 680;
}
);
rightKerningGroup = R;
unicode = 0156;
},
{
glyphname = S;
lastChange = "2017-11-14 17:14:40 +0000";
layers = (
{
anchors = (
{
name = mark0;
position = "{307, 0}";
},
{
name = mark1;
position = "{0, 0}";
},
{
name = mark2;
position = "{302, 705}";
},
{
name = mark3;
position = "{0, 0}";
},
{
name = mark4;
position = "{0, 0}";
}
);
hints = (
{
place = "{62, 55}";
},
{
place = "{501, 55}";
},
{
horizontal = 1;
place = "{-8, 50}";
},
{
horizontal = 1;
place = "{663, 50}";
}
);
layerId = UUID0;
paths = (
{
closed = 1;
nodes = (
"459 -8 OFFCURVE",
"556 70 OFFCURVE",
"556 185 CURVE SMOOTH",
"556 325 OFFCURVE",
"412 345 OFFCURVE",
"289 375 CURVE SMOOTH",
"197 397 OFFCURVE",
"117 426 OFFCURVE",
"117 515 CURVE SMOOTH",
"117 608 OFFCURVE",
"188 663 OFFCURVE",
"310 663 CURVE SMOOTH",
"393 663 OFFCURVE",
"458 637 OFFCURVE",
"525 576 CURVE",
"549 620 LINE",
"489 681 OFFCURVE",
"406 713 OFFCURVE",
"310 713 CURVE SMOOTH",
"158 713 OFFCURVE",
"62 634 OFFCURVE",
"62 515 CURVE SMOOTH",
"62 374 OFFCURVE",
"195 345 OFFCURVE",
"314 317 CURVE SMOOTH",
"412 294 OFFCURVE",
"501 271 OFFCURVE",
"501 186 CURVE SMOOTH",
"501 94 OFFCURVE",
"431 42 OFFCURVE",
"309 42 CURVE SMOOTH",
"209 42 OFFCURVE",
"145 65 OFFCURVE",
"74 129 CURVE",
"50 85 LINE",
"117 21 OFFCURVE",
"199 -8 OFFCURVE",
"309 -8 CURVE SMOOTH"
);
}
);
width = 604;
}
);
leftKerningGroup = S;
rightKerningGroup = S;
unicode = 0053;
},
{
glyphname = Sacute;
lastChange = "2017-11-14 17:14:40 +0000";
layers = (
{
anchors = (
{
name = mark0;
position = "{307, 0}";
},
{
name = mark1;
position = "{0, 0}";
},
{
name = mark2;
position = "{302, 865}";
},
{
name = mark3;
position = "{0, 0}";
},
{
name = mark4;
position = "{0, 0}";
}
);
hints = (
{
place = "{62, 55}";
},
{
place = "{501, 55}";
},
{
horizontal = 1;
place = "{-8, 50}";
},
{
horizontal = 1;
place = "{663, 50}";
},
{
horizontal = 1;
place = "{765, 150}";
}
);
layerId = UUID0;
paths = (
{
closed = 1;
nodes = (
"323 765 LINE",
"450 915 LINE",
"381 915 LINE",
"281 765 LINE"
);
},
{
closed = 1;
nodes = (
"459 -8 OFFCURVE",
"556 70 OFFCURVE",
"556 185 CURVE SMOOTH",
"556 325 OFFCURVE",
"412 345 OFFCURVE",
"289 375 CURVE SMOOTH",
"197 397 OFFCURVE",
"117 426 OFFCURVE",
"117 515 CURVE SMOOTH",
"117 608 OFFCURVE",
"188 663 OFFCURVE",
"310 663 CURVE SMOOTH",
"393 663 OFFCURVE",
"458 637 OFFCURVE",
"525 576 CURVE",
"549 620 LINE",
"489 681 OFFCURVE",
"406 713 OFFCURVE",
"310 713 CURVE SMOOTH",
"158 713 OFFCURVE",
"62 634 OFFCURVE",
"62 515 CURVE SMOOTH",
"62 374 OFFCURVE",
"195 345 OFFCURVE",
"314 317 CURVE SMOOTH",
"412 294 OFFCURVE",
"501 271 OFFCURVE",
"501 186 CURVE SMOOTH",
"501 94 OFFCURVE",
"431 42 OFFCURVE",
"309 42 CURVE SMOOTH",
"209 42 OFFCURVE",
"145 65 OFFCURVE",
"74 129 CURVE",
"50 85 LINE",
"117 21 OFFCURVE",
"199 -8 OFFCURVE",
"309 -8 CURVE SMOOTH"
);
}
);
width = 604;
}
);
leftKerningGroup = S;
rightKerningGroup = S;
unicode = 015A;
},
{
glyphname = Scaron;
lastChange = "2017-11-14 17:14:40 +0000";
layers = (
{
anchors = (
{
name = mark0;
position = "{307, 0}";
},
{
name = mark1;
position = "{0, 0}";
},
{
name = mark2;
position = "{302, 865}";
},
{
name = mark3;
position = "{0, 0}";
},
{
name = mark4;
position = "{0, 0}";
}
);
hints = (
{
place = "{62, 55}";
},
{
place = "{501, 55}";
},
{
horizontal = 1;
place = "{-8, 50}";
},
{
horizontal = 1;
place = "{663, 50}";
},
{
horizontal = 1;
place = "{765, 150}";
}
);
layerId = UUID0;
paths = (
{
closed = 1;
nodes = (
"379 915 LINE",
"302 805 LINE",
"225 915 LINE",
"167 915 LINE",
"281 765 LINE",
"323 765 LINE",
"437 915 LINE"
);
},
{
closed = 1;
nodes = (
"459 -8 OFFCURVE",
"556 70 OFFCURVE",
"556 185 CURVE SMOOTH",
"556 325 OFFCURVE",
"412 345 OFFCURVE",
"289 375 CURVE SMOOTH",
"197 397 OFFCURVE",
"117 426 OFFCURVE",
"117 515 CURVE SMOOTH",
"117 608 OFFCURVE",
"188 663 OFFCURVE",
"310 663 CURVE SMOOTH",
"393 663 OFFCURVE",
"458 637 OFFCURVE",
"525 576 CURVE",
"549 620 LINE",
"489 681 OFFCURVE",
"406 713 OFFCURVE",
"310 713 CURVE SMOOTH",
"158 713 OFFCURVE",
"62 634 OFFCURVE",
"62 515 CURVE SMOOTH",
"62 374 OFFCURVE",
"195 345 OFFCURVE",
"314 317 CURVE SMOOTH",
"412 294 OFFCURVE",
"501 271 OFFCURVE",
"501 186 CURVE SMOOTH",
"501 94 OFFCURVE",
"431 42 OFFCURVE",
"309 42 CURVE SMOOTH",
"209 42 OFFCURVE",
"145 65 OFFCURVE",
"74 129 CURVE",
"50 85 LINE",
"117 21 OFFCURVE",
"199 -8 OFFCURVE",
"309 -8 CURVE SMOOTH"
);
}
);
width = 604;
}
);
leftKerningGroup = S;
rightKerningGroup = S;
unicode = 0160;
},
{
glyphname = Scedilla;
lastChange = "2017-11-14 17:14:40 +0000";
layers = (
{
anchors = (
{
name = mark0;
position = "{307, 0}";
},
{
name = mark1;
position = "{0, 0}";
},
{
name = mark2;
position = "{302, 705}";
},
{
name = mark3;
position = "{0, 0}";
},
{
name = mark4;
position = "{0, 0}";
}
);
hints = (
{
place = "{62, 55}";
},
{
place = "{270, 48}";
},
{
place = "{370, 48}";
},
{
place = "{500, 55}";
},
{
horizontal = 1;
place = "{-191, 42}";
},
{
horizontal = 1;
place = "{-191, 21}";
target = up;
type = BottomGhost;
},
{
horizontal = 1;
place = "{-80, 39}";
},
{
horizontal = 1;
place = "{-8, 50}";
},
{
horizontal = 1;
place = "{-7, 49}";
},
{
horizontal = 1;
place = "{663, 50}";
}
);
layerId = UUID0;
paths = (
{
closed = 1;
nodes = (
"556 325 OFFCURVE",
"412 345 OFFCURVE",
"289 375 CURVE SMOOTH",
"197 397 OFFCURVE",
"117 426 OFFCURVE",
"117 515 CURVE SMOOTH",
"117 608 OFFCURVE",
"188 663 OFFCURVE",
"310 663 CURVE SMOOTH",
"393 663 OFFCURVE",
"458 637 OFFCURVE",
"525 576 CURVE",
"549 620 LINE",
"489 681 OFFCURVE",
"406 713 OFFCURVE",
"310 713 CURVE SMOOTH",
"158 713 OFFCURVE",
"62 634 OFFCURVE",
"62 515 CURVE SMOOTH",
"62 374 OFFCURVE",
"195 345 OFFCURVE",
"314 317 CURVE SMOOTH",
"412 294 OFFCURVE",
"501 271 OFFCURVE",
"501 186 CURVE SMOOTH",
"501 94 OFFCURVE",
"431 42 OFFCURVE",
"309 42 CURVE SMOOTH",
"209 42 OFFCURVE",
"145 65 OFFCURVE",
"74 129 CURVE",
"50 85 LINE",
"110 28 OFFCURVE",
"181 -1 OFFCURVE",
"274 -7 CURVE",
"267 -76 LINE",
"286 -91 LINE",
"301 -85 OFFCURVE",
"317 -80 OFFCURVE",
"335 -80 CURVE SMOOTH",
"359 -80 OFFCURVE",
"371 -92 OFFCURVE",
"371 -110 CURVE SMOOTH",
"371 -133 OFFCURVE",
"352 -149 OFFCURVE",
"312 -149 CURVE SMOOTH",
"288 -149 OFFCURVE",
"264 -146 OFFCURVE",
"238 -135 CURVE",
"224 -172 LINE",
"249 -186 OFFCURVE",
"285 -191 OFFCURVE",
"310 -191 CURVE SMOOTH",
"379 -191 OFFCURVE",
"419 -156 OFFCURVE",
"419 -110 CURVE SMOOTH",
"419 -61 OFFCURVE",
"380 -41 OFFCURVE",
"345 -41 CURVE SMOOTH",
"335 -41 OFFCURVE",
"326 -42 OFFCURVE",
"317 -44 CURVE",
"321 -8 LINE",
"464 -4 OFFCURVE",
"556 73 OFFCURVE",
"556 185 CURVE SMOOTH"
);
}
);
width = 604;
}
);
leftKerningGroup = S;
rightKerningGroup = S;
unicode = 015E;
},
{
glyphname = Scircumflex;
lastChange = "2017-11-14 17:14:40 +0000";
layers = (
{
anchors = (
{
name = mark0;
position = "{307, 0}";
},
{
name = mark1;
position = "{0, 0}";
},
{
name = mark2;
position = "{302, 865}";
},
{
name = mark3;
position = "{0, 0}";
},
{
name = mark4;
position = "{0, 0}";
}
);
hints = (
{
place = "{62, 55}";
},
{
place = "{501, 55}";
},
{
horizontal = 1;
place = "{-8, 50}";
},
{
horizontal = 1;
place = "{663, 50}";
},
{
horizontal = 1;
place = "{765, 150}";
}
);
layerId = UUID0;
paths = (
{
closed = 1;
nodes = (
"225 765 LINE",
"302 875 LINE",
"379 765 LINE",
"437 765 LINE",
"323 915 LINE",
"281 915 LINE",
"167 765 LINE"
);
},
{
closed = 1;
nodes = (
"459 -8 OFFCURVE",
"556 70 OFFCURVE",
"556 185 CURVE SMOOTH",
"556 325 OFFCURVE",
"412 345 OFFCURVE",
"289 375 CURVE SMOOTH",
"197 397 OFFCURVE",
"117 426 OFFCURVE",
"117 515 CURVE SMOOTH",
"117 608 OFFCURVE",
"188 663 OFFCURVE",
"310 663 CURVE SMOOTH",
"393 663 OFFCURVE",
"458 637 OFFCURVE",
"525 576 CURVE",
"549 620 LINE",
"489 681 OFFCURVE",
"406 713 OFFCURVE",
"310 713 CURVE SMOOTH",
"158 713 OFFCURVE",
"62 634 OFFCURVE",
"62 515 CURVE SMOOTH",
"62 374 OFFCURVE",
"195 345 OFFCURVE",
"314 317 CURVE SMOOTH",
"412 294 OFFCURVE",
"501 271 OFFCURVE",
"501 186 CURVE SMOOTH",
"501 94 OFFCURVE",
"431 42 OFFCURVE",
"309 42 CURVE SMOOTH",
"209 42 OFFCURVE",
"145 65 OFFCURVE",
"74 129 CURVE",
"50 85 LINE",
"117 21 OFFCURVE",
"199 -8 OFFCURVE",
"309 -8 CURVE SMOOTH"
);
}
);
width = 604;
}
);
leftKerningGroup = S;
rightKerningGroup = S;
unicode = 015C;
},
{
glyphname = Scommaaccent;
lastChange = "2017-11-14 17:14:40 +0000";
layers = (
{
anchors = (
{
name = mark0;
position = "{307, -170}";
},
{
name = mark1;
position = "{0, 0}";
},
{
name = mark2;
position = "{302, 705}";
},
{
name = mark3;
position = "{0, 0}";
},
{
name = mark4;
position = "{0, 0}";
}
);
hints = (
{
place = "{62, 55}";
},
{
place = "{268, 78}";
},
{
place = "{501, 55}";
},
{
horizontal = 1;
place = "{-145, 70}";
},
{
horizontal = 1;
place = "{-8, 50}";
},
{
horizontal = 1;
place = "{663, 50}";
}
);
layerId = UUID0;
paths = (
{
closed = 1;
nodes = (
"197 397 OFFCURVE",
"117 426 OFFCURVE",
"117 515 CURVE SMOOTH",
"117 608 OFFCURVE",
"188 663 OFFCURVE",
"310 663 CURVE SMOOTH",
"393 663 OFFCURVE",
"458 637 OFFCURVE",
"525 576 CURVE",
"549 620 LINE",
"489 681 OFFCURVE",
"406 713 OFFCURVE",
"310 713 CURVE SMOOTH",
"158 713 OFFCURVE",
"62 634 OFFCURVE",
"62 515 CURVE SMOOTH",
"62 374 OFFCURVE",
"195 345 OFFCURVE",
"314 317 CURVE SMOOTH",
"412 294 OFFCURVE",
"501 271 OFFCURVE",
"501 186 CURVE SMOOTH",
"501 94 OFFCURVE",
"431 42 OFFCURVE",
"309 42 CURVE SMOOTH",
"209 42 OFFCURVE",
"145 65 OFFCURVE",
"74 129 CURVE",
"50 85 LINE",
"117 21 OFFCURVE",
"199 -8 OFFCURVE",
"309 -8 CURVE SMOOTH",
"459 -8 OFFCURVE",
"556 70 OFFCURVE",
"556 185 CURVE SMOOTH",
"556 325 OFFCURVE",
"412 345 OFFCURVE",
"289 375 CURVE SMOOTH"
);
},
{
closed = 1;
nodes = (
"268 -145 LINE",
"305 -145 LINE",
"304 -174 OFFCURVE",
"297 -199 OFFCURVE",
"269 -230 CURVE",
"299 -253 LINE",
"336 -216 OFFCURVE",
"346 -176 OFFCURVE",
"346 -130 CURVE SMOOTH",
"346 -75 LINE",
"268 -75 LINE"
);
}
);
width = 604;
}
);
leftKerningGroup = S;
rightKerningGroup = S;
unicode = 0218;
},
{
glyphname = T;
lastChange = "2017-11-14 17:14:40 +0000";
layers = (
{
anchors = (
{
name = mark0;
position = "{294, 0}";
},
{
name = mark1;
position = "{0, 0}";
},
{
name = mark2;
position = "{294, 705}";
},
{
name = mark3;
position = "{294, 353}";
},
{
name = mark4;
position = "{0, 0}";
}
);
hints = (
{
place = "{267, 54}";
},
{
horizontal = 1;
place = "{0, 21}";
target = up;
type = BottomGhost;
},
{
horizontal = 1;
place = "{657, 48}";
}
);
layerId = UUID0;
paths = (
{
closed = 1;
nodes = (
"267 0 LINE",
"321 0 LINE",
"321 657 LINE",
"576 657 LINE",
"576 705 LINE",
"12 705 LINE",
"12 657 LINE",
"267 657 LINE"
);
}
);
width = 588;
}
);
leftKerningGroup = T;
rightKerningGroup = T;
unicode = 0054;
},
{
glyphname = Tbar;
lastChange = "2017-11-14 17:14:40 +0000";
layers = (
{
hints = (
{
place = "{267, 54}";
},
{
horizontal = 1;
place = "{0, 21}";
target = up;
type = BottomGhost;
},
{
horizontal = 1;
place = "{335, 46}";
},
{
horizontal = 1;
place = "{657, 48}";
}
);
layerId = UUID0;
paths = (
{
closed = 1;
nodes = (
"576 657 LINE",
"576 705 LINE",
"12 705 LINE",
"12 657 LINE",
"267 657 LINE",
"267 381 LINE",
"122 381 LINE",
"122 335 LINE",
"267 335 LINE",
"267 0 LINE",
"321 0 LINE",
"321 335 LINE",
"466 335 LINE",
"466 381 LINE",
"321 381 LINE",
"321 657 LINE"
);
}
);
width = 588;
}
);
leftKerningGroup = T;
rightKerningGroup = T;
unicode = 0166;
},
{
glyphname = Tcaron;
lastChange = "2017-11-14 17:14:40 +0000";
layers = (
{
anchors = (
{
name = mark0;
position = "{294, 0}";
},
{
name = mark1;
position = "{0, 0}";
},
{
name = mark2;
position = "{294, 865}";
},
{
name = mark3;
position = "{294, 353}";
},
{
name = mark4;
position = "{0, 0}";
}
);
hints = (
{
place = "{267, 54}";
},
{
horizontal = 1;
place = "{0, 21}";
target = up;
type = BottomGhost;
},
{
horizontal = 1;
place = "{657, 48}";
},
{
horizontal = 1;
place = "{765, 150}";
}
);
layerId = UUID0;
paths = (
{
closed = 1;
nodes = (
"371 915 LINE",
"294 805 LINE",
"217 915 LINE",
"159 915 LINE",
"273 765 LINE",
"315 765 LINE",
"429 915 LINE"
);
},
{
closed = 1;
nodes = (
"267 0 LINE",
"321 0 LINE",
"321 657 LINE",
"576 657 LINE",
"576 705 LINE",
"12 705 LINE",
"12 657 LINE",
"267 657 LINE"
);
}
);
width = 588;
}
);
leftKerningGroup = T;
rightKerningGroup = T;
unicode = 0164;
},
{
glyphname = U;
lastChange = "2017-11-14 17:14:40 +0000";
layers = (
{
anchors = (
{
name = mark0;
position = "{359, 0}";
},
{
name = mark1;
position = "{471, 10}";
},
{
name = mark2;
position = "{359, 705}";
},
{
name = mark3;
position = "{0, 0}";
},
{
name = mark4;
position = "{603, 705}";
}
);
hints = (
{
place = "{88, 54}";
},
{
place = "{576, 54}";
},
{
horizontal = 1;
place = "{-8, 50}";
},
{
horizontal = 1;
place = "{705, -20}";
target = down;
type = TopGhost;
}
);
layerId = UUID0;
paths = (
{
closed = 1;
nodes = (
"537 -8 OFFCURVE",
"630 87 OFFCURVE",
"630 270 CURVE SMOOTH",
"630 705 LINE",
"576 705 LINE",
"576 263 LINE SMOOTH",
"576 116 OFFCURVE",
"502 42 OFFCURVE",
"359 42 CURVE SMOOTH",
"215 42 OFFCURVE",
"142 116 OFFCURVE",
"142 263 CURVE SMOOTH",
"142 705 LINE",
"88 705 LINE",
"88 270 LINE SMOOTH",
"88 87 OFFCURVE",
"181 -8 OFFCURVE",
"359 -8 CURVE SMOOTH"
);
}
);
width = 718;
}
);
leftKerningGroup = U;
rightKerningGroup = U;
unicode = 0055;
},
{
glyphname = Uacute;
lastChange = "2017-11-14 17:14:40 +0000";
layers = (
{
anchors = (
{
name = mark0;
position = "{359, 0}";
},
{
name = mark1;
position = "{471, 10}";
},
{
name = mark2;
position = "{359, 865}";
},
{
name = mark3;
position = "{0, 0}";
},
{
name = mark4;
position = "{603, 705}";
}
);
hints = (
{
place = "{88, 54}";
},
{
place = "{576, 54}";
},
{
horizontal = 1;
place = "{-8, 50}";
},
{
horizontal = 1;
place = "{705, -20}";
target = down;
type = TopGhost;
},
{
horizontal = 1;
place = "{765, 150}";
}
);
layerId = UUID0;
paths = (
{
closed = 1;
nodes = (
"380 765 LINE",
"507 915 LINE",
"438 915 LINE",
"338 765 LINE"
);
},
{
closed = 1;
nodes = (
"537 -8 OFFCURVE",
"630 87 OFFCURVE",
"630 270 CURVE SMOOTH",
"630 705 LINE",
"576 705 LINE",
"576 263 LINE SMOOTH",
"576 116 OFFCURVE",
"502 42 OFFCURVE",
"359 42 CURVE SMOOTH",
"215 42 OFFCURVE",
"142 116 OFFCURVE",
"142 263 CURVE SMOOTH",
"142 705 LINE",
"88 705 LINE",
"88 270 LINE SMOOTH",
"88 87 OFFCURVE",
"181 -8 OFFCURVE",
"359 -8 CURVE SMOOTH"
);
}
);
width = 718;
}
);
leftKerningGroup = U;
rightKerningGroup = U;
unicode = 00DA;
},
{
glyphname = Ubreve;
lastChange = "2017-11-14 17:14:40 +0000";
layers = (
{
anchors = (
{
name = mark0;
position = "{359, 0}";
},
{
name = mark1;
position = "{471, 10}";
},
{
name = mark2;
position = "{359, 865}";
},
{
name = mark3;
position = "{0, 0}";
},
{
name = mark4;
position = "{603, 705}";
}
);
hints = (
{
place = "{88, 54}";
},
{
place = "{576, 54}";
},
{
horizontal = 1;
place = "{-8, 50}";
},
{
horizontal = 1;
place = "{705, -20}";
target = down;
type = TopGhost;
},
{
horizontal = 1;
place = "{778, 46}";
}
);
layerId = UUID0;
paths = (
{
closed = 1;
nodes = (
"423 778 OFFCURVE",
"483 804 OFFCURVE",
"516 883 CURVE",
"472 902 LINE",
"438 839 OFFCURVE",
"404 824 OFFCURVE",
"359 824 CURVE SMOOTH",
"314 824 OFFCURVE",
"280 839 OFFCURVE",
"246 902 CURVE",
"202 883 LINE",
"234 804 OFFCURVE",
"295 778 OFFCURVE",
"359 778 CURVE SMOOTH"
);
},
{
closed = 1;
nodes = (
"537 -8 OFFCURVE",
"630 87 OFFCURVE",
"630 270 CURVE SMOOTH",
"630 705 LINE",
"576 705 LINE",
"576 263 LINE SMOOTH",
"576 116 OFFCURVE",
"502 42 OFFCURVE",
"359 42 CURVE SMOOTH",
"215 42 OFFCURVE",
"142 116 OFFCURVE",
"142 263 CURVE SMOOTH",
"142 705 LINE",
"88 705 LINE",
"88 270 LINE SMOOTH",
"88 87 OFFCURVE",
"181 -8 OFFCURVE",
"359 -8 CURVE SMOOTH"
);
}
);
width = 718;
}
);
leftKerningGroup = U;
rightKerningGroup = U;
unicode = 016C;
},
{
glyphname = Ucircumflex;
lastChange = "2017-11-14 17:14:40 +0000";
layers = (
{
anchors = (
{
name = mark0;
position = "{359, 0}";
},
{
name = mark1;
position = "{471, 10}";
},
{
name = mark2;
position = "{359, 865}";
},
{
name = mark3;
position = "{0, 0}";
},
{
name = mark4;
position = "{603, 705}";
}
);
hints = (
{
place = "{88, 54}";
},
{
place = "{576, 54}";
},
{
horizontal = 1;
place = "{-8, 50}";
},
{
horizontal = 1;
place = "{705, -20}";
target = down;
type = TopGhost;
},
{
horizontal = 1;
place = "{765, 150}";
}
);
layerId = UUID0;
paths = (
{
closed = 1;
nodes = (
"282 765 LINE",
"359 875 LINE",
"436 765 LINE",
"494 765 LINE",
"380 915 LINE",
"338 915 LINE",
"224 765 LINE"
);
},
{
closed = 1;
nodes = (
"537 -8 OFFCURVE",
"630 87 OFFCURVE",
"630 270 CURVE SMOOTH",
"630 705 LINE",
"576 705 LINE",
"576 263 LINE SMOOTH",
"576 116 OFFCURVE",
"502 42 OFFCURVE",
"359 42 CURVE SMOOTH",
"215 42 OFFCURVE",
"142 116 OFFCURVE",
"142 263 CURVE SMOOTH",
"142 705 LINE",
"88 705 LINE",
"88 270 LINE SMOOTH",
"88 87 OFFCURVE",
"181 -8 OFFCURVE",
"359 -8 CURVE SMOOTH"
);
}
);
width = 718;
}
);
leftKerningGroup = U;
rightKerningGroup = U;
unicode = 00DB;
},
{
glyphname = Udieresis;
lastChange = "2017-11-14 17:14:40 +0000";
layers = (
{
anchors = (
{
name = mark0;
position = "{359, 0}";
},
{
name = mark1;
position = "{471, 10}";
},
{
name = mark2;
position = "{359, 865}";
},
{
name = mark3;
position = "{0, 0}";
},
{
name = mark4;
position = "{603, 705}";
}
);
hints = (
{
place = "{88, 54}";
},
{
place = "{242, 70}";
},
{
place = "{406, 70}";
},
{
place = "{576, 54}";
},
{
horizontal = 1;
place = "{-8, 50}";
},
{
horizontal = 1;
place = "{705, -20}";
target = down;
type = TopGhost;
},
{
horizontal = 1;
place = "{807, 68}";
}
);
layerId = UUID0;
paths = (
{
closed = 1;
nodes = (
"242 875 LINE",
"242 807 LINE",
"312 807 LINE",
"312 875 LINE"
);
},
{
closed = 1;
nodes = (
"406 875 LINE",
"406 807 LINE",
"476 807 LINE",
"476 875 LINE"
);
},
{
closed = 1;
nodes = (
"537 -8 OFFCURVE",
"630 87 OFFCURVE",
"630 270 CURVE SMOOTH",
"630 705 LINE",
"576 705 LINE",
"576 263 LINE SMOOTH",
"576 116 OFFCURVE",
"502 42 OFFCURVE",
"359 42 CURVE SMOOTH",
"215 42 OFFCURVE",
"142 116 OFFCURVE",
"142 263 CURVE SMOOTH",
"142 705 LINE",
"88 705 LINE",
"88 270 LINE SMOOTH",
"88 87 OFFCURVE",
"181 -8 OFFCURVE",
"359 -8 CURVE SMOOTH"
);
}
);
width = 718;
}
);
leftKerningGroup = U;
rightKerningGroup = U;
unicode = 00DC;
},
{
glyphname = Ugrave;
lastChange = "2017-11-14 17:14:40 +0000";
layers = (
{
anchors = (
{
name = mark0;
position = "{359, 0}";
},
{
name = mark1;
position = "{471, 10}";
},
{
name = mark2;
position = "{359, 865}";
},
{
name = mark3;
position = "{0, 0}";
},
{
name = mark4;
position = "{603, 705}";
}
);
hints = (
{
place = "{88, 54}";
},
{
place = "{576, 54}";
},
{
horizontal = 1;
place = "{-8, 50}";
},
{
horizontal = 1;
place = "{705, -20}";
target = down;
type = TopGhost;
},
{
horizontal = 1;
place = "{765, 150}";
}
);
layerId = UUID0;
paths = (
{
closed = 1;
nodes = (
"338 765 LINE",
"380 765 LINE",
"280 915 LINE",
"211 915 LINE"
);
},
{
closed = 1;
nodes = (
"537 -8 OFFCURVE",
"630 87 OFFCURVE",
"630 270 CURVE SMOOTH",
"630 705 LINE",
"576 705 LINE",
"576 263 LINE SMOOTH",
"576 116 OFFCURVE",
"502 42 OFFCURVE",
"359 42 CURVE SMOOTH",
"215 42 OFFCURVE",
"142 116 OFFCURVE",
"142 263 CURVE SMOOTH",
"142 705 LINE",
"88 705 LINE",
"88 270 LINE SMOOTH",
"88 87 OFFCURVE",
"181 -8 OFFCURVE",
"359 -8 CURVE SMOOTH"
);
}
);
width = 718;
}
);
leftKerningGroup = U;
rightKerningGroup = U;
unicode = 00D9;
},
{
glyphname = Uhorn;
lastChange = "2017-11-14 17:14:40 +0000";
layers = (
{
anchors = (
{
name = mark0;
position = "{359, 0}";
},
{
name = mark1;
position = "{0, 0}";
},
{
name = mark2;
position = "{359, 705}";
},
{
name = mark3;
position = "{0, 0}";
},
{
name = mark4;
position = "{0, 0}";
}
);
hints = (
{
place = "{88, 54}";
},
{
place = "{576, 54}";
},
{
place = "{699, 50}";
},
{
horizontal = 1;
place = "{-8, 50}";
},
{
horizontal = 1;
place = "{666, 39}";
},
{
horizontal = 1;
place = "{705, -20}";
target = down;
type = TopGhost;
}
);
layerId = UUID0;
paths = (
{
closed = 1;
nodes = (
"699 831 LINE",
"699 818 LINE SMOOTH",
"699 738 OFFCURVE",
"668 706 OFFCURVE",
"592 705 CURVE SMOOTH",
"576 705 LINE",
"576 263 LINE SMOOTH",
"576 116 OFFCURVE",
"502 42 OFFCURVE",
"359 42 CURVE SMOOTH",
"215 42 OFFCURVE",
"142 116 OFFCURVE",
"142 263 CURVE SMOOTH",
"142 705 LINE",
"88 705 LINE",
"88 270 LINE SMOOTH",
"88 87 OFFCURVE",
"181 -8 OFFCURVE",
"359 -8 CURVE SMOOTH",
"537 -8 OFFCURVE",
"630 87 OFFCURVE",
"630 270 CURVE SMOOTH",
"630 666 LINE",
"706 678 OFFCURVE",
"749 728 OFFCURVE",
"749 809 CURVE SMOOTH",
"749 831 LINE"
);
}
);
width = 718;
}
);
leftKerningGroup = U;
rightKerningGroup = Uhorn;
unicode = 01AF;
},
{
glyphname = Uhungarumlaut;
lastChange = "2017-11-14 17:14:40 +0000";
layers = (
{
anchors = (
{
name = mark0;
position = "{359, 0}";
},
{
name = mark1;
position = "{471, 10}";
},
{
name = mark2;
position = "{359, 865}";
},
{
name = mark3;
position = "{0, 0}";
},
{
name = mark4;
position = "{603, 705}";
}
);
hints = (
{
place = "{88, 54}";
},
{
place = "{576, 54}";
},
{
horizontal = 1;
place = "{-8, 50}";
},
{
horizontal = 1;
place = "{705, -20}";
target = down;
type = TopGhost;
},
{
horizontal = 1;
place = "{765, 150}";
}
);
layerId = UUID0;
paths = (
{
closed = 1;
nodes = (
"319 765 LINE",
"416 915 LINE",
"357 915 LINE",
"287 765 LINE"
);
},
{
closed = 1;
nodes = (
"431 765 LINE",
"528 915 LINE",
"469 915 LINE",
"399 765 LINE"
);
},
{
closed = 1;
nodes = (
"537 -8 OFFCURVE",
"630 87 OFFCURVE",
"630 270 CURVE SMOOTH",
"630 705 LINE",
"576 705 LINE",
"576 263 LINE SMOOTH",
"576 116 OFFCURVE",
"502 42 OFFCURVE",
"359 42 CURVE SMOOTH",
"215 42 OFFCURVE",
"142 116 OFFCURVE",
"142 263 CURVE SMOOTH",
"142 705 LINE",
"88 705 LINE",
"88 270 LINE SMOOTH",
"88 87 OFFCURVE",
"181 -8 OFFCURVE",
"359 -8 CURVE SMOOTH"
);
}
);
width = 718;
}
);
leftKerningGroup = U;
rightKerningGroup = U;
unicode = 0170;
},
{
glyphname = Umacron;
lastChange = "2017-11-14 17:14:40 +0000";
layers = (
{
anchors = (
{
name = mark0;
position = "{359, 0}";
},
{
name = mark1;
position = "{471, 10}";
},
{
name = mark2;
position = "{359, 865}";
},
{
name = mark3;
position = "{0, 0}";
},
{
name = mark4;
position = "{603, 705}";
}
);
hints = (
{
place = "{88, 54}";
},
{
place = "{576, 54}";
},
{
horizontal = 1;
place = "{-8, 50}";
},
{
horizontal = 1;
place = "{705, -20}";
target = down;
type = TopGhost;
},
{
horizontal = 1;
place = "{817, 48}";
}
);
layerId = UUID0;
paths = (
{
closed = 1;
nodes = (
"212 817 LINE",
"506 817 LINE",
"506 865 LINE",
"212 865 LINE"
);
},
{
closed = 1;
nodes = (
"537 -8 OFFCURVE",
"630 87 OFFCURVE",
"630 270 CURVE SMOOTH",
"630 705 LINE",
"576 705 LINE",
"576 263 LINE SMOOTH",
"576 116 OFFCURVE",
"502 42 OFFCURVE",
"359 42 CURVE SMOOTH",
"215 42 OFFCURVE",
"142 116 OFFCURVE",
"142 263 CURVE SMOOTH",
"142 705 LINE",
"88 705 LINE",
"88 270 LINE SMOOTH",
"88 87 OFFCURVE",
"181 -8 OFFCURVE",
"359 -8 CURVE SMOOTH"
);
}
);
width = 718;
}
);
leftKerningGroup = U;
rightKerningGroup = U;
unicode = 016A;
},
{
glyphname = Uogonek;
lastChange = "2017-11-14 17:14:40 +0000";
layers = (
{
hints = (
{
place = "{88, 54}";
},
{
place = "{329, 50}";
},
{
place = "{576, 54}";
},
{
horizontal = 1;
place = "{-191, 43}";
},
{
horizontal = 1;
place = "{-8, 50}";
},
{
horizontal = 1;
place = "{705, -20}";
target = down;
type = TopGhost;
}
);
layerId = UUID0;
paths = (
{
closed = 1;
nodes = (
"576 705 LINE",
"576 263 LINE SMOOTH",
"576 116 OFFCURVE",
"502 42 OFFCURVE",
"359 42 CURVE SMOOTH",
"215 42 OFFCURVE",
"142 116 OFFCURVE",
"142 263 CURVE SMOOTH",
"142 705 LINE",
"88 705 LINE",
"88 270 LINE SMOOTH",
"88 87 OFFCURVE",
"181 -8 OFFCURVE",
"359 -8 CURVE SMOOTH",
"367 -8 LINE",
"342 -28 OFFCURVE",
"329 -54 OFFCURVE",
"329 -88 CURVE SMOOTH",
"329 -149 OFFCURVE",
"375 -191 OFFCURVE",
"442 -191 CURVE SMOOTH",
"473 -191 OFFCURVE",
"501 -183 OFFCURVE",
"522 -168 CURVE",
"506 -130 LINE",
"485 -141 OFFCURVE",
"464 -148 OFFCURVE",
"447 -148 CURVE SMOOTH",
"405 -148 OFFCURVE",
"379 -123 OFFCURVE",
"379 -82 CURVE SMOOTH",
"379 -40 OFFCURVE",
"405 -13 OFFCURVE",
"466 6 CURVE SMOOTH",
"574 40 OFFCURVE",
"630 128 OFFCURVE",
"630 270 CURVE SMOOTH",
"630 705 LINE"
);
}
);
width = 718;
}
);
leftKerningGroup = U;
rightKerningGroup = U;
unicode = 0172;
},
{
glyphname = Uring;
lastChange = "2017-11-14 17:14:40 +0000";
layers = (
{
anchors = (
{
name = mark0;
position = "{359, 0}";
},
{
name = mark1;
position = "{471, 10}";
},
{
name = mark2;
position = "{359, 865}";
},
{
name = mark3;
position = "{0, 0}";
},
{
name = mark4;
position = "{603, 705}";
}
);
hints = (
{
place = "{88, 54}";
},
{
place = "{261, 48}";
},
{
place = "{409, 48}";
},
{
place = "{576, 54}";
},
{
horizontal = 1;
place = "{-8, 50}";
},
{
horizontal = 1;
place = "{705, -20}";
target = down;
type = TopGhost;
},
{
horizontal = 1;
place = "{760, 44}";
},
{
horizontal = 1;
place = "{908, 44}";
}
);
layerId = UUID0;
paths = (
{
closed = 1;
nodes = (
"413 760 OFFCURVE",
"457 802 OFFCURVE",
"457 856 CURVE SMOOTH",
"457 910 OFFCURVE",
"413 952 OFFCURVE",
"359 952 CURVE SMOOTH",
"305 952 OFFCURVE",
"261 910 OFFCURVE",
"261 856 CURVE SMOOTH",
"261 802 OFFCURVE",
"305 760 OFFCURVE",
"359 760 CURVE SMOOTH"
);
},
{
closed = 1;
nodes = (
"330 804 OFFCURVE",
"309 827 OFFCURVE",
"309 856 CURVE SMOOTH",
"309 885 OFFCURVE",
"330 908 OFFCURVE",
"359 908 CURVE SMOOTH",
"388 908 OFFCURVE",
"409 885 OFFCURVE",
"409 856 CURVE SMOOTH",
"409 827 OFFCURVE",
"388 804 OFFCURVE",
"359 804 CURVE SMOOTH"
);
},
{
closed = 1;
nodes = (
"537 -8 OFFCURVE",
"630 87 OFFCURVE",
"630 270 CURVE SMOOTH",
"630 705 LINE",
"576 705 LINE",
"576 263 LINE SMOOTH",
"576 116 OFFCURVE",
"502 42 OFFCURVE",
"359 42 CURVE SMOOTH",
"215 42 OFFCURVE",
"142 116 OFFCURVE",
"142 263 CURVE SMOOTH",
"142 705 LINE",
"88 705 LINE",
"88 270 LINE SMOOTH",
"88 87 OFFCURVE",
"181 -8 OFFCURVE",
"359 -8 CURVE SMOOTH"
);
}
);
width = 718;
}
);
leftKerningGroup = U;
rightKerningGroup = U;
unicode = 016E;
},
{
glyphname = Utilde;
lastChange = "2017-11-14 17:14:40 +0000";
layers = (
{
anchors = (
{
name = mark0;
position = "{359, 0}";
},
{
name = mark1;
position = "{471, 10}";
},
{
name = mark2;
position = "{359, 865}";
},
{
name = mark3;
position = "{0, 0}";
},
{
name = mark4;
position = "{603, 705}";
}
);
hints = (
{
place = "{88, 54}";
},
{
place = "{203, 37}";
},
{
place = "{478, 37}";
},
{
place = "{576, 54}";
},
{
horizontal = 1;
place = "{-8, 50}";
},
{
horizontal = 1;
place = "{705, -20}";
target = down;
type = TopGhost;
},
{
horizontal = 1;
place = "{789, 46}";
},
{
horizontal = 1;
place = "{848, 46}";
}
);
layerId = UUID0;
paths = (
{
closed = 1;
nodes = (
"240 792 LINE",
"240 820 OFFCURVE",
"256 848 OFFCURVE",
"288 848 CURVE SMOOTH",
"327 848 OFFCURVE",
"375 789 OFFCURVE",
"433 789 CURVE SMOOTH",
"484 789 OFFCURVE",
"515 829 OFFCURVE",
"515 891 CURVE",
"478 891 LINE",
"478 863 OFFCURVE",
"462 835 OFFCURVE",
"430 835 CURVE SMOOTH",
"391 835 OFFCURVE",
"343 894 OFFCURVE",
"285 894 CURVE SMOOTH",
"234 894 OFFCURVE",
"203 854 OFFCURVE",
"203 792 CURVE"
);
},
{
closed = 1;
nodes = (
"537 -8 OFFCURVE",
"630 87 OFFCURVE",
"630 270 CURVE SMOOTH",
"630 705 LINE",
"576 705 LINE",
"576 263 LINE SMOOTH",
"576 116 OFFCURVE",
"502 42 OFFCURVE",
"359 42 CURVE SMOOTH",
"215 42 OFFCURVE",
"142 116 OFFCURVE",
"142 263 CURVE SMOOTH",
"142 705 LINE",
"88 705 LINE",
"88 270 LINE SMOOTH",
"88 87 OFFCURVE",
"181 -8 OFFCURVE",
"359 -8 CURVE SMOOTH"
);
}
);
width = 718;
}
);
leftKerningGroup = U;
rightKerningGroup = U;
unicode = 0168;
},
{
glyphname = V;
lastChange = "2017-11-14 17:14:40 +0000";
layers = (
{
anchors = (
{
name = mark0;
position = "{339, 0}";
},
{
name = mark1;
position = "{0, 0}";
},
{
name = mark2;
position = "{338, 705}";
},
{
name = mark3;
position = "{0, 0}";
},
{
name = mark4;
position = "{0, 0}";
}
);
hints = (
{
place = "{9, 659}";
},
{
horizontal = 1;
place = "{0, 68}";
},
{
horizontal = 1;
place = "{0, 21}";
target = up;
type = BottomGhost;
},
{
horizontal = 1;
place = "{705, -20}";
target = down;
type = TopGhost;
}
);
layerId = UUID0;
paths = (
{
closed = 1;
nodes = (
"612 705 LINE",
"339 68 LINE",
"65 705 LINE",
"9 705 LINE",
"313 0 LINE",
"363 0 LINE",
"668 705 LINE"
);
}
);
width = 676;
}
);
leftKerningGroup = V;
rightKerningGroup = V;
unicode = 0056;
},
{
glyphname = W;
lastChange = "2017-11-14 17:14:40 +0000";
layers = (
{
anchors = (
{
name = mark0;
position = "{548, 0}";
},
{
name = mark1;
position = "{0, 0}";
},
{
name = mark2;
position = "{547, 705}";
},
{
name = mark3;
position = "{0, 0}";
},
{
name = mark4;
position = "{0, 0}";
}
);
hints = (
{
place = "{39, 1017}";
},
{
horizontal = 1;
place = "{0, 77}";
},
{
horizontal = 1;
place = "{0, 21}";
target = up;
type = BottomGhost;
},
{
horizontal = 1;
place = "{619, 86}";
},
{
horizontal = 1;
place = "{705, -20}";
target = down;
type = TopGhost;
}
);
layerId = UUID0;
paths = (
{
closed = 1;
nodes = (
"1002 705 LINE",
"786 78 LINE",
"570 704 LINE",
"526 705 LINE",
"309 77 LINE",
"93 705 LINE",
"39 705 LINE",
"284 0 LINE",
"332 0 LINE",
"548 619 LINE",
"763 0 LINE",
"811 0 LINE",
"1056 705 LINE"
);
}
);
width = 1095;
}
);
leftKerningGroup = V;
rightKerningGroup = V;
unicode = 0057;
},
{
glyphname = Wacute;
lastChange = "2017-11-14 17:14:40 +0000";
layers = (
{
anchors = (
{
name = mark0;
position = "{548, 0}";
},
{
name = mark1;
position = "{0, 0}";
},
{
name = mark2;
position = "{547, 865}";
},
{
name = mark3;
position = "{0, 0}";
},
{
name = mark4;
position = "{0, 0}";
}
);
hints = (
{
place = "{39, 1017}";
},
{
horizontal = 1;
place = "{0, 77}";
},
{
horizontal = 1;
place = "{0, 21}";
target = up;
type = BottomGhost;
},
{
horizontal = 1;
place = "{619, 86}";
},
{
horizontal = 1;
place = "{705, -20}";
target = down;
type = TopGhost;
},
{
horizontal = 1;
place = "{765, 150}";
}
);
layerId = UUID0;
paths = (
{
closed = 1;
nodes = (
"695 915 LINE",
"626 915 LINE",
"526 765 LINE",
"568 765 LINE"
);
},
{
closed = 1;
nodes = (
"1002 705 LINE",
"786 78 LINE",
"570 704 LINE",
"526 705 LINE",
"309 77 LINE",
"93 705 LINE",
"39 705 LINE",
"284 0 LINE",
"332 0 LINE",
"548 619 LINE",
"763 0 LINE",
"811 0 LINE",
"1056 705 LINE"
);
}
);
width = 1095;
}
);
leftKerningGroup = V;
rightKerningGroup = V;
unicode = 1E82;
},
{
glyphname = Wcircumflex;
lastChange = "2017-11-14 17:14:40 +0000";
layers = (
{
anchors = (
{
name = mark0;
position = "{548, 0}";
},
{
name = mark1;
position = "{0, 0}";
},
{
name = mark2;
position = "{547, 865}";
},
{
name = mark3;
position = "{0, 0}";
},
{
name = mark4;
position = "{0, 0}";
}
);
hints = (
{
place = "{39, 1017}";
},
{
horizontal = 1;
place = "{0, 77}";
},
{
horizontal = 1;
place = "{0, 21}";
target = up;
type = BottomGhost;
},
{
horizontal = 1;
place = "{619, 86}";
},
{
horizontal = 1;
place = "{705, -20}";
target = down;
type = TopGhost;
},
{
horizontal = 1;
place = "{765, 150}";
}
);
layerId = UUID0;
paths = (
{
closed = 1;
nodes = (
"547 875 LINE",
"624 765 LINE",
"682 765 LINE",
"568 915 LINE",
"526 915 LINE",
"412 765 LINE",
"470 765 LINE"
);
},
{
closed = 1;
nodes = (
"1002 705 LINE",
"786 78 LINE",
"570 704 LINE",
"526 705 LINE",
"309 77 LINE",
"93 705 LINE",
"39 705 LINE",
"284 0 LINE",
"332 0 LINE",
"548 619 LINE",
"763 0 LINE",
"811 0 LINE",
"1056 705 LINE"
);
}
);
width = 1095;
}
);
leftKerningGroup = V;
rightKerningGroup = V;
unicode = 0174;
},
{
glyphname = Wdieresis;
lastChange = "2017-11-14 17:14:40 +0000";
layers = (
{
anchors = (
{
name = mark0;
position = "{548, 0}";
},
{
name = mark1;
position = "{0, 0}";
},
{
name = mark2;
position = "{547, 865}";
},
{
name = mark3;
position = "{0, 0}";
},
{
name = mark4;
position = "{0, 0}";
}
);
hints = (
{
place = "{430, 70}";
},
{
place = "{594, 70}";
},
{
horizontal = 1;
place = "{0, 77}";
},
{
horizontal = 1;
place = "{0, 21}";
target = up;
type = BottomGhost;
},
{
horizontal = 1;
place = "{619, 86}";
},
{
horizontal = 1;
place = "{705, -20}";
target = down;
type = TopGhost;
},
{
horizontal = 1;
place = "{807, 68}";
}
);
layerId = UUID0;
paths = (
{
closed = 1;
nodes = (
"500 875 LINE",
"430 875 LINE",
"430 807 LINE",
"500 807 LINE"
);
},
{
closed = 1;
nodes = (
"664 875 LINE",
"594 875 LINE",
"594 807 LINE",
"664 807 LINE"
);
},
{
closed = 1;
nodes = (
"1002 705 LINE",
"786 78 LINE",
"570 704 LINE",
"526 705 LINE",
"309 77 LINE",
"93 705 LINE",
"39 705 LINE",
"284 0 LINE",
"332 0 LINE",
"548 619 LINE",
"763 0 LINE",
"811 0 LINE",
"1056 705 LINE"
);
}
);
width = 1095;
}
);
leftKerningGroup = V;
rightKerningGroup = V;
unicode = 1E84;
},
{
glyphname = Wgrave;
lastChange = "2017-11-14 17:14:40 +0000";
layers = (
{
anchors = (
{
name = mark0;
position = "{548, 0}";
},
{
name = mark1;
position = "{0, 0}";
},
{
name = mark2;
position = "{547, 865}";
},
{
name = mark3;
position = "{0, 0}";
},
{
name = mark4;
position = "{0, 0}";
}
);
hints = (
{
place = "{39, 1017}";
},
{
horizontal = 1;
place = "{0, 77}";
},
{
horizontal = 1;
place = "{0, 21}";
target = up;
type = BottomGhost;
},
{
horizontal = 1;
place = "{619, 86}";
},
{
horizontal = 1;
place = "{705, -20}";
target = down;
type = TopGhost;
},
{
horizontal = 1;
place = "{765, 150}";
}
);
layerId = UUID0;
paths = (
{
closed = 1;
nodes = (
"568 765 LINE",
"468 915 LINE",
"399 915 LINE",
"526 765 LINE"
);
},
{
closed = 1;
nodes = (
"1002 705 LINE",
"786 78 LINE",
"570 704 LINE",
"526 705 LINE",
"309 77 LINE",
"93 705 LINE",
"39 705 LINE",
"284 0 LINE",
"332 0 LINE",
"548 619 LINE",
"763 0 LINE",
"811 0 LINE",
"1056 705 LINE"
);
}
);
width = 1095;
}
);
leftKerningGroup = V;
rightKerningGroup = V;
unicode = 1E80;
},
{
glyphname = X;
lastChange = "2017-11-14 17:14:40 +0000";
layers = (
{
anchors = (
{
name = mark0;
position = "{318, 0}";
},
{
name = mark1;
position = "{0, 0}";
},
{
name = mark2;
position = "{318, 705}";
},
{
name = mark3;
position = "{0, 0}";
},
{
name = mark4;
position = "{0, 0}";
}
);
hints = (
{
place = "{19, 597}";
},
{
horizontal = 1;
place = "{0, 21}";
target = up;
type = BottomGhost;
},
{
horizontal = 1;
place = "{705, -20}";
target = down;
type = TopGhost;
}
);
layerId = UUID0;
paths = (
{
closed = 1;
nodes = (
"349 361 LINE",
"602 705 LINE",
"539 705 LINE",
"319 403 LINE",
"98 705 LINE",
"34 705 LINE",
"287 362 LINE",
"19 0 LINE",
"84 0 LINE",
"318 320 LINE",
"552 0 LINE",
"616 0 LINE"
);
}
);
width = 635;
}
);
unicode = 0058;
},
{
glyphname = Y;
lastChange = "2017-11-14 17:14:40 +0000";
layers = (
{
anchors = (
{
name = mark0;
position = "{293, 0}";
},
{
name = mark1;
position = "{0, 0}";
},
{
name = mark2;
position = "{293, 705}";
},
{
name = mark3;
position = "{0, 0}";
},
{
name = mark4;
position = "{0, 0}";
}
);
hints = (
{
place = "{266, 54}";
},
{
horizontal = 1;
place = "{0, 21}";
target = up;
type = BottomGhost;
},
{
horizontal = 1;
place = "{705, -20}";
target = down;
type = TopGhost;
}
);
layerId = UUID0;
paths = (
{
closed = 1;
nodes = (
"591 705 LINE",
"530 705 LINE",
"294 386 LINE",
"58 705 LINE",
"-5 705 LINE",
"266 340 LINE",
"266 0 LINE",
"320 0 LINE",
"320 338 LINE"
);
}
);
width = 587;
}
);
leftKerningGroup = Y;
rightKerningGroup = Y;
unicode = 0059;
},
{
glyphname = Yacute;
lastChange = "2017-11-14 17:14:40 +0000";
layers = (
{
anchors = (
{
name = mark0;
position = "{293, 0}";
},
{
name = mark1;
position = "{0, 0}";
},
{
name = mark2;
position = "{293, 865}";
},
{
name = mark3;
position = "{0, 0}";
},
{
name = mark4;
position = "{0, 0}";
}
);
hints = (
{
place = "{266, 54}";
},
{
horizontal = 1;
place = "{0, 21}";
target = up;
type = BottomGhost;
},
{
horizontal = 1;
place = "{705, -20}";
target = down;
type = TopGhost;
},
{
horizontal = 1;
place = "{765, 150}";
}
);
layerId = UUID0;
paths = (
{
closed = 1;
nodes = (
"441 915 LINE",
"372 915 LINE",
"272 765 LINE",
"314 765 LINE"
);
},
{
closed = 1;
nodes = (
"591 705 LINE",
"530 705 LINE",
"294 386 LINE",
"58 705 LINE",
"-5 705 LINE",
"266 340 LINE",
"266 0 LINE",
"320 0 LINE",
"320 338 LINE"
);
}
);
width = 587;
}
);
leftKerningGroup = Y;
rightKerningGroup = Y;
unicode = 00DD;
},
{
glyphname = Ycircumflex;
lastChange = "2017-11-14 17:14:40 +0000";
layers = (
{
anchors = (
{
name = mark0;
position = "{293, 0}";
},
{
name = mark1;
position = "{0, 0}";
},
{
name = mark2;
position = "{293, 865}";
},
{
name = mark3;
position = "{0, 0}";
},
{
name = mark4;
position = "{0, 0}";
}
);
hints = (
{
place = "{266, 54}";
},
{
horizontal = 1;
place = "{0, 21}";
target = up;
type = BottomGhost;
},
{
horizontal = 1;
place = "{705, -20}";
target = down;
type = TopGhost;
},
{
horizontal = 1;
place = "{765, 150}";
}
);
layerId = UUID0;
paths = (
{
closed = 1;
nodes = (
"293 875 LINE",
"370 765 LINE",
"428 765 LINE",
"314 915 LINE",
"272 915 LINE",
"158 765 LINE",
"216 765 LINE"
);
},
{
closed = 1;
nodes = (
"591 705 LINE",
"530 705 LINE",
"294 386 LINE",
"58 705 LINE",
"-5 705 LINE",
"266 340 LINE",
"266 0 LINE",
"320 0 LINE",
"320 338 LINE"
);
}
);
width = 587;
}
);
leftKerningGroup = Y;
rightKerningGroup = Y;
unicode = 0176;
},
{
glyphname = Ydieresis;
lastChange = "2017-11-14 17:14:40 +0000";
layers = (
{
anchors = (
{
name = mark0;
position = "{293, 0}";
},
{
name = mark1;
position = "{0, 0}";
},
{
name = mark2;
position = "{293, 865}";
},
{
name = mark3;
position = "{0, 0}";
},
{
name = mark4;
position = "{0, 0}";
}
);
hints = (
{
place = "{176, 70}";
},
{
place = "{266, 54}";
},
{
place = "{340, 70}";
},
{
horizontal = 1;
place = "{0, 21}";
target = up;
type = BottomGhost;
},
{
horizontal = 1;
place = "{705, -20}";
target = down;
type = TopGhost;
},
{
horizontal = 1;
place = "{807, 68}";
}
);
layerId = UUID0;
paths = (
{
closed = 1;
nodes = (
"246 875 LINE",
"176 875 LINE",
"176 807 LINE",
"246 807 LINE"
);
},
{
closed = 1;
nodes = (
"410 875 LINE",
"340 875 LINE",
"340 807 LINE",
"410 807 LINE"
);
},
{
closed = 1;
nodes = (
"591 705 LINE",
"530 705 LINE",
"294 386 LINE",
"58 705 LINE",
"-5 705 LINE",
"266 340 LINE",
"266 0 LINE",
"320 0 LINE",
"320 338 LINE"
);
}
);
width = 587;
}
);
leftKerningGroup = Y;
rightKerningGroup = Y;
unicode = 0178;
},
{
glyphname = Ygrave;
lastChange = "2017-11-14 17:14:40 +0000";
layers = (
{
anchors = (
{
name = mark0;
position = "{293, 0}";
},
{
name = mark1;
position = "{0, 0}";
},
{
name = mark2;
position = "{293, 865}";
},
{
name = mark3;
position = "{0, 0}";
},
{
name = mark4;
position = "{0, 0}";
}
);
hints = (
{
place = "{266, 54}";
},
{
horizontal = 1;
place = "{0, 21}";
target = up;
type = BottomGhost;
},
{
horizontal = 1;
place = "{705, -20}";
target = down;
type = TopGhost;
},
{
horizontal = 1;
place = "{765, 150}";
}
);
layerId = UUID0;
paths = (
{
closed = 1;
nodes = (
"314 765 LINE",
"214 915 LINE",
"145 915 LINE",
"272 765 LINE"
);
},
{
closed = 1;
nodes = (
"591 705 LINE",
"530 705 LINE",
"294 386 LINE",
"58 705 LINE",
"-5 705 LINE",
"266 340 LINE",
"266 0 LINE",
"320 0 LINE",
"320 338 LINE"
);
}
);
width = 587;
}
);
leftKerningGroup = Y;
rightKerningGroup = Y;
unicode = 1EF2;
},
{
glyphname = Z;
lastChange = "2017-11-14 17:14:40 +0000";
layers = (
{
anchors = (
{
name = mark0;
position = "{298, 0}";
},
{
name = mark1;
position = "{0, 0}";
},
{
name = mark2;
position = "{290, 705}";
},
{
name = mark3;
position = "{0, 0}";
},
{
name = mark4;
position = "{0, 0}";
}
);
hints = (
{
place = "{43, 502}";
},
{
horizontal = 1;
place = "{0, 48}";
},
{
horizontal = 1;
place = "{657, 48}";
}
);
layerId = UUID0;
paths = (
{
closed = 1;
nodes = (
"107 48 LINE",
"535 665 LINE",
"535 705 LINE",
"43 705 LINE",
"43 657 LINE",
"471 657 LINE",
"43 40 LINE",
"43 0 LINE",
"545 0 LINE",
"545 48 LINE"
);
}
);
width = 582;
}
);
leftKerningGroup = Z;
rightKerningGroup = uni01C4;
unicode = 005A;
},
{
glyphname = Zacute;
lastChange = "2017-11-14 17:14:40 +0000";
layers = (
{
anchors = (
{
name = mark0;
position = "{298, 0}";
},
{
name = mark1;
position = "{0, 0}";
},
{
name = mark2;
position = "{290, 865}";
},
{
name = mark3;
position = "{0, 0}";
},
{
name = mark4;
position = "{0, 0}";
}
);
hints = (
{
place = "{43, 502}";
},
{
horizontal = 1;
place = "{0, 48}";
},
{
horizontal = 1;
place = "{657, 48}";
},
{
horizontal = 1;
place = "{765, 150}";
}
);
layerId = UUID0;
paths = (
{
closed = 1;
nodes = (
"438 915 LINE",
"369 915 LINE",
"269 765 LINE",
"311 765 LINE"
);
},
{
closed = 1;
nodes = (
"107 48 LINE",
"535 665 LINE",
"535 705 LINE",
"43 705 LINE",
"43 657 LINE",
"471 657 LINE",
"43 40 LINE",
"43 0 LINE",
"545 0 LINE",
"545 48 LINE"
);
}
);
width = 582;
}
);
leftKerningGroup = Z;
rightKerningGroup = uni01C4;
unicode = 0179;
},
{
glyphname = Zcaron;
lastChange = "2017-11-14 17:14:40 +0000";
layers = (
{
anchors = (
{
name = mark0;
position = "{298, 0}";
},
{
name = mark1;
position = "{0, 0}";
},
{
name = mark2;
position = "{290, 865}";
},
{
name = mark3;
position = "{0, 0}";
},
{
name = mark4;
position = "{0, 0}";
}
);
hints = (
{
place = "{43, 502}";
},
{
horizontal = 1;
place = "{0, 48}";
},
{
horizontal = 1;
place = "{657, 48}";
},
{
horizontal = 1;
place = "{765, 150}";
}
);
layerId = UUID0;
paths = (
{
closed = 1;
nodes = (
"311 765 LINE",
"425 915 LINE",
"367 915 LINE",
"290 805 LINE",
"213 915 LINE",
"155 915 LINE",
"269 765 LINE"
);
},
{
closed = 1;
nodes = (
"107 48 LINE",
"535 665 LINE",
"535 705 LINE",
"43 705 LINE",
"43 657 LINE",
"471 657 LINE",
"43 40 LINE",
"43 0 LINE",
"545 0 LINE",
"545 48 LINE"
);
}
);
width = 582;
}
);
leftKerningGroup = Z;
rightKerningGroup = uni01C4;
unicode = 017D;
},
{
glyphname = Zdotaccent;
lastChange = "2017-11-14 17:14:40 +0000";
layers = (
{
anchors = (
{
name = mark0;
position = "{298, 0}";
},
{
name = mark1;
position = "{0, 0}";
},
{
name = mark2;
position = "{290, 865}";
},
{
name = mark3;
position = "{0, 0}";
},
{
name = mark4;
position = "{0, 0}";
}
);
hints = (
{
place = "{253, 74}";
},
{
horizontal = 1;
place = "{0, 48}";
},
{
horizontal = 1;
place = "{657, 48}";
},
{
horizontal = 1;
place = "{805, 72}";
}
);
layerId = UUID0;
paths = (
{
closed = 1;
nodes = (
"327 877 LINE",
"253 877 LINE",
"253 805 LINE",
"327 805 LINE"
);
},
{
closed = 1;
nodes = (
"107 48 LINE",
"535 665 LINE",
"535 705 LINE",
"43 705 LINE",
"43 657 LINE",
"471 657 LINE",
"43 40 LINE",
"43 0 LINE",
"545 0 LINE",
"545 48 LINE"
);
}
);
width = 582;
}
);
leftKerningGroup = Z;
rightKerningGroup = uni01C4;
unicode = 017B;
},
{
glyphname = Iacute_J.loclNLD;
lastChange = "2017-11-14 17:14:45 +0000";
layers = (
{
anchors = (
{
name = mark0;
position = "{426, 0}";
},
{
name = mark1;
position = "{144, 10}";
},
{
name = mark2;
position = "{426, 865}";
},
{
name = mark3;
position = "{0, 0}";
},
{
name = mark4;
position = "{0, 0}";
}
);
hints = (
{
place = "{93, 54}";
},
{
place = "{399, 54}";
},
{
horizontal = 1;
place = "{-6, 49}";
},
{
horizontal = 1;
place = "{0, 21}";
target = up;
type = BottomGhost;
},
{
horizontal = 1;
place = "{705, -20}";
target = down;
type = TopGhost;
},
{
horizontal = 1;
place = "{765, 150}";
}
);
layerId = UUID0;
paths = (
{
closed = 1;
nodes = (
"141 765 LINE",
"268 915 LINE",
"199 915 LINE",
"99 765 LINE"
);
},
{
closed = 1;
nodes = (
"447 765 LINE",
"574 915 LINE",
"505 915 LINE",
"405 765 LINE"
);
},
{
closed = 1;
nodes = (
"93 0 LINE",
"147 0 LINE",
"147 705 LINE",
"93 705 LINE"
);
},
{
closed = 1;
nodes = (
"235 -6 LINE",
"290 -2 LINE SMOOTH",
"395 5 OFFCURVE",
"453 70 OFFCURVE",
"453 180 CURVE SMOOTH",
"453 705 LINE",
"399 705 LINE",
"399 182 LINE SMOOTH",
"399 102 OFFCURVE",
"357 51 OFFCURVE",
"284 45 CURVE SMOOTH",
"231 41 LINE"
);
}
);
width = 546;
}
);
rightKerningGroup = J;
},
{
glyphname = a;
lastChange = "2017-11-14 17:14:40 +0000";
layers = (
{
anchors = (
{
name = mark0;
position = "{269, 0}";
},
{
name = mark1;
position = "{440, 10}";
},
{
name = mark2;
position = "{272, 490}";
},
{
name = mark3;
position = "{0, 0}";
},
{
name = mark4;
position = "{0, 0}";
}
);
hints = (
{
place = "{66, 58}";
},
{
place = "{390, 54}";
},
{
horizontal = 1;
place = "{-7, 49}";
},
{
horizontal = 1;
place = "{0, 21}";
target = up;
type = BottomGhost;
},
{
horizontal = 1;
place = "{236, 43}";
},
{
horizontal = 1;
place = "{448, 49}";
}
);
layerId = UUID0;
paths = (
{
closed = 1;
nodes = (
"207 497 OFFCURVE",
"135 474 OFFCURVE",
"86 438 CURVE",
"108 395 LINE",
"165 432 OFFCURVE",
"216 448 OFFCURVE",
"276 448 CURVE SMOOTH",
"355 448 OFFCURVE",
"390 408 OFFCURVE",
"390 318 CURVE SMOOTH",
"390 279 LINE",
"369 279 LINE SMOOTH",
"140 279 OFFCURVE",
"66 245 OFFCURVE",
"66 139 CURVE SMOOTH",
"66 56 OFFCURVE",
"140 -7 OFFCURVE",
"235 -7 CURVE SMOOTH",
"305 -7 OFFCURVE",
"362 26 OFFCURVE",
"390 88 CURVE",
"390 0 LINE",
"444 0 LINE",
"444 314 LINE SMOOTH",
"444 436 OFFCURVE",
"387 497 OFFCURVE",
"272 497 CURVE SMOOTH"
);
},
{
closed = 1;
nodes = (
"173 42 OFFCURVE",
"124 84 OFFCURVE",
"124 142 CURVE SMOOTH",
"124 216 OFFCURVE",
"177 236 OFFCURVE",
"371 236 CURVE SMOOTH",
"390 236 LINE",
"390 202 LINE SMOOTH",
"390 109 OFFCURVE",
"327 42 OFFCURVE",
"238 42 CURVE SMOOTH"
);
}
);
width = 524;
}
);
leftKerningGroup = a;
rightKerningGroup = a;
unicode = 0061;
},
{
glyphname = aacute;
lastChange = "2017-11-14 17:14:40 +0000";
layers = (
{
anchors = (
{
name = mark0;
position = "{269, 0}";
},
{
name = mark1;
position = "{440, 10}";
},
{
name = mark2;
position = "{272, 685}";
},
{
name = mark3;
position = "{0, 0}";
},
{
name = mark4;
position = "{0, 0}";
}
);
hints = (
{
place = "{66, 58}";
},
{
place = "{390, 54}";
},
{
horizontal = 1;
place = "{-7, 49}";
},
{
horizontal = 1;
place = "{0, 21}";
target = up;
type = BottomGhost;
},
{
horizontal = 1;
place = "{236, 43}";
},
{
horizontal = 1;
place = "{448, 49}";
},
{
horizontal = 1;
place = "{550, 200}";
}
);
layerId = UUID0;
paths = (
{
closed = 1;
nodes = (
"422 750 LINE",
"351 750 LINE",
"251 550 LINE",
"293 550 LINE"
);
},
{
closed = 1;
nodes = (
"207 497 OFFCURVE",
"135 474 OFFCURVE",
"86 438 CURVE",
"108 395 LINE",
"165 432 OFFCURVE",
"216 448 OFFCURVE",
"276 448 CURVE SMOOTH",
"355 448 OFFCURVE",
"390 408 OFFCURVE",
"390 318 CURVE SMOOTH",
"390 279 LINE",
"369 279 LINE SMOOTH",
"140 279 OFFCURVE",
"66 245 OFFCURVE",
"66 139 CURVE SMOOTH",
"66 56 OFFCURVE",
"140 -7 OFFCURVE",
"235 -7 CURVE SMOOTH",
"305 -7 OFFCURVE",
"362 26 OFFCURVE",
"390 88 CURVE",
"390 0 LINE",
"444 0 LINE",
"444 314 LINE SMOOTH",
"444 436 OFFCURVE",
"387 497 OFFCURVE",
"272 497 CURVE SMOOTH"
);
},
{
closed = 1;
nodes = (
"173 42 OFFCURVE",
"124 84 OFFCURVE",
"124 142 CURVE SMOOTH",
"124 216 OFFCURVE",
"177 236 OFFCURVE",
"371 236 CURVE SMOOTH",
"390 236 LINE",
"390 202 LINE SMOOTH",
"390 109 OFFCURVE",
"327 42 OFFCURVE",
"238 42 CURVE SMOOTH"
);
}
);
width = 524;
}
);
leftKerningGroup = a;
rightKerningGroup = a;
unicode = 00E1;
},
{
glyphname = abreve;
lastChange = "2017-11-14 17:14:40 +0000";
layers = (
{
anchors = (
{
name = mark0;
position = "{269, 0}";
},
{
name = mark1;
position = "{440, 10}";
},
{
name = mark2;
position = "{272, 685}";
},
{
name = mark3;
position = "{0, 0}";
},
{
name = mark4;
position = "{0, 0}";
}
);
hints = (
{
place = "{66, 58}";
},
{
place = "{390, 54}";
},
{
horizontal = 1;
place = "{-7, 49}";
},
{
horizontal = 1;
place = "{0, 21}";
target = up;
type = BottomGhost;
},
{
horizontal = 1;
place = "{236, 43}";
},
{
horizontal = 1;
place = "{448, 49}";
},
{
horizontal = 1;
place = "{583, 46}";
},
{
horizontal = 1;
place = "{721, -20}";
target = down;
type = TopGhost;
}
);
layerId = UUID0;
paths = (
{
closed = 1;
nodes = (
"336 583 OFFCURVE",
"399 615 OFFCURVE",
"429 703 CURVE",
"385 721 LINE",
"355 652 OFFCURVE",
"317 629 OFFCURVE",
"272 629 CURVE SMOOTH",
"227 629 OFFCURVE",
"189 652 OFFCURVE",
"159 721 CURVE",
"115 702 LINE",
"147 615 OFFCURVE",
"208 583 OFFCURVE",
"272 583 CURVE SMOOTH"
);
},
{
closed = 1;
nodes = (
"207 497 OFFCURVE",
"135 474 OFFCURVE",
"86 438 CURVE",
"108 395 LINE",
"165 432 OFFCURVE",
"216 448 OFFCURVE",
"276 448 CURVE SMOOTH",
"355 448 OFFCURVE",
"390 408 OFFCURVE",
"390 318 CURVE SMOOTH",
"390 279 LINE",
"369 279 LINE SMOOTH",
"140 279 OFFCURVE",
"66 245 OFFCURVE",
"66 139 CURVE SMOOTH",
"66 56 OFFCURVE",
"140 -7 OFFCURVE",
"235 -7 CURVE SMOOTH",
"305 -7 OFFCURVE",
"362 26 OFFCURVE",
"390 88 CURVE",
"390 0 LINE",
"444 0 LINE",
"444 314 LINE SMOOTH",
"444 436 OFFCURVE",
"387 497 OFFCURVE",
"272 497 CURVE SMOOTH"
);
},
{
closed = 1;
nodes = (
"173 42 OFFCURVE",
"124 84 OFFCURVE",
"124 142 CURVE SMOOTH",
"124 216 OFFCURVE",
"177 236 OFFCURVE",
"371 236 CURVE SMOOTH",
"390 236 LINE",
"390 202 LINE SMOOTH",
"390 109 OFFCURVE",
"327 42 OFFCURVE",
"238 42 CURVE SMOOTH"
);
}
);
width = 524;
}
);
leftKerningGroup = a;
rightKerningGroup = a;
unicode = 0103;
},
{
glyphname = acircumflex;
lastChange = "2017-11-14 17:14:40 +0000";
layers = (
{
anchors = (
{
name = mark0;
position = "{269, 0}";
},
{
name = mark1;
position = "{440, 10}";
},
{
name = mark2;
position = "{272, 685}";
},
{
name = mark3;
position = "{0, 0}";
},
{
name = mark4;
position = "{0, 0}";
}
);
hints = (
{
place = "{66, 58}";
},
{
place = "{390, 54}";
},
{
horizontal = 1;
place = "{-7, 49}";
},
{
horizontal = 1;
place = "{0, 21}";
target = up;
type = BottomGhost;
},
{
horizontal = 1;
place = "{236, 43}";
},
{
horizontal = 1;
place = "{448, 49}";
},
{
horizontal = 1;
place = "{703, 47}";
}
);
layerId = UUID0;
paths = (
{
closed = 1;
nodes = (
"272 703 LINE",
"349 550 LINE",
"407 550 LINE",
"294 750 LINE",
"250 750 LINE",
"137 550 LINE",
"195 550 LINE"
);
},
{
closed = 1;
nodes = (
"207 497 OFFCURVE",
"135 474 OFFCURVE",
"86 438 CURVE",
"108 395 LINE",
"165 432 OFFCURVE",
"216 448 OFFCURVE",
"276 448 CURVE SMOOTH",
"355 448 OFFCURVE",
"390 408 OFFCURVE",
"390 318 CURVE SMOOTH",
"390 279 LINE",
"369 279 LINE SMOOTH",
"140 279 OFFCURVE",
"66 245 OFFCURVE",
"66 139 CURVE SMOOTH",
"66 56 OFFCURVE",
"140 -7 OFFCURVE",
"235 -7 CURVE SMOOTH",
"305 -7 OFFCURVE",
"362 26 OFFCURVE",
"390 88 CURVE",
"390 0 LINE",
"444 0 LINE",
"444 314 LINE SMOOTH",
"444 436 OFFCURVE",
"387 497 OFFCURVE",
"272 497 CURVE SMOOTH"
);
},
{
closed = 1;
nodes = (
"173 42 OFFCURVE",
"124 84 OFFCURVE",
"124 142 CURVE SMOOTH",
"124 216 OFFCURVE",
"177 236 OFFCURVE",
"371 236 CURVE SMOOTH",
"390 236 LINE",
"390 202 LINE SMOOTH",
"390 109 OFFCURVE",
"327 42 OFFCURVE",
"238 42 CURVE SMOOTH"
);
}
);
width = 524;
}
);
leftKerningGroup = a;
rightKerningGroup = a;
unicode = 00E2;
},
{
glyphname = adieresis;
lastChange = "2017-11-14 17:14:40 +0000";
layers = (
{
anchors = (
{
name = mark0;
position = "{269, 0}";
},
{
name = mark1;
position = "{440, 10}";
},
{
name = mark2;
position = "{272, 685}";
},
{
name = mark3;
position = "{0, 0}";
},
{
name = mark4;
position = "{0, 0}";
}
);
hints = (
{
place = "{66, 58}";
},
{
place = "{155, 70}";
},
{
place = "{319, 70}";
},
{
place = "{390, 54}";
},
{
horizontal = 1;
place = "{-7, 49}";
},
{
horizontal = 1;
place = "{0, 21}";
target = up;
type = BottomGhost;
},
{
horizontal = 1;
place = "{236, 43}";
},
{
horizontal = 1;
place = "{448, 49}";
},
{
horizontal = 1;
place = "{617, 68}";
}
);
layerId = UUID0;
paths = (
{
closed = 1;
nodes = (
"225 685 LINE",
"155 685 LINE",
"155 617 LINE",
"225 617 LINE"
);
},
{
closed = 1;
nodes = (
"389 685 LINE",
"319 685 LINE",
"319 617 LINE",
"389 617 LINE"
);
},
{
closed = 1;
nodes = (
"207 497 OFFCURVE",
"135 474 OFFCURVE",
"86 438 CURVE",
"108 395 LINE",
"165 432 OFFCURVE",
"216 448 OFFCURVE",
"276 448 CURVE SMOOTH",
"355 448 OFFCURVE",
"390 408 OFFCURVE",
"390 318 CURVE SMOOTH",
"390 279 LINE",
"369 279 LINE SMOOTH",
"140 279 OFFCURVE",
"66 245 OFFCURVE",
"66 139 CURVE SMOOTH",
"66 56 OFFCURVE",
"140 -7 OFFCURVE",
"235 -7 CURVE SMOOTH",
"305 -7 OFFCURVE",
"362 26 OFFCURVE",
"390 88 CURVE",
"390 0 LINE",
"444 0 LINE",
"444 314 LINE SMOOTH",
"444 436 OFFCURVE",
"387 497 OFFCURVE",
"272 497 CURVE SMOOTH"
);
},
{
closed = 1;
nodes = (
"173 42 OFFCURVE",
"124 84 OFFCURVE",
"124 142 CURVE SMOOTH",
"124 216 OFFCURVE",
"177 236 OFFCURVE",
"371 236 CURVE SMOOTH",
"390 236 LINE",
"390 202 LINE SMOOTH",
"390 109 OFFCURVE",
"327 42 OFFCURVE",
"238 42 CURVE SMOOTH"
);
}
);
width = 524;
}
);
leftKerningGroup = a;
rightKerningGroup = a;
unicode = 00E4;
},
{
glyphname = agrave;
lastChange = "2017-11-14 17:14:40 +0000";
layers = (
{
anchors = (
{
name = mark0;
position = "{269, 0}";
},
{
name = mark1;
position = "{440, 10}";
},
{
name = mark2;
position = "{272, 685}";
},
{
name = mark3;
position = "{0, 0}";
},
{
name = mark4;
position = "{0, 0}";
}
);
hints = (
{
place = "{66, 58}";
},
{
place = "{390, 54}";
},
{
horizontal = 1;
place = "{-7, 49}";
},
{
horizontal = 1;
place = "{0, 21}";
target = up;
type = BottomGhost;
},
{
horizontal = 1;
place = "{236, 43}";
},
{
horizontal = 1;
place = "{448, 49}";
},
{
horizontal = 1;
place = "{550, 200}";
}
);
layerId = UUID0;
paths = (
{
closed = 1;
nodes = (
"293 550 LINE",
"193 750 LINE",
"122 750 LINE",
"251 550 LINE"
);
},
{
closed = 1;
nodes = (
"207 497 OFFCURVE",
"135 474 OFFCURVE",
"86 438 CURVE",
"108 395 LINE",
"165 432 OFFCURVE",
"216 448 OFFCURVE",
"276 448 CURVE SMOOTH",
"355 448 OFFCURVE",
"390 408 OFFCURVE",
"390 318 CURVE SMOOTH",
"390 279 LINE",
"369 279 LINE SMOOTH",
"140 279 OFFCURVE",
"66 245 OFFCURVE",
"66 139 CURVE SMOOTH",
"66 56 OFFCURVE",
"140 -7 OFFCURVE",
"235 -7 CURVE SMOOTH",
"305 -7 OFFCURVE",
"362 26 OFFCURVE",
"390 88 CURVE",
"390 0 LINE",
"444 0 LINE",
"444 314 LINE SMOOTH",
"444 436 OFFCURVE",
"387 497 OFFCURVE",
"272 497 CURVE SMOOTH"
);
},
{
closed = 1;
nodes = (
"173 42 OFFCURVE",
"124 84 OFFCURVE",
"124 142 CURVE SMOOTH",
"124 216 OFFCURVE",
"177 236 OFFCURVE",
"371 236 CURVE SMOOTH",
"390 236 LINE",
"390 202 LINE SMOOTH",
"390 109 OFFCURVE",
"327 42 OFFCURVE",
"238 42 CURVE SMOOTH"
);
}
);
width = 524;
}
);
leftKerningGroup = a;
rightKerningGroup = a;
unicode = 00E0;
},
{
glyphname = amacron;
lastChange = "2017-11-14 17:14:40 +0000";
layers = (
{
anchors = (
{
name = mark0;
position = "{269, 0}";
},
{
name = mark1;
position = "{440, 10}";
},
{
name = mark2;
position = "{272, 685}";
},
{
name = mark3;
position = "{0, 0}";
},
{
name = mark4;
position = "{0, 0}";
}
);
hints = (
{
place = "{66, 58}";
},
{
place = "{390, 54}";
},
{
horizontal = 1;
place = "{-7, 49}";
},
{
horizontal = 1;
place = "{0, 21}";
target = up;
type = BottomGhost;
},
{
horizontal = 1;
place = "{236, 43}";
},
{
horizontal = 1;
place = "{448, 49}";
},
{
horizontal = 1;
place = "{627, 48}";
}
);
layerId = UUID0;
paths = (
{
closed = 1;
nodes = (
"419 675 LINE",
"125 675 LINE",
"125 627 LINE",
"419 627 LINE"
);
},
{
closed = 1;
nodes = (
"207 497 OFFCURVE",
"135 474 OFFCURVE",
"86 438 CURVE",
"108 395 LINE",
"165 432 OFFCURVE",
"216 448 OFFCURVE",
"276 448 CURVE SMOOTH",
"355 448 OFFCURVE",
"390 408 OFFCURVE",
"390 318 CURVE SMOOTH",
"390 279 LINE",
"369 279 LINE SMOOTH",
"140 279 OFFCURVE",
"66 245 OFFCURVE",
"66 139 CURVE SMOOTH",
"66 56 OFFCURVE",
"140 -7 OFFCURVE",
"235 -7 CURVE SMOOTH",
"305 -7 OFFCURVE",
"362 26 OFFCURVE",
"390 88 CURVE",
"390 0 LINE",
"444 0 LINE",
"444 314 LINE SMOOTH",
"444 436 OFFCURVE",
"387 497 OFFCURVE",
"272 497 CURVE SMOOTH"
);
},
{
closed = 1;
nodes = (
"173 42 OFFCURVE",
"124 84 OFFCURVE",
"124 142 CURVE SMOOTH",
"124 216 OFFCURVE",
"177 236 OFFCURVE",
"371 236 CURVE SMOOTH",
"390 236 LINE",
"390 202 LINE SMOOTH",
"390 109 OFFCURVE",
"327 42 OFFCURVE",
"238 42 CURVE SMOOTH"
);
}
);
width = 524;
}
);
leftKerningGroup = a;
rightKerningGroup = a;
unicode = 0101;
},
{
glyphname = aogonek;
lastChange = "2017-11-14 17:14:40 +0000";
layers = (
{
hints = (
{
place = "{66, 58}";
},
{
place = "{298, 50}";
},
{
place = "{390, 54}";
},
{
horizontal = 1;
place = "{-191, 43}";
},
{
horizontal = 1;
place = "{-7, 49}";
},
{
horizontal = 1;
place = "{0, 29}";
},
{
horizontal = 1;
place = "{0, 21}";
target = up;
type = BottomGhost;
},
{
horizontal = 1;
place = "{236, 43}";
},
{
horizontal = 1;
place = "{448, 49}";
}
);
layerId = UUID0;
paths = (
{
closed = 1;
nodes = (
"475 -130 LINE",
"454 -141 OFFCURVE",
"433 -148 OFFCURVE",
"416 -148 CURVE SMOOTH",
"374 -148 OFFCURVE",
"348 -123 OFFCURVE",
"348 -82 CURVE SMOOTH",
"348 -34 OFFCURVE",
"387 0 OFFCURVE",
"440 0 CURVE SMOOTH",
"444 0 LINE",
"444 314 LINE SMOOTH",
"444 436 OFFCURVE",
"387 497 OFFCURVE",
"272 497 CURVE SMOOTH",
"207 497 OFFCURVE",
"135 474 OFFCURVE",
"86 438 CURVE",
"108 395 LINE",
"165 432 OFFCURVE",
"216 448 OFFCURVE",
"276 448 CURVE SMOOTH",
"355 448 OFFCURVE",
"390 408 OFFCURVE",
"390 318 CURVE SMOOTH",
"390 279 LINE",
"369 279 LINE SMOOTH",
"140 279 OFFCURVE",
"66 245 OFFCURVE",
"66 139 CURVE SMOOTH",
"66 56 OFFCURVE",
"140 -7 OFFCURVE",
"235 -7 CURVE SMOOTH",
"305 -7 OFFCURVE",
"362 26 OFFCURVE",
"390 88 CURVE",
"390 29 LINE",
"332 9 OFFCURVE",
"298 -34 OFFCURVE",
"298 -88 CURVE SMOOTH",
"298 -149 OFFCURVE",
"344 -191 OFFCURVE",
"411 -191 CURVE SMOOTH",
"442 -191 OFFCURVE",
"470 -183 OFFCURVE",
"491 -168 CURVE"
);
},
{
closed = 1;
nodes = (
"173 42 OFFCURVE",
"124 84 OFFCURVE",
"124 142 CURVE SMOOTH",
"124 216 OFFCURVE",
"177 236 OFFCURVE",
"371 236 CURVE SMOOTH",
"390 236 LINE",
"390 202 LINE SMOOTH",
"390 109 OFFCURVE",
"327 42 OFFCURVE",
"238 42 CURVE SMOOTH"
);
}
);
width = 524;
}
);
leftKerningGroup = a;
rightKerningGroup = a;
unicode = 0105;
},
{
glyphname = aring;
lastChange = "2017-11-14 17:14:40 +0000";
layers = (
{
anchors = (
{
name = mark0;
position = "{269, 0}";
},
{
name = mark1;
position = "{440, 10}";
},
{
name = mark2;
position = "{272, 685}";
},
{
name = mark3;
position = "{0, 0}";
},
{
name = mark4;
position = "{0, 0}";
}
);
hints = (
{
place = "{66, 58}";
},
{
place = "{174, 48}";
},
{
place = "{322, 48}";
},
{
place = "{390, 54}";
},
{
horizontal = 1;
place = "{-7, 49}";
},
{
horizontal = 1;
place = "{0, 21}";
target = up;
type = BottomGhost;
},
{
horizontal = 1;
place = "{236, 43}";
},
{
horizontal = 1;
place = "{448, 49}";
},
{
horizontal = 1;
place = "{554, 44}";
},
{
horizontal = 1;
place = "{702, 44}";
}
);
layerId = UUID0;
paths = (
{
closed = 1;
nodes = (
"326 554 OFFCURVE",
"370 596 OFFCURVE",
"370 650 CURVE SMOOTH",
"370 704 OFFCURVE",
"326 746 OFFCURVE",
"272 746 CURVE SMOOTH",
"218 746 OFFCURVE",
"174 704 OFFCURVE",
"174 650 CURVE SMOOTH",
"174 596 OFFCURVE",
"218 554 OFFCURVE",
"272 554 CURVE SMOOTH"
);
},
{
closed = 1;
nodes = (
"301 702 OFFCURVE",
"322 679 OFFCURVE",
"322 650 CURVE SMOOTH",
"322 621 OFFCURVE",
"301 598 OFFCURVE",
"272 598 CURVE SMOOTH",
"243 598 OFFCURVE",
"222 621 OFFCURVE",
"222 650 CURVE SMOOTH",
"222 679 OFFCURVE",
"243 702 OFFCURVE",
"272 702 CURVE SMOOTH"
);
},
{
closed = 1;
nodes = (
"207 497 OFFCURVE",
"135 474 OFFCURVE",
"86 438 CURVE",
"108 395 LINE",
"165 432 OFFCURVE",
"216 448 OFFCURVE",
"276 448 CURVE SMOOTH",
"355 448 OFFCURVE",
"390 408 OFFCURVE",
"390 318 CURVE SMOOTH",
"390 279 LINE",
"369 279 LINE SMOOTH",
"140 279 OFFCURVE",
"66 245 OFFCURVE",
"66 139 CURVE SMOOTH",
"66 56 OFFCURVE",
"140 -7 OFFCURVE",
"235 -7 CURVE SMOOTH",
"305 -7 OFFCURVE",
"362 26 OFFCURVE",
"390 88 CURVE",
"390 0 LINE",
"444 0 LINE",
"444 314 LINE SMOOTH",
"444 436 OFFCURVE",
"387 497 OFFCURVE",
"272 497 CURVE SMOOTH"
);
},
{
closed = 1;
nodes = (
"173 42 OFFCURVE",
"124 84 OFFCURVE",
"124 142 CURVE SMOOTH",
"124 216 OFFCURVE",
"177 236 OFFCURVE",
"371 236 CURVE SMOOTH",
"390 236 LINE",
"390 202 LINE SMOOTH",
"390 109 OFFCURVE",
"327 42 OFFCURVE",
"238 42 CURVE SMOOTH"
);
}
);
width = 524;
}
);
leftKerningGroup = a;
rightKerningGroup = a;
unicode = 00E5;
},
{
glyphname = aringacute;
lastChange = "2017-11-14 17:14:40 +0000";
layers = (
{
hints = (
{
place = "{66, 58}";
},
{
place = "{174, 48}";
},
{
place = "{322, 48}";
},
{
place = "{390, 54}";
},
{
horizontal = 1;
place = "{-7, 49}";
},
{
horizontal = 1;
place = "{0, 21}";
target = up;
type = BottomGhost;
},
{
horizontal = 1;
place = "{236, 43}";
},
{
horizontal = 1;
place = "{448, 49}";
},
{
horizontal = 1;
place = "{555, 44}";
},
{
horizontal = 1;
place = "{703, 44}";
},
{
horizontal = 1;
place = "{705, -20}";
target = down;
type = TopGhost;
}
);
layerId = UUID0;
paths = (
{
closed = 1;
nodes = (
"326 555 OFFCURVE",
"370 597 OFFCURVE",
"370 651 CURVE SMOOTH",
"370 671 OFFCURVE",
"364 689 OFFCURVE",
"354 705 CURVE",
"475 848 LINE",
"406 848 LINE",
"328 730 LINE",
"312 741 OFFCURVE",
"293 747 OFFCURVE",
"272 747 CURVE SMOOTH",
"218 747 OFFCURVE",
"174 705 OFFCURVE",
"174 651 CURVE SMOOTH",
"174 597 OFFCURVE",
"218 555 OFFCURVE",
"272 555 CURVE SMOOTH"
);
},
{
closed = 1;
nodes = (
"301 703 OFFCURVE",
"322 680 OFFCURVE",
"322 651 CURVE SMOOTH",
"322 622 OFFCURVE",
"301 599 OFFCURVE",
"272 599 CURVE SMOOTH",
"243 599 OFFCURVE",
"222 622 OFFCURVE",
"222 651 CURVE SMOOTH",
"222 680 OFFCURVE",
"243 703 OFFCURVE",
"272 703 CURVE SMOOTH"
);
},
{
closed = 1;
nodes = (
"207 497 OFFCURVE",
"135 474 OFFCURVE",
"86 438 CURVE",
"108 395 LINE",
"165 432 OFFCURVE",
"216 448 OFFCURVE",
"276 448 CURVE SMOOTH",
"355 448 OFFCURVE",
"390 408 OFFCURVE",
"390 318 CURVE SMOOTH",
"390 279 LINE",
"369 279 LINE SMOOTH",
"140 279 OFFCURVE",
"66 245 OFFCURVE",
"66 139 CURVE SMOOTH",
"66 56 OFFCURVE",
"140 -7 OFFCURVE",
"235 -7 CURVE SMOOTH",
"305 -7 OFFCURVE",
"362 26 OFFCURVE",
"390 88 CURVE",
"390 0 LINE",
"444 0 LINE",
"444 314 LINE SMOOTH",
"444 436 OFFCURVE",
"387 497 OFFCURVE",
"272 497 CURVE SMOOTH"
);
},
{
closed = 1;
nodes = (
"173 42 OFFCURVE",
"124 84 OFFCURVE",
"124 142 CURVE SMOOTH",
"124 216 OFFCURVE",
"177 236 OFFCURVE",
"371 236 CURVE SMOOTH",
"390 236 LINE",
"390 202 LINE SMOOTH",
"390 109 OFFCURVE",
"327 42 OFFCURVE",
"238 42 CURVE SMOOTH"
);
}
);
width = 524;
}
);
leftKerningGroup = a;
rightKerningGroup = a;
unicode = 01FB;
},
{
glyphname = atilde;
lastChange = "2017-11-14 17:14:40 +0000";
layers = (
{
anchors = (
{
name = mark0;
position = "{269, 0}";
},
{
name = mark1;
position = "{440, 10}";
},
{
name = mark2;
position = "{272, 685}";
},
{
name = mark3;
position = "{0, 0}";
},
{
name = mark4;
position = "{0, 0}";
}
);
hints = (
{
place = "{66, 58}";
},
{
place = "{116, 37}";
},
{
place = "{390, 54}";
},
{
place = "{391, 37}";
},
{
horizontal = 1;
place = "{-7, 49}";
},
{
horizontal = 1;
place = "{0, 21}";
target = up;
type = BottomGhost;
},
{
horizontal = 1;
place = "{236, 43}";
},
{
horizontal = 1;
place = "{448, 49}";
},
{
horizontal = 1;
place = "{599, 46}";
},
{
horizontal = 1;
place = "{658, 46}";
}
);
layerId = UUID0;
paths = (
{
closed = 1;
nodes = (
"240 658 OFFCURVE",
"288 599 OFFCURVE",
"346 599 CURVE SMOOTH",
"397 599 OFFCURVE",
"428 639 OFFCURVE",
"428 701 CURVE",
"391 701 LINE",
"391 673 OFFCURVE",
"375 645 OFFCURVE",
"343 645 CURVE SMOOTH",
"304 645 OFFCURVE",
"256 704 OFFCURVE",
"198 704 CURVE SMOOTH",
"147 704 OFFCURVE",
"116 664 OFFCURVE",
"116 602 CURVE",
"153 602 LINE",
"153 630 OFFCURVE",
"169 658 OFFCURVE",
"201 658 CURVE SMOOTH"
);
},
{
closed = 1;
nodes = (
"207 497 OFFCURVE",
"135 474 OFFCURVE",
"86 438 CURVE",
"108 395 LINE",
"165 432 OFFCURVE",
"216 448 OFFCURVE",
"276 448 CURVE SMOOTH",
"355 448 OFFCURVE",
"390 408 OFFCURVE",
"390 318 CURVE SMOOTH",
"390 279 LINE",
"369 279 LINE SMOOTH",
"140 279 OFFCURVE",
"66 245 OFFCURVE",
"66 139 CURVE SMOOTH",
"66 56 OFFCURVE",
"140 -7 OFFCURVE",
"235 -7 CURVE SMOOTH",
"305 -7 OFFCURVE",
"362 26 OFFCURVE",
"390 88 CURVE",
"390 0 LINE",
"444 0 LINE",
"444 314 LINE SMOOTH",
"444 436 OFFCURVE",
"387 497 OFFCURVE",
"272 497 CURVE SMOOTH"
);
},
{
closed = 1;
nodes = (
"173 42 OFFCURVE",
"124 84 OFFCURVE",
"124 142 CURVE SMOOTH",
"124 216 OFFCURVE",
"177 236 OFFCURVE",
"371 236 CURVE SMOOTH",
"390 236 LINE",
"390 202 LINE SMOOTH",
"390 109 OFFCURVE",
"327 42 OFFCURVE",
"238 42 CURVE SMOOTH"
);
}
);
width = 524;
}
);
leftKerningGroup = a;
rightKerningGroup = a;
unicode = 00E3;
},
{
glyphname = ae;
lastChange = "2017-11-14 17:14:40 +0000";
layers = (
{
anchors = (
{
name = mark0;
position = "{422, 0}";
},
{
name = mark1;
position = "{0, 0}";
},
{
name = mark2;
position = "{422, 490}";
},
{
name = mark3;
position = "{0, 0}";
},
{
name = mark4;
position = "{0, 0}";
}
);
hints = (
{
place = "{66, 58}";
},
{
place = "{394, 55}";
},
{
place = "{761, 50}";
},
{
horizontal = 1;
place = "{-7, 49}";
},
{
horizontal = 1;
place = "{236, 43}";
},
{
horizontal = 1;
place = "{448, 49}";
},
{
horizontal = 1;
place = "{451, 46}";
}
);
layerId = UUID0;
paths = (
{
closed = 1;
nodes = (
"811 261 LINE",
"811 409 OFFCURVE",
"738 497 OFFCURVE",
"614 497 CURVE SMOOTH",
"536 497 OFFCURVE",
"473 459 OFFCURVE",
"436 397 CURVE",
"414 463 OFFCURVE",
"360 497 OFFCURVE",
"274 497 CURVE SMOOTH",
"208 497 OFFCURVE",
"135 474 OFFCURVE",
"86 438 CURVE",
"108 395 LINE",
"166 431 OFFCURVE",
"219 448 OFFCURVE",
"278 448 CURVE SMOOTH",
"360 448 OFFCURVE",
"394 408 OFFCURVE",
"394 314 CURVE SMOOTH",
"394 279 LINE",
"373 279 LINE SMOOTH",
"141 279 OFFCURVE",
"66 245 OFFCURVE",
"66 139 CURVE SMOOTH",
"66 55 OFFCURVE",
"141 -7 OFFCURVE",
"240 -7 CURVE SMOOTH",
"332 -7 OFFCURVE",
"397 45 OFFCURVE",
"420 130 CURVE",
"453 42 OFFCURVE",
"525 -7 OFFCURVE",
"626 -7 CURVE SMOOTH",
"691 -7 OFFCURVE",
"762 20 OFFCURVE",
"803 60 CURVE",
"781 103 LINE",
"731 62 OFFCURVE",
"679 42 OFFCURVE",
"625 42 CURVE SMOOTH",
"515 42 OFFCURVE",
"452 110 OFFCURVE",
"449 236 CURVE",
"811 236 LINE"
);
},
{
closed = 1;
nodes = (
"705 451 OFFCURVE",
"757 390 OFFCURVE",
"761 279 CURVE",
"451 279 LINE",
"461 386 OFFCURVE",
"521 451 OFFCURVE",
"614 451 CURVE SMOOTH"
);
},
{
closed = 1;
nodes = (
"174 42 OFFCURVE",
"124 83 OFFCURVE",
"124 142 CURVE SMOOTH",
"124 216 OFFCURVE",
"178 236 OFFCURVE",
"375 236 CURVE SMOOTH",
"394 236 LINE",
"394 208 LINE SMOOTH",
"394 110 OFFCURVE",
"331 42 OFFCURVE",
"243 42 CURVE SMOOTH"
);
}
);
width = 859;
}
);
leftKerningGroup = a;
rightKerningGroup = ae;
unicode = 00E6;
},
{
glyphname = aeacute;
lastChange = "2017-11-14 17:14:40 +0000";
layers = (
{
anchors = (
{
name = mark0;
position = "{422, 0}";
},
{
name = mark1;
position = "{0, 0}";
},
{
name = mark2;
position = "{422, 685}";
},
{
name = mark3;
position = "{0, 0}";
},
{
name = mark4;
position = "{0, 0}";
}
);
hints = (
{
place = "{66, 58}";
},
{
place = "{394, 55}";
},
{
place = "{761, 50}";
},
{
horizontal = 1;
place = "{-7, 49}";
},
{
horizontal = 1;
place = "{236, 43}";
},
{
horizontal = 1;
place = "{448, 49}";
},
{
horizontal = 1;
place = "{451, 46}";
},
{
horizontal = 1;
place = "{550, 200}";
}
);
layerId = UUID0;
paths = (
{
closed = 1;
nodes = (
"572 750 LINE",
"501 750 LINE",
"401 550 LINE",
"443 550 LINE"
);
},
{
closed = 1;
nodes = (
"811 261 LINE",
"811 409 OFFCURVE",
"738 497 OFFCURVE",
"614 497 CURVE SMOOTH",
"536 497 OFFCURVE",
"473 459 OFFCURVE",
"436 397 CURVE",
"414 463 OFFCURVE",
"360 497 OFFCURVE",
"274 497 CURVE SMOOTH",
"208 497 OFFCURVE",
"135 474 OFFCURVE",
"86 438 CURVE",
"108 395 LINE",
"166 431 OFFCURVE",
"219 448 OFFCURVE",
"278 448 CURVE SMOOTH",
"360 448 OFFCURVE",
"394 408 OFFCURVE",
"394 314 CURVE SMOOTH",
"394 279 LINE",
"373 279 LINE SMOOTH",
"141 279 OFFCURVE",
"66 245 OFFCURVE",
"66 139 CURVE SMOOTH",
"66 55 OFFCURVE",
"141 -7 OFFCURVE",
"240 -7 CURVE SMOOTH",
"332 -7 OFFCURVE",
"397 45 OFFCURVE",
"420 130 CURVE",
"453 42 OFFCURVE",
"525 -7 OFFCURVE",
"626 -7 CURVE SMOOTH",
"691 -7 OFFCURVE",
"762 20 OFFCURVE",
"803 60 CURVE",
"781 103 LINE",
"731 62 OFFCURVE",
"679 42 OFFCURVE",
"625 42 CURVE SMOOTH",
"515 42 OFFCURVE",
"452 110 OFFCURVE",
"449 236 CURVE",
"811 236 LINE"
);
},
{
closed = 1;
nodes = (
"705 451 OFFCURVE",
"757 390 OFFCURVE",
"761 279 CURVE",
"451 279 LINE",
"461 386 OFFCURVE",
"521 451 OFFCURVE",
"614 451 CURVE SMOOTH"
);
},
{
closed = 1;
nodes = (
"174 42 OFFCURVE",
"124 83 OFFCURVE",
"124 142 CURVE SMOOTH",
"124 216 OFFCURVE",
"178 236 OFFCURVE",
"375 236 CURVE SMOOTH",
"394 236 LINE",
"394 208 LINE SMOOTH",
"394 110 OFFCURVE",
"331 42 OFFCURVE",
"243 42 CURVE SMOOTH"
);
}
);
width = 859;
}
);
leftKerningGroup = a;
rightKerningGroup = ae;
unicode = 01FD;
},
{
glyphname = b;
lastChange = "2017-11-14 17:14:40 +0000";
layers = (
{
anchors = (
{
name = mark0;
position = "{301, 0}";
},
{
name = mark1;
position = "{0, 0}";
},
{
name = mark2;
position = "{304, 490}";
},
{
name = mark3;
position = "{0, 0}";
},
{
name = mark4;
position = "{0, 0}";
}
);
hints = (
{
place = "{82, 54}";
},
{
place = "{463, 57}";
},
{
horizontal = 1;
place = "{-7, 49}";
},
{
horizontal = 1;
place = "{0, 21}";
target = up;
type = BottomGhost;
},
{
horizontal = 1;
place = "{448, 49}";
},
{
horizontal = 1;
place = "{705, -20}";
target = down;
type = TopGhost;
}
);
layerId = UUID0;
paths = (
{
closed = 1;
nodes = (
"224 497 OFFCURVE",
"165 461 OFFCURVE",
"136 395 CURVE",
"136 705 LINE",
"82 705 LINE",
"82 0 LINE",
"136 0 LINE",
"136 95 LINE",
"165 29 OFFCURVE",
"224 -7 OFFCURVE",
"304 -7 CURVE SMOOTH",
"433 -7 OFFCURVE",
"520 94 OFFCURVE",
"520 247 CURVE SMOOTH",
"520 399 OFFCURVE",
"434 497 OFFCURVE",
"304 497 CURVE SMOOTH"
);
},
{
closed = 1;
nodes = (
"194 42 OFFCURVE",
"136 116 OFFCURVE",
"136 245 CURVE SMOOTH",
"136 374 OFFCURVE",
"194 448 OFFCURVE",
"298 448 CURVE SMOOTH",
"402 448 OFFCURVE",
"463 375 OFFCURVE",
"463 247 CURVE SMOOTH",
"463 118 OFFCURVE",
"402 42 OFFCURVE",
"299 42 CURVE SMOOTH"
);
}
);
width = 570;
}
);
leftKerningGroup = b;
rightKerningGroup = b;
unicode = 0062;
},
{
glyphname = c;
lastChange = "2017-11-14 17:14:40 +0000";
layers = (
{
anchors = (
{
name = mark0;
position = "{273, 0}";
},
{
name = mark1;
position = "{0, 0}";
},
{
name = mark2;
position = "{275, 490}";
},
{
name = mark3;
position = "{0, 0}";
},
{
name = mark4;
position = "{0, 0}";
}
);
hints = (
{
place = "{50, 57}";
},
{
horizontal = 1;
place = "{-7, 49}";
},
{
horizontal = 1;
place = "{448, 49}";
}
);
layerId = UUID0;
paths = (
{
closed = 1;
nodes = (
"340 -7 OFFCURVE",
"405 18 OFFCURVE",
"445 58 CURVE",
"423 101 LINE",
"373 60 OFFCURVE",
"329 42 OFFCURVE",
"279 42 CURVE SMOOTH",
"172 42 OFFCURVE",
"107 116 OFFCURVE",
"107 243 CURVE SMOOTH",
"107 371 OFFCURVE",
"173 448 OFFCURVE",
"280 448 CURVE SMOOTH",
"329 448 OFFCURVE",
"373 430 OFFCURVE",
"423 389 CURVE",
"445 432 LINE",
"407 472 OFFCURVE",
"343 497 OFFCURVE",
"278 497 CURVE SMOOTH",
"139 497 OFFCURVE",
"50 395 OFFCURVE",
"50 243 CURVE SMOOTH",
"50 93 OFFCURVE",
"138 -7 OFFCURVE",
"276 -7 CURVE SMOOTH"
);
}
);
width = 473;
}
);
leftKerningGroup = c;
rightKerningGroup = c;
unicode = 0063;
},
{
glyphname = cacute;
lastChange = "2017-11-14 17:14:40 +0000";
layers = (
{
anchors = (
{
name = mark0;
position = "{273, 0}";
},
{
name = mark1;
position = "{0, 0}";
},
{
name = mark2;
position = "{275, 685}";
},
{
name = mark3;
position = "{0, 0}";
},
{
name = mark4;
position = "{0, 0}";
}
);
hints = (
{
place = "{50, 57}";
},
{
horizontal = 1;
place = "{-7, 49}";
},
{
horizontal = 1;
place = "{448, 49}";
},
{
horizontal = 1;
place = "{550, 200}";
}
);
layerId = UUID0;
paths = (
{
closed = 1;
nodes = (
"296 550 LINE",
"425 750 LINE",
"354 750 LINE",
"254 550 LINE"
);
},
{
closed = 1;
nodes = (
"340 -7 OFFCURVE",
"405 18 OFFCURVE",
"445 58 CURVE",
"423 101 LINE",
"373 60 OFFCURVE",
"329 42 OFFCURVE",
"279 42 CURVE SMOOTH",
"172 42 OFFCURVE",
"107 116 OFFCURVE",
"107 243 CURVE SMOOTH",
"107 371 OFFCURVE",
"173 448 OFFCURVE",
"280 448 CURVE SMOOTH",
"329 448 OFFCURVE",
"373 430 OFFCURVE",
"423 389 CURVE",
"445 432 LINE",
"407 472 OFFCURVE",
"343 497 OFFCURVE",
"278 497 CURVE SMOOTH",
"139 497 OFFCURVE",
"50 395 OFFCURVE",
"50 243 CURVE SMOOTH",
"50 93 OFFCURVE",
"138 -7 OFFCURVE",
"276 -7 CURVE SMOOTH"
);
}
);
width = 473;
}
);
leftKerningGroup = c;
rightKerningGroup = c;
unicode = 0107;
},
{
glyphname = ccaron;
lastChange = "2017-11-14 17:14:40 +0000";
layers = (
{
anchors = (
{
name = mark0;
position = "{273, 0}";
},
{
name = mark1;
position = "{0, 0}";
},
{
name = mark2;
position = "{275, 685}";
},
{
name = mark3;
position = "{0, 0}";
},
{
name = mark4;
position = "{0, 0}";
}
);
hints = (
{
place = "{50, 57}";
},
{
horizontal = 1;
place = "{-7, 49}";
},
{
horizontal = 1;
place = "{448, 49}";
},
{
horizontal = 1;
place = "{550, 47}";
}
);
layerId = UUID0;
paths = (
{
closed = 1;
nodes = (
"352 750 LINE",
"275 597 LINE",
"198 750 LINE",
"140 750 LINE",
"253 550 LINE",
"297 550 LINE",
"410 750 LINE"
);
},
{
closed = 1;
nodes = (
"340 -7 OFFCURVE",
"405 18 OFFCURVE",
"445 58 CURVE",
"423 101 LINE",
"373 60 OFFCURVE",
"329 42 OFFCURVE",
"279 42 CURVE SMOOTH",
"172 42 OFFCURVE",
"107 116 OFFCURVE",
"107 243 CURVE SMOOTH",
"107 371 OFFCURVE",
"173 448 OFFCURVE",
"280 448 CURVE SMOOTH",
"329 448 OFFCURVE",
"373 430 OFFCURVE",
"423 389 CURVE",
"445 432 LINE",
"407 472 OFFCURVE",
"343 497 OFFCURVE",
"278 497 CURVE SMOOTH",
"139 497 OFFCURVE",
"50 395 OFFCURVE",
"50 243 CURVE SMOOTH",
"50 93 OFFCURVE",
"138 -7 OFFCURVE",
"276 -7 CURVE SMOOTH"
);
}
);
width = 473;
}
);
leftKerningGroup = c;
rightKerningGroup = c;
unicode = 010D;
},
{
glyphname = ccedilla;
lastChange = "2017-11-14 17:14:40 +0000";
layers = (
{
anchors = (
{
name = mark0;
position = "{273, 0}";
},
{
name = mark1;
position = "{0, 0}";
},
{
name = mark2;
position = "{275, 490}";
},
{
name = mark3;
position = "{0, 0}";
},
{
name = mark4;
position = "{0, 0}";
}
);
hints = (
{
place = "{50, 57}";
},
{
place = "{236, 48}";
},
{
place = "{336, 48}";
},
{
horizontal = 1;
place = "{-191, 42}";
},
{
horizontal = 1;
place = "{-191, 21}";
target = up;
type = BottomGhost;
},
{
horizontal = 1;
place = "{-80, 39}";
},
{
horizontal = 1;
place = "{-7, 49}";
},
{
horizontal = 1;
place = "{-5, 47}";
},
{
horizontal = 1;
place = "{448, 49}";
}
);
layerId = UUID0;
paths = (
{
closed = 1;
nodes = (
"423 101 LINE",
"373 60 OFFCURVE",
"329 42 OFFCURVE",
"279 42 CURVE SMOOTH",
"172 42 OFFCURVE",
"107 116 OFFCURVE",
"107 243 CURVE SMOOTH",
"107 371 OFFCURVE",
"173 448 OFFCURVE",
"280 448 CURVE SMOOTH",
"329 448 OFFCURVE",
"373 430 OFFCURVE",
"423 389 CURVE",
"445 432 LINE",
"407 472 OFFCURVE",
"343 497 OFFCURVE",
"278 497 CURVE SMOOTH",
"139 497 OFFCURVE",
"50 395 OFFCURVE",
"50 243 CURVE SMOOTH",
"50 106 OFFCURVE",
"123 11 OFFCURVE",
"240 -5 CURVE",
"233 -76 LINE",
"252 -91 LINE",
"267 -85 OFFCURVE",
"283 -80 OFFCURVE",
"301 -80 CURVE SMOOTH",
"325 -80 OFFCURVE",
"337 -92 OFFCURVE",
"337 -110 CURVE SMOOTH",
"337 -133 OFFCURVE",
"318 -149 OFFCURVE",
"278 -149 CURVE SMOOTH",
"254 -149 OFFCURVE",
"230 -146 OFFCURVE",
"204 -135 CURVE",
"190 -172 LINE",
"215 -186 OFFCURVE",
"251 -191 OFFCURVE",
"276 -191 CURVE SMOOTH",
"345 -191 OFFCURVE",
"385 -156 OFFCURVE",
"385 -110 CURVE SMOOTH",
"385 -61 OFFCURVE",
"346 -41 OFFCURVE",
"311 -41 CURVE SMOOTH",
"301 -41 OFFCURVE",
"292 -42 OFFCURVE",
"283 -44 CURVE",
"287 -7 LINE",
"347 -4 OFFCURVE",
"407 20 OFFCURVE",
"445 58 CURVE"
);
}
);
width = 473;
}
);
leftKerningGroup = c;
rightKerningGroup = c;
unicode = 00E7;
},
{
glyphname = ccircumflex;
lastChange = "2017-11-14 17:14:40 +0000";
layers = (
{
anchors = (
{
name = mark0;
position = "{273, 0}";
},
{
name = mark1;
position = "{0, 0}";
},
{
name = mark2;
position = "{275, 685}";
},
{
name = mark3;
position = "{0, 0}";
},
{
name = mark4;
position = "{0, 0}";
}
);
hints = (
{
place = "{50, 57}";
},
{
horizontal = 1;
place = "{-7, 49}";
},
{
horizontal = 1;
place = "{448, 49}";
},
{
horizontal = 1;
place = "{703, 47}";
}
);
layerId = UUID0;
paths = (
{
closed = 1;
nodes = (
"198 550 LINE",
"275 703 LINE",
"352 550 LINE",
"410 550 LINE",
"297 750 LINE",
"253 750 LINE",
"140 550 LINE"
);
},
{
closed = 1;
nodes = (
"340 -7 OFFCURVE",
"405 18 OFFCURVE",
"445 58 CURVE",
"423 101 LINE",
"373 60 OFFCURVE",
"329 42 OFFCURVE",
"279 42 CURVE SMOOTH",
"172 42 OFFCURVE",
"107 116 OFFCURVE",
"107 243 CURVE SMOOTH",
"107 371 OFFCURVE",
"173 448 OFFCURVE",
"280 448 CURVE SMOOTH",
"329 448 OFFCURVE",
"373 430 OFFCURVE",
"423 389 CURVE",
"445 432 LINE",
"407 472 OFFCURVE",
"343 497 OFFCURVE",
"278 497 CURVE SMOOTH",
"139 497 OFFCURVE",
"50 395 OFFCURVE",
"50 243 CURVE SMOOTH",
"50 93 OFFCURVE",
"138 -7 OFFCURVE",
"276 -7 CURVE SMOOTH"
);
}
);
width = 473;
}
);
leftKerningGroup = c;
rightKerningGroup = c;
unicode = 0109;
},
{
glyphname = cdotaccent;
lastChange = "2017-11-14 17:14:40 +0000";
layers = (
{
anchors = (
{
name = mark0;
position = "{273, 0}";
},
{
name = mark1;
position = "{0, 0}";
},
{
name = mark2;
position = "{275, 685}";
},
{
name = mark3;
position = "{0, 0}";
},
{
name = mark4;
position = "{0, 0}";
}
);
hints = (
{
place = "{50, 57}";
},
{
place = "{238, 74}";
},
{
horizontal = 1;
place = "{-7, 49}";
},
{
horizontal = 1;
place = "{448, 49}";
},
{
horizontal = 1;
place = "{615, 72}";
}
);
layerId = UUID0;
paths = (
{
closed = 1;
nodes = (
"238 687 LINE",
"238 615 LINE",
"312 615 LINE",
"312 687 LINE"
);
},
{
closed = 1;
nodes = (
"340 -7 OFFCURVE",
"405 18 OFFCURVE",
"445 58 CURVE",
"423 101 LINE",
"373 60 OFFCURVE",
"329 42 OFFCURVE",
"279 42 CURVE SMOOTH",
"172 42 OFFCURVE",
"107 116 OFFCURVE",
"107 243 CURVE SMOOTH",
"107 371 OFFCURVE",
"173 448 OFFCURVE",
"280 448 CURVE SMOOTH",
"329 448 OFFCURVE",
"373 430 OFFCURVE",
"423 389 CURVE",
"445 432 LINE",
"407 472 OFFCURVE",
"343 497 OFFCURVE",
"278 497 CURVE SMOOTH",
"139 497 OFFCURVE",
"50 395 OFFCURVE",
"50 243 CURVE SMOOTH",
"50 93 OFFCURVE",
"138 -7 OFFCURVE",
"276 -7 CURVE SMOOTH"
);
}
);
width = 473;
}
);
leftKerningGroup = c;
rightKerningGroup = c;
unicode = 010B;
},
{
glyphname = d;
lastChange = "2017-11-14 17:14:40 +0000";
layers = (
{
anchors = (
{
name = mark0;
position = "{287, 0}";
},
{
name = mark1;
position = "{0, 0}";
},
{
name = mark2;
position = "{287, 490}";
},
{
name = mark3;
position = "{287, 245}";
},
{
name = mark4;
position = "{528, 705}";
}
);
hints = (
{
place = "{50, 57}";
},
{
place = "{434, 54}";
},
{
horizontal = 1;
place = "{-7, 49}";
},
{
horizontal = 1;
place = "{0, 21}";
target = up;
type = BottomGhost;
},
{
horizontal = 1;
place = "{448, 49}";
},
{
horizontal = 1;
place = "{705, -20}";
target = down;
type = TopGhost;
}
);
layerId = UUID0;
paths = (
{
closed = 1;
nodes = (
"434 705 LINE",
"434 395 LINE",
"405 461 OFFCURVE",
"346 497 OFFCURVE",
"266 497 CURVE SMOOTH",
"136 497 OFFCURVE",
"50 399 OFFCURVE",
"50 247 CURVE SMOOTH",
"50 94 OFFCURVE",
"137 -7 OFFCURVE",
"266 -7 CURVE SMOOTH",
"346 -7 OFFCURVE",
"405 29 OFFCURVE",
"434 95 CURVE",
"434 0 LINE",
"488 0 LINE",
"488 705 LINE"
);
},
{
closed = 1;
nodes = (
"168 42 OFFCURVE",
"107 118 OFFCURVE",
"107 247 CURVE SMOOTH",
"107 375 OFFCURVE",
"168 448 OFFCURVE",
"272 448 CURVE SMOOTH",
"376 448 OFFCURVE",
"434 374 OFFCURVE",
"434 245 CURVE SMOOTH",
"434 116 OFFCURVE",
"376 42 OFFCURVE",
"271 42 CURVE SMOOTH"
);
}
);
width = 570;
}
);
leftKerningGroup = c;
unicode = 0064;
},
{
glyphname = eth;
lastChange = "2017-11-14 17:14:40 +0000";
layers = (
{
hints = (
{
place = "{50, 57}";
},
{
place = "{435, 60}";
},
{
horizontal = 1;
place = "{-7, 49}";
},
{
horizontal = 1;
place = "{406, 49}";
},
{
horizontal = 1;
place = "{711, -20}";
target = down;
type = TopGhost;
}
);
layerId = UUID0;
paths = (
{
closed = 1;
nodes = (
"493 631 LINE",
"478 672 LINE",
"351 621 LINE",
"303 660 OFFCURVE",
"245 690 OFFCURVE",
"175 711 CURVE",
"160 668 LINE",
"214 652 OFFCURVE",
"260 629 OFFCURVE",
"299 601 CURVE",
"167 548 LINE",
"182 507 LINE",
"337 569 LINE",
"390 517 OFFCURVE",
"423 451 OFFCURVE",
"436 372 CURVE",
"402 426 OFFCURVE",
"346 455 OFFCURVE",
"271 455 CURVE SMOOTH",
"138 455 OFFCURVE",
"50 364 OFFCURVE",
"50 224 CURVE SMOOTH",
"50 84 OFFCURVE",
"137 -7 OFFCURVE",
"270 -7 CURVE SMOOTH",
"418 -7 OFFCURVE",
"495 92 OFFCURVE",
"495 284 CURVE SMOOTH",
"495 410 OFFCURVE",
"458 513 OFFCURVE",
"386 588 CURVE"
);
},
{
closed = 1;
nodes = (
"166 42 OFFCURVE",
"107 107 OFFCURVE",
"107 224 CURVE SMOOTH",
"107 339 OFFCURVE",
"168 406 OFFCURVE",
"271 406 CURVE SMOOTH",
"374 406 OFFCURVE",
"435 339 OFFCURVE",
"435 224 CURVE SMOOTH",
"435 110 OFFCURVE",
"373 42 OFFCURVE",
"270 42 CURVE SMOOTH"
);
}
);
width = 545;
}
);
leftKerningGroup = c;
rightKerningGroup = b;
unicode = 00F0;
},
{
glyphname = dcaron;
lastChange = "2017-11-14 17:14:40 +0000";
layers = (
{
anchors = (
{
name = mark0;
position = "{287, 0}";
},
{
name = mark1;
position = "{0, 0}";
},
{
name = mark2;
position = "{287, 490}";
},
{
name = mark3;
position = "{287, 245}";
},
{
name = mark4;
position = "{528, 705}";
}
);
hints = (
{
place = "{50, 57}";
},
{
place = "{434, 54}";
},
{
place = "{524, 33}";
},
{
horizontal = 1;
place = "{-7, 49}";
},
{
horizontal = 1;
place = "{0, 21}";
target = up;
type = BottomGhost;
},
{
horizontal = 1;
place = "{448, 49}";
},
{
horizontal = 1;
place = "{516, 189}";
}
);
layerId = UUID0;
paths = (
{
closed = 1;
nodes = (
"434 395 LINE",
"405 461 OFFCURVE",
"346 497 OFFCURVE",
"266 497 CURVE SMOOTH",
"136 497 OFFCURVE",
"50 399 OFFCURVE",
"50 247 CURVE SMOOTH",
"50 94 OFFCURVE",
"137 -7 OFFCURVE",
"266 -7 CURVE SMOOTH",
"346 -7 OFFCURVE",
"405 29 OFFCURVE",
"434 95 CURVE",
"434 0 LINE",
"488 0 LINE",
"488 705 LINE",
"434 705 LINE"
);
},
{
closed = 1;
nodes = (
"524 705 LINE",
"524 516 LINE",
"557 516 LINE",
"583 705 LINE"
);
},
{
closed = 1;
nodes = (
"168 42 OFFCURVE",
"107 118 OFFCURVE",
"107 247 CURVE SMOOTH",
"107 375 OFFCURVE",
"168 448 OFFCURVE",
"272 448 CURVE SMOOTH",
"376 448 OFFCURVE",
"434 374 OFFCURVE",
"434 245 CURVE SMOOTH",
"434 116 OFFCURVE",
"376 42 OFFCURVE",
"271 42 CURVE SMOOTH"
);
}
);
width = 570;
}
);
leftKerningGroup = c;
rightKerningGroup = dcaron;
unicode = 010F;
},
{
glyphname = dcroat;
lastChange = "2017-11-14 17:14:40 +0000";
layers = (
{
hints = (
{
place = "{50, 57}";
},
{
place = "{434, 54}";
},
{
horizontal = 1;
place = "{-7, 49}";
},
{
horizontal = 1;
place = "{0, 21}";
target = up;
type = BottomGhost;
},
{
horizontal = 1;
place = "{448, 49}";
},
{
horizontal = 1;
place = "{563, 45}";
},
{
horizontal = 1;
place = "{563, 142}";
}
);
layerId = UUID0;
paths = (
{
closed = 1;
nodes = (
"583 608 LINE",
"488 608 LINE",
"488 705 LINE",
"434 705 LINE",
"434 608 LINE",
"239 608 LINE",
"239 563 LINE",
"434 563 LINE",
"434 395 LINE",
"405 461 OFFCURVE",
"346 497 OFFCURVE",
"266 497 CURVE SMOOTH",
"136 497 OFFCURVE",
"50 399 OFFCURVE",
"50 247 CURVE SMOOTH",
"50 94 OFFCURVE",
"137 -7 OFFCURVE",
"266 -7 CURVE SMOOTH",
"346 -7 OFFCURVE",
"405 29 OFFCURVE",
"434 95 CURVE",
"434 0 LINE",
"488 0 LINE",
"488 563 LINE",
"583 563 LINE"
);
},
{
closed = 1;
nodes = (
"168 42 OFFCURVE",
"107 118 OFFCURVE",
"107 247 CURVE SMOOTH",
"107 375 OFFCURVE",
"168 448 OFFCURVE",
"272 448 CURVE SMOOTH",
"376 448 OFFCURVE",
"434 374 OFFCURVE",
"434 245 CURVE SMOOTH",
"434 116 OFFCURVE",
"376 42 OFFCURVE",
"271 42 CURVE SMOOTH"
);
}
);
width = 570;
}
);
leftKerningGroup = c;
unicode = 0111;
},
{
glyphname = e;
lastChange = "2017-11-14 17:14:40 +0000";
layers = (
{
anchors = (
{
name = mark0;
position = "{287, 0}";
},
{
name = mark1;
position = "{377, 10}";
},
{
name = mark2;
position = "{276, 490}";
},
{
name = mark3;
position = "{0, 0}";
},
{
name = mark4;
position = "{0, 0}";
}
);
hints = (
{
place = "{50, 57}";
},
{
place = "{427, 50}";
},
{
horizontal = 1;
place = "{-7, 49}";
},
{
horizontal = 1;
place = "{236, 43}";
},
{
horizontal = 1;
place = "{451, 46}";
}
);
layerId = UUID0;
paths = (
{
closed = 1;
nodes = (
"477 263 LINE",
"477 410 OFFCURVE",
"402 497 OFFCURVE",
"276 497 CURVE SMOOTH",
"142 497 OFFCURVE",
"50 395 OFFCURVE",
"50 244 CURVE SMOOTH",
"50 87 OFFCURVE",
"140 -7 OFFCURVE",
"287 -7 CURVE SMOOTH",
"356 -7 OFFCURVE",
"427 19 OFFCURVE",
"469 60 CURVE",
"447 103 LINE",
"396 61 OFFCURVE",
"345 42 OFFCURVE",
"286 42 CURVE SMOOTH",
"173 42 OFFCURVE",
"110 110 OFFCURVE",
"107 236 CURVE",
"477 236 LINE"
);
},
{
closed = 1;
nodes = (
"371 451 OFFCURVE",
"424 390 OFFCURVE",
"427 279 CURVE",
"109 279 LINE",
"119 387 OFFCURVE",
"180 451 OFFCURVE",
"276 451 CURVE SMOOTH"
);
}
);
width = 525;
}
);
leftKerningGroup = c;
rightKerningGroup = ae;
unicode = 0065;
},
{
glyphname = eacute;
lastChange = "2017-11-14 17:14:40 +0000";
layers = (
{
anchors = (
{
name = mark0;
position = "{287, 0}";
},
{
name = mark1;
position = "{377, 10}";
},
{
name = mark2;
position = "{276, 685}";
},
{
name = mark3;
position = "{0, 0}";
},
{
name = mark4;
position = "{0, 0}";
}
);
hints = (
{
place = "{50, 57}";
},
{
place = "{427, 50}";
},
{
horizontal = 1;
place = "{-7, 49}";
},
{
horizontal = 1;
place = "{236, 43}";
},
{
horizontal = 1;
place = "{451, 46}";
},
{
horizontal = 1;
place = "{550, 200}";
}
);
layerId = UUID0;
paths = (
{
closed = 1;
nodes = (
"426 750 LINE",
"355 750 LINE",
"255 550 LINE",
"297 550 LINE"
);
},
{
closed = 1;
nodes = (
"477 263 LINE",
"477 410 OFFCURVE",
"402 497 OFFCURVE",
"276 497 CURVE SMOOTH",
"142 497 OFFCURVE",
"50 395 OFFCURVE",
"50 244 CURVE SMOOTH",
"50 87 OFFCURVE",
"140 -7 OFFCURVE",
"287 -7 CURVE SMOOTH",
"356 -7 OFFCURVE",
"427 19 OFFCURVE",
"469 60 CURVE",
"447 103 LINE",
"396 61 OFFCURVE",
"345 42 OFFCURVE",
"286 42 CURVE SMOOTH",
"173 42 OFFCURVE",
"110 110 OFFCURVE",
"107 236 CURVE",
"477 236 LINE"
);
},
{
closed = 1;
nodes = (
"371 451 OFFCURVE",
"424 390 OFFCURVE",
"427 279 CURVE",
"109 279 LINE",
"119 387 OFFCURVE",
"180 451 OFFCURVE",
"276 451 CURVE SMOOTH"
);
}
);
width = 525;
}
);
leftKerningGroup = c;
rightKerningGroup = ae;
unicode = 00E9;
},
{
glyphname = ebreve;
lastChange = "2017-11-14 17:14:40 +0000";
layers = (
{
anchors = (
{
name = mark0;
position = "{287, 0}";
},
{
name = mark1;
position = "{377, 10}";
},
{
name = mark2;
position = "{276, 685}";
},
{
name = mark3;
position = "{0, 0}";
},
{
name = mark4;
position = "{0, 0}";
}
);
hints = (
{
place = "{50, 57}";
},
{
place = "{427, 50}";
},
{
horizontal = 1;
place = "{-7, 49}";
},
{
horizontal = 1;
place = "{236, 43}";
},
{
horizontal = 1;
place = "{451, 46}";
},
{
horizontal = 1;
place = "{583, 46}";
},
{
horizontal = 1;
place = "{721, -20}";
target = down;
type = TopGhost;
}
);
layerId = UUID0;
paths = (
{
closed = 1;
nodes = (
"340 583 OFFCURVE",
"403 615 OFFCURVE",
"433 703 CURVE",
"389 721 LINE",
"359 652 OFFCURVE",
"321 629 OFFCURVE",
"276 629 CURVE SMOOTH",
"231 629 OFFCURVE",
"193 652 OFFCURVE",
"163 721 CURVE",
"119 702 LINE",
"151 615 OFFCURVE",
"212 583 OFFCURVE",
"276 583 CURVE SMOOTH"
);
},
{
closed = 1;
nodes = (
"477 263 LINE",
"477 410 OFFCURVE",
"402 497 OFFCURVE",
"276 497 CURVE SMOOTH",
"142 497 OFFCURVE",
"50 395 OFFCURVE",
"50 244 CURVE SMOOTH",
"50 87 OFFCURVE",
"140 -7 OFFCURVE",
"287 -7 CURVE SMOOTH",
"356 -7 OFFCURVE",
"427 19 OFFCURVE",
"469 60 CURVE",
"447 103 LINE",
"396 61 OFFCURVE",
"345 42 OFFCURVE",
"286 42 CURVE SMOOTH",
"173 42 OFFCURVE",
"110 110 OFFCURVE",
"107 236 CURVE",
"477 236 LINE"
);
},
{
closed = 1;
nodes = (
"371 451 OFFCURVE",
"424 390 OFFCURVE",
"427 279 CURVE",
"109 279 LINE",
"119 387 OFFCURVE",
"180 451 OFFCURVE",
"276 451 CURVE SMOOTH"
);
}
);
width = 525;
}
);
leftKerningGroup = c;
rightKerningGroup = ae;
unicode = 0115;
},
{
glyphname = ecaron;
lastChange = "2017-11-14 17:14:40 +0000";
layers = (
{
anchors = (
{
name = mark0;
position = "{287, 0}";
},
{
name = mark1;
position = "{377, 10}";
},
{
name = mark2;
position = "{276, 685}";
},
{
name = mark3;
position = "{0, 0}";
},
{
name = mark4;
position = "{0, 0}";
}
);
hints = (
{
place = "{50, 57}";
},
{
place = "{427, 50}";
},
{
horizontal = 1;
place = "{-7, 49}";
},
{
horizontal = 1;
place = "{236, 43}";
},
{
horizontal = 1;
place = "{451, 46}";
},
{
horizontal = 1;
place = "{550, 47}";
}
);
layerId = UUID0;
paths = (
{
closed = 1;
nodes = (
"298 550 LINE",
"411 750 LINE",
"353 750 LINE",
"276 597 LINE",
"199 750 LINE",
"141 750 LINE",
"254 550 LINE"
);
},
{
closed = 1;
nodes = (
"477 263 LINE",
"477 410 OFFCURVE",
"402 497 OFFCURVE",
"276 497 CURVE SMOOTH",
"142 497 OFFCURVE",
"50 395 OFFCURVE",
"50 244 CURVE SMOOTH",
"50 87 OFFCURVE",
"140 -7 OFFCURVE",
"287 -7 CURVE SMOOTH",
"356 -7 OFFCURVE",
"427 19 OFFCURVE",
"469 60 CURVE",
"447 103 LINE",
"396 61 OFFCURVE",
"345 42 OFFCURVE",
"286 42 CURVE SMOOTH",
"173 42 OFFCURVE",
"110 110 OFFCURVE",
"107 236 CURVE",
"477 236 LINE"
);
},
{
closed = 1;
nodes = (
"371 451 OFFCURVE",
"424 390 OFFCURVE",
"427 279 CURVE",
"109 279 LINE",
"119 387 OFFCURVE",
"180 451 OFFCURVE",
"276 451 CURVE SMOOTH"
);
}
);
width = 525;
}
);
leftKerningGroup = c;
rightKerningGroup = ae;
unicode = 011B;
},
{
glyphname = ecircumflex;
lastChange = "2017-11-14 17:14:40 +0000";
layers = (
{
anchors = (
{
name = mark0;
position = "{287, 0}";
},
{
name = mark1;
position = "{377, 10}";
},
{
name = mark2;
position = "{276, 685}";
},
{
name = mark3;
position = "{0, 0}";
},
{
name = mark4;
position = "{0, 0}";
}
);
hints = (
{
place = "{50, 57}";
},
{
place = "{427, 50}";
},
{
horizontal = 1;
place = "{-7, 49}";
},
{
horizontal = 1;
place = "{236, 43}";
},
{
horizontal = 1;
place = "{451, 46}";
},
{
horizontal = 1;
place = "{703, 47}";
}
);
layerId = UUID0;
paths = (
{
closed = 1;
nodes = (
"276 703 LINE",
"353 550 LINE",
"411 550 LINE",
"298 750 LINE",
"254 750 LINE",
"141 550 LINE",
"199 550 LINE"
);
},
{
closed = 1;
nodes = (
"477 263 LINE",
"477 410 OFFCURVE",
"402 497 OFFCURVE",
"276 497 CURVE SMOOTH",
"142 497 OFFCURVE",
"50 395 OFFCURVE",
"50 244 CURVE SMOOTH",
"50 87 OFFCURVE",
"140 -7 OFFCURVE",
"287 -7 CURVE SMOOTH",
"356 -7 OFFCURVE",
"427 19 OFFCURVE",
"469 60 CURVE",
"447 103 LINE",
"396 61 OFFCURVE",
"345 42 OFFCURVE",
"286 42 CURVE SMOOTH",
"173 42 OFFCURVE",
"110 110 OFFCURVE",
"107 236 CURVE",
"477 236 LINE"
);
},
{
closed = 1;
nodes = (
"371 451 OFFCURVE",
"424 390 OFFCURVE",
"427 279 CURVE",
"109 279 LINE",
"119 387 OFFCURVE",
"180 451 OFFCURVE",
"276 451 CURVE SMOOTH"
);
}
);
width = 525;
}
);
leftKerningGroup = c;
rightKerningGroup = ae;
unicode = 00EA;
},
{
glyphname = edieresis;
lastChange = "2017-11-14 17:14:40 +0000";
layers = (
{
anchors = (
{
name = mark0;
position = "{287, 0}";
},
{
name = mark1;
position = "{377, 10}";
},
{
name = mark2;
position = "{276, 685}";
},
{
name = mark3;
position = "{0, 0}";
},
{
name = mark4;
position = "{0, 0}";
}
);
hints = (
{
place = "{50, 57}";
},
{
place = "{159, 70}";
},
{
place = "{323, 70}";
},
{
place = "{427, 50}";
},
{
horizontal = 1;
place = "{-7, 49}";
},
{
horizontal = 1;
place = "{236, 43}";
},
{
horizontal = 1;
place = "{451, 46}";
},
{
horizontal = 1;
place = "{617, 68}";
}
);
layerId = UUID0;
paths = (
{
closed = 1;
nodes = (
"229 685 LINE",
"159 685 LINE",
"159 617 LINE",
"229 617 LINE"
);
},
{
closed = 1;
nodes = (
"393 685 LINE",
"323 685 LINE",
"323 617 LINE",
"393 617 LINE"
);
},
{
closed = 1;
nodes = (
"477 263 LINE",
"477 410 OFFCURVE",
"402 497 OFFCURVE",
"276 497 CURVE SMOOTH",
"142 497 OFFCURVE",
"50 395 OFFCURVE",
"50 244 CURVE SMOOTH",
"50 87 OFFCURVE",
"140 -7 OFFCURVE",
"287 -7 CURVE SMOOTH",
"356 -7 OFFCURVE",
"427 19 OFFCURVE",
"469 60 CURVE",
"447 103 LINE",
"396 61 OFFCURVE",
"345 42 OFFCURVE",
"286 42 CURVE SMOOTH",
"173 42 OFFCURVE",
"110 110 OFFCURVE",
"107 236 CURVE",
"477 236 LINE"
);
},
{
closed = 1;
nodes = (
"371 451 OFFCURVE",
"424 390 OFFCURVE",
"427 279 CURVE",
"109 279 LINE",
"119 387 OFFCURVE",
"180 451 OFFCURVE",
"276 451 CURVE SMOOTH"
);
}
);
width = 525;
}
);
leftKerningGroup = c;
rightKerningGroup = ae;
unicode = 00EB;
},
{
glyphname = edotaccent;
lastChange = "2017-11-14 17:14:40 +0000";
layers = (
{
anchors = (
{
name = mark0;
position = "{287, 0}";
},
{
name = mark1;
position = "{377, 10}";
},
{
name = mark2;
position = "{276, 685}";
},
{
name = mark3;
position = "{0, 0}";
},
{
name = mark4;
position = "{0, 0}";
}
);
hints = (
{
place = "{50, 57}";
},
{
place = "{239, 74}";
},
{
place = "{427, 50}";
},
{
horizontal = 1;
place = "{-7, 49}";
},
{
horizontal = 1;
place = "{236, 43}";
},
{
horizontal = 1;
place = "{451, 46}";
},
{
horizontal = 1;
place = "{615, 72}";
}
);
layerId = UUID0;
paths = (
{
closed = 1;
nodes = (
"313 687 LINE",
"239 687 LINE",
"239 615 LINE",
"313 615 LINE"
);
},
{
closed = 1;
nodes = (
"477 263 LINE",
"477 410 OFFCURVE",
"402 497 OFFCURVE",
"276 497 CURVE SMOOTH",
"142 497 OFFCURVE",
"50 395 OFFCURVE",
"50 244 CURVE SMOOTH",
"50 87 OFFCURVE",
"140 -7 OFFCURVE",
"287 -7 CURVE SMOOTH",
"356 -7 OFFCURVE",
"427 19 OFFCURVE",
"469 60 CURVE",
"447 103 LINE",
"396 61 OFFCURVE",
"345 42 OFFCURVE",
"286 42 CURVE SMOOTH",
"173 42 OFFCURVE",
"110 110 OFFCURVE",
"107 236 CURVE",
"477 236 LINE"
);
},
{
closed = 1;
nodes = (
"371 451 OFFCURVE",
"424 390 OFFCURVE",
"427 279 CURVE",
"109 279 LINE",
"119 387 OFFCURVE",
"180 451 OFFCURVE",
"276 451 CURVE SMOOTH"
);
}
);
width = 525;
}
);
leftKerningGroup = c;
rightKerningGroup = ae;
unicode = 0117;
},
{
glyphname = egrave;
lastChange = "2017-11-14 17:14:40 +0000";
layers = (
{
anchors = (
{
name = mark0;
position = "{287, 0}";
},
{
name = mark1;
position = "{377, 10}";
},
{
name = mark2;
position = "{276, 685}";
},
{
name = mark3;
position = "{0, 0}";
},
{
name = mark4;
position = "{0, 0}";
}
);
hints = (
{
place = "{50, 57}";
},
{
place = "{427, 50}";
},
{
horizontal = 1;
place = "{-7, 49}";
},
{
horizontal = 1;
place = "{236, 43}";
},
{
horizontal = 1;
place = "{451, 46}";
},
{
horizontal = 1;
place = "{550, 200}";
}
);
layerId = UUID0;
paths = (
{
closed = 1;
nodes = (
"297 550 LINE",
"197 750 LINE",
"126 750 LINE",
"255 550 LINE"
);
},
{
closed = 1;
nodes = (
"477 263 LINE",
"477 410 OFFCURVE",
"402 497 OFFCURVE",
"276 497 CURVE SMOOTH",
"142 497 OFFCURVE",
"50 395 OFFCURVE",
"50 244 CURVE SMOOTH",
"50 87 OFFCURVE",
"140 -7 OFFCURVE",
"287 -7 CURVE SMOOTH",
"356 -7 OFFCURVE",
"427 19 OFFCURVE",
"469 60 CURVE",
"447 103 LINE",
"396 61 OFFCURVE",
"345 42 OFFCURVE",
"286 42 CURVE SMOOTH",
"173 42 OFFCURVE",
"110 110 OFFCURVE",
"107 236 CURVE",
"477 236 LINE"
);
},
{
closed = 1;
nodes = (
"371 451 OFFCURVE",
"424 390 OFFCURVE",
"427 279 CURVE",
"109 279 LINE",
"119 387 OFFCURVE",
"180 451 OFFCURVE",
"276 451 CURVE SMOOTH"
);
}
);
width = 525;
}
);
leftKerningGroup = c;
rightKerningGroup = ae;
unicode = 00E8;
},
{
glyphname = emacron;
lastChange = "2017-11-14 17:14:40 +0000";
layers = (
{
anchors = (
{
name = mark0;
position = "{287, 0}";
},
{
name = mark1;
position = "{377, 10}";
},
{
name = mark2;
position = "{276, 685}";
},
{
name = mark3;
position = "{0, 0}";
},
{
name = mark4;
position = "{0, 0}";
}
);
hints = (
{
place = "{50, 57}";
},
{
place = "{427, 50}";
},
{
horizontal = 1;
place = "{-7, 49}";
},
{
horizontal = 1;
place = "{236, 43}";
},
{
horizontal = 1;
place = "{451, 46}";
},
{
horizontal = 1;
place = "{627, 48}";
}
);
layerId = UUID0;
paths = (
{
closed = 1;
nodes = (
"423 675 LINE",
"129 675 LINE",
"129 627 LINE",
"423 627 LINE"
);
},
{
closed = 1;
nodes = (
"477 263 LINE",
"477 410 OFFCURVE",
"402 497 OFFCURVE",
"276 497 CURVE SMOOTH",
"142 497 OFFCURVE",
"50 395 OFFCURVE",
"50 244 CURVE SMOOTH",
"50 87 OFFCURVE",
"140 -7 OFFCURVE",
"287 -7 CURVE SMOOTH",
"356 -7 OFFCURVE",
"427 19 OFFCURVE",
"469 60 CURVE",
"447 103 LINE",
"396 61 OFFCURVE",
"345 42 OFFCURVE",
"286 42 CURVE SMOOTH",
"173 42 OFFCURVE",
"110 110 OFFCURVE",
"107 236 CURVE",
"477 236 LINE"
);
},
{
closed = 1;
nodes = (
"371 451 OFFCURVE",
"424 390 OFFCURVE",
"427 279 CURVE",
"109 279 LINE",
"119 387 OFFCURVE",
"180 451 OFFCURVE",
"276 451 CURVE SMOOTH"
);
}
);
width = 525;
}
);
leftKerningGroup = c;
rightKerningGroup = ae;
unicode = 0113;
},
{
glyphname = eogonek;
lastChange = "2017-11-14 17:14:40 +0000";
layers = (
{
anchors = (
{
name = mark0;
position = "{0, 0}";
},
{
name = mark1;
position = "{0, 0}";
},
{
name = mark2;
position = "{276, 490}";
},
{
name = mark3;
position = "{0, 0}";
},
{
name = mark4;
position = "{0, 0}";
}
);
hints = (
{
place = "{50, 57}";
},
{
place = "{276, 50}";
},
{
place = "{427, 50}";
},
{
horizontal = 1;
place = "{-191, 43}";
},
{
horizontal = 1;
place = "{-7, 49}";
},
{
horizontal = 1;
place = "{236, 43}";
},
{
horizontal = 1;
place = "{451, 46}";
}
);
layerId = UUID0;
paths = (
{
closed = 1;
nodes = (
"477 263 LINE",
"477 410 OFFCURVE",
"402 497 OFFCURVE",
"276 497 CURVE SMOOTH",
"142 497 OFFCURVE",
"50 395 OFFCURVE",
"50 244 CURVE SMOOTH",
"50 87 OFFCURVE",
"140 -7 OFFCURVE",
"287 -7 CURVE SMOOTH",
"297 -7 OFFCURVE",
"305 -6 OFFCURVE",
"313 -5 CURVE",
"289 -27 OFFCURVE",
"276 -56 OFFCURVE",
"276 -88 CURVE SMOOTH",
"276 -149 OFFCURVE",
"322 -191 OFFCURVE",
"389 -191 CURVE SMOOTH",
"420 -191 OFFCURVE",
"448 -183 OFFCURVE",
"469 -168 CURVE",
"453 -130 LINE",
"432 -141 OFFCURVE",
"411 -148 OFFCURVE",
"394 -148 CURVE SMOOTH",
"352 -148 OFFCURVE",
"326 -123 OFFCURVE",
"326 -82 CURVE SMOOTH",
"326 -42 OFFCURVE",
"351 -12 OFFCURVE",
"420 27 CURVE SMOOTH",
"452 45 OFFCURVE",
"460 51 OFFCURVE",
"469 61 CURVE",
"447 103 LINE",
"396 61 OFFCURVE",
"345 42 OFFCURVE",
"286 42 CURVE SMOOTH",
"173 42 OFFCURVE",
"110 110 OFFCURVE",
"107 236 CURVE",
"477 236 LINE"
);
},
{
closed = 1;
nodes = (
"371 451 OFFCURVE",
"424 390 OFFCURVE",
"427 279 CURVE",
"109 279 LINE",
"119 387 OFFCURVE",
"180 451 OFFCURVE",
"276 451 CURVE SMOOTH"
);
}
);
width = 525;
}
);
leftKerningGroup = c;
rightKerningGroup = ae;
unicode = 0119;
},
{
glyphname = f;
lastChange = "2017-11-14 17:14:40 +0000";
layers = (
{
anchors = (
{
name = mark0;
position = "{131, 0}";
},
{
name = mark1;
position = "{0, 0}";
},
{
name = mark2;
position = "{131, 490}";
},
{
name = mark3;
position = "{0, 0}";
},
{
name = mark4;
position = "{0, 0}";
}
);
hints = (
{
place = "{104, 54}";
},
{
horizontal = 1;
place = "{0, 21}";
target = up;
type = BottomGhost;
},
{
horizontal = 1;
place = "{440, 45}";
},
{
horizontal = 1;
place = "{660, 46}";
}
);
layerId = UUID0;
paths = (
{
closed = 1;
nodes = (
"158 515 LINE",
"158 607 OFFCURVE",
"196 654 OFFCURVE",
"279 659 CURVE SMOOTH",
"325 662 LINE",
"320 707 LINE",
"286 705 LINE SMOOTH",
"163 698 OFFCURVE",
"104 635 OFFCURVE",
"104 511 CURVE SMOOTH",
"104 485 LINE",
"8 485 LINE",
"8 440 LINE",
"104 440 LINE",
"104 0 LINE",
"158 0 LINE",
"158 440 LINE",
"302 440 LINE",
"302 485 LINE",
"158 485 LINE"
);
}
);
width = 310;
}
);
leftKerningGroup = f;
unicode = 0066;
},
